<?xml version="1.0" encoding="UTF-8" standalone="no"?>
<!DOCTYPE svg PUBLIC "-//W3C//DTD SVG 1.1//EN" "http://www.w3.org/Graphics/SVG/1.1/DTD/svg11.dtd">
<svg width="100%" height="100%" viewBox="0 0 776 477" version="1.1" xmlns="http://www.w3.org/2000/svg" xmlns:xlink="http://www.w3.org/1999/xlink" xml:space="preserve" xmlns:serif="http://www.serif.com/" style="fill-rule:evenodd;clip-rule:evenodd;stroke-linejoin:round;stroke-miterlimit:2;">
    <g transform="matrix(1,0,0,1,-12.3975,-61.9648)">
        <g transform="matrix(2.96596,0,0,2.96596,12.3973,59.8487)">
            <text x="90.125px" y="47.975px" style="font-family:'Pridi-Regular', 'Pridi';font-size:7px;">B<tspan x="94.675px " y="47.975px ">o</tspan></text>
            <text x="98.994px" y="47.975px" style="font-family:'Pridi-Regular', 'Pridi';font-size:7px;">o</text>
            <text x="103.229px" y="47.975px" style="font-family:'Pridi-Regular', 'Pridi';font-size:7px;">t</text>
            <text x="106.778px" y="47.975px" style="font-family:'Pridi-Regular', 'Pridi';font-size:7px;">s<tspan x="110.418px 113.974px " y="47.975px 47.975px ">tr</tspan></text>
            <text x="117.012px" y="47.975px" style="font-family:'Pridi-Regular', 'Pridi';font-size:7px;">a<tspan x="120.981px " y="47.975px ">p</tspan></text>
        </g>
        <g transform="matrix(2.96596,0,0,2.96596,12.3973,59.8487)">
            <text x="53.673px" y="47.975px" style="font-family:'Pridi-Regular', 'Pridi';font-size:7px;">C</text>
            <text x="58.265px" y="47.975px" style="font-family:'Pridi-Regular', 'Pridi';font-size:7px;">S<tspan x="62.416px " y="47.975px ">S</tspan></text>
        </g>
        <g transform="matrix(2.96596,0,0,2.96596,12.3973,59.8487)">
            <text x="245.046px" y="47.975px" style="font-family:'Pridi-Regular', 'Pridi';font-size:7px;">G<tspan x="249.796px 252.34px " y="47.975px 47.975px ">IT</tspan></text>
        </g>
        <g transform="matrix(2.96596,0,0,2.96596,12.3973,59.8487)">
            <text x="0.515px" y="47.975px" style="font-family:'Pridi-Regular', 'Pridi';font-size:7px;">H<tspan x="5.718px 10.13px " y="47.975px 47.975px ">TM</tspan></text>
            <text x="15.984px" y="47.975px" style="font-family:'Pridi-Regular', 'Pridi';font-size:7px;">L<tspan x="20.023px " y="47.975px ">5</tspan></text>
        </g>
        <g transform="matrix(2.96596,0,0,2.96596,12.3973,59.8487)">
            <text x="187.772px" y="47.975px" style="font-family:'Pridi-Regular', 'Pridi';font-size:7px;">R</text>
            <text x="192.427px" y="47.975px" style="font-family:'Pridi-Regular', 'Pridi';font-size:7px;">e</text>
            <text x="196.599px" y="47.975px" style="font-family:'Pridi-Regular', 'Pridi';font-size:7px;">a<tspan x="200.606px " y="47.975px ">c</tspan></text>
            <text x="204.635px" y="47.975px" style="font-family:'Pridi-Regular', 'Pridi';font-size:7px;">t</text>
            <text x="211.026px" y="47.975px" style="font-family:'Pridi-Regular', 'Pridi';font-size:7px;">J<tspan x="214.848px " y="47.975px ">S</tspan></text>
        </g>
        <g transform="matrix(2.96596,0,0,2.96596,12.3973,59.8487)">
            <text x="136.693px" y="47.975px" style="font-family:'Pridi-Regular', 'Pridi';font-size:7px;">J<tspan x="140.417px " y="47.975px ">a</tspan></text>
            <text x="144.33px" y="47.975px" style="font-family:'Pridi-Regular', 'Pridi';font-size:7px;">v</text>
            <text x="148.67px" y="47.975px" style="font-family:'Pridi-Regular', 'Pridi';font-size:7px;">a</text>
            <text x="152.772px" y="47.975px" style="font-family:'Pridi-Regular', 'Pridi';font-size:7px;">S<tspan x="156.916px " y="47.975px ">c</tspan></text>
            <text x="160.934px" y="47.975px" style="font-family:'Pridi-Regular', 'Pridi';font-size:7px;">r</text>
            <text x="164.112px" y="47.975px" style="font-family:'Pridi-Regular', 'Pridi';font-size:7px;">i</text>
            <text x="166.415px" y="47.975px" style="font-family:'Pridi-Regular', 'Pridi';font-size:7px;">p<tspan x="170.881px " y="47.975px ">t</tspan></text>
        </g>
        <g transform="matrix(2.96596,0,0,2.96596,12.3973,59.8487)">
            <text x="0.82px" y="5.131px" style="font-family:'Averta-Regular';font-size:6px;fill:rgb(128,128,128);">I</text>
            <text x="2.488px" y="5.131px" style="font-family:'Averta-Regular';font-size:6px;fill:rgb(128,128,128);">n</text>
            <text x="6.412px" y="5.131px" style="font-family:'Averta-Regular';font-size:6px;fill:rgb(128,128,128);">t</text>
            <text x="8.596px" y="5.131px" style="font-family:'Averta-Regular';font-size:6px;fill:rgb(128,128,128);">e</text>
            <text x="12.262px" y="5.131px" style="font-family:'Averta-Regular';font-size:6px;fill:rgb(128,128,128);">rmedio</text>
        </g>
        <g transform="matrix(2.96596,0,0,2.96596,12.3973,59.8487)">
            <text x="0.86px" y="63.208px" style="font-family:'Averta-Regular';font-size:6px;fill:rgb(128,128,128);">Bás</text>
            <text x="10.988px" y="63.208px" style="font-family:'Averta-Regular';font-size:6px;fill:rgb(128,128,128);">i</text>
            <text x="13.4px" y="63.208px" style="font-family:'Averta-Regular';font-size:6px;fill:rgb(128,128,128);">co</text>
        </g>
        <g transform="matrix(2.96596,0,0,2.96596,12.3973,59.8487)">
            <text x="14.621px" y="102.738px" style="font-family:'Pridi-Regular', 'Pridi';font-size:7px;">S</text>
            <text x="18.73px" y="102.738px" style="font-family:'Pridi-Regular', 'Pridi';font-size:7px;">Q</text>
            <text x="23.658px" y="102.738px" style="font-family:'Pridi-Regular', 'Pridi';font-size:7px;">L</text>
            <text x="27.732px" y="102.738px" style="font-family:'Pridi-Regular', 'Pridi';font-size:7px;">A</text>
            <text x="33.178px" y="102.738px" style="font-family:'Pridi-Regular', 'Pridi';font-size:7px;">l</text>
            <text x="35.558px" y="102.738px" style="font-family:'Pridi-Regular', 'Pridi';font-size:7px;">c</text>
            <text x="39.583px" y="102.738px" style="font-family:'Pridi-Regular', 'Pridi';font-size:7px;">h<tspan x="44.154px " y="102.738px ">e</tspan></text>
            <text x="48.27px" y="102.738px" style="font-family:'Pridi-Regular', 'Pridi';font-size:7px;">m<tspan x="54.514px " y="102.738px ">y</tspan></text>
        </g>
        <g transform="matrix(2.96596,0,0,2.96596,12.3973,59.8487)">
            <text x="121.552px" y="102.738px" style="font-family:'Pridi-Regular', 'Pridi';font-size:7px;">P</text>
            <text x="126.347px" y="102.738px" style="font-family:'Pridi-Regular', 'Pridi';font-size:7px;">y</text>
            <text x="130.687px" y="102.738px" style="font-family:'Pridi-Regular', 'Pridi';font-size:7px;">t</text>
            <text x="134.236px" y="102.738px" style="font-family:'Pridi-Regular', 'Pridi';font-size:7px;">h<tspan x="138.796px 143.035px " y="102.738px 102.738px ">on</tspan></text>
        </g>
        <g transform="matrix(2.96596,0,0,2.96596,12.3973,59.8487)">
            <text x="229.725px" y="102.738px" style="font-family:'Pridi-Regular', 'Pridi';font-size:7px;">F</text>
            <text x="233.946px" y="102.738px" style="font-family:'Pridi-Regular', 'Pridi';font-size:7px;">l<tspan x="236.466px " y="102.738px ">a</tspan></text>
            <text x="240.582px" y="102.738px" style="font-family:'Pridi-Regular', 'Pridi';font-size:7px;">s<tspan x="244.222px " y="102.738px ">k</tspan></text>
        </g>
        <g transform="matrix(2.96596,0,0,2.96596,12.3973,59.8487)">
            <text x="228.807px" y="122.934px" style="font-family:'Averta-Regular';font-size:6px;fill:rgb(128,128,128);">A</text>
            <text x="232.899px" y="122.934px" style="font-family:'Averta-Regular';font-size:6px;fill:rgb(128,128,128);">v</text>
            <text x="236.205px" y="122.934px" style="font-family:'Averta-Regular';font-size:6px;fill:rgb(128,128,128);">a</text>
            <text x="239.853px" y="122.934px" style="font-family:'Averta-Regular';font-size:6px;fill:rgb(128,128,128);">n</text>
            <text x="243.747px" y="122.934px" style="font-family:'Averta-Regular';font-size:6px;fill:rgb(128,128,128);">z</text>
            <text x="246.597px" y="122.934px" style="font-family:'Averta-Regular';font-size:6px;fill:rgb(128,128,128);">a</text>
            <text x="250.593px" y="122.934px" style="font-family:'Averta-Regular';font-size:6px;fill:rgb(128,128,128);">do</text>
        </g>
        <g transform="matrix(2.96596,0,0,2.96596,12.3973,59.8487)">
            <text x="134.383px" y="122.934px" style="font-family:'Averta-Regular';font-size:6px;fill:rgb(128,128,128);">I</text>
            <text x="136.051px" y="122.934px" style="font-family:'Averta-Regular';font-size:6px;fill:rgb(128,128,128);">n</text>
            <text x="139.975px" y="122.934px" style="font-family:'Averta-Regular';font-size:6px;fill:rgb(128,128,128);">t</text>
            <text x="142.159px" y="122.934px" style="font-family:'Averta-Regular';font-size:6px;fill:rgb(128,128,128);">e</text>
            <text x="145.825px" y="122.934px" style="font-family:'Averta-Regular';font-size:6px;fill:rgb(128,128,128);">rmedio</text>
        </g>
        <g transform="matrix(2.96596,0,0,2.96596,12.3973,59.8487)">
            <text x="23.263px" y="122.934px" style="font-family:'Averta-Regular';font-size:6px;fill:rgb(128,128,128);">Bás</text>
            <text x="33.391px" y="122.934px" style="font-family:'Averta-Regular';font-size:6px;fill:rgb(128,128,128);">i</text>
            <text x="35.095px" y="122.934px" style="font-family:'Averta-Regular';font-size:6px;fill:rgb(128,128,128);">co</text>
        </g>
        <g transform="matrix(2.96596,0,0,2.96596,12.3973,59.8487)">
            <text x="0.063px" y="159.769px" style="font-family:'Pridi-Regular', 'Pridi';font-size:7px;">F</text>
            <text x="4.235px" y="159.769px" style="font-family:'Pridi-Regular', 'Pridi';font-size:7px;">i</text>
            <text x="6.573px" y="159.769px" style="font-family:'Pridi-Regular', 'Pridi';font-size:7px;">g</text>
            <text x="11.088px" y="159.769px" style="font-family:'Pridi-Regular', 'Pridi';font-size:7px;">m<tspan x="17.549px " y="159.769px ">a</tspan></text>
        </g>
        <g transform="matrix(2.96596,0,0,2.96596,12.3973,59.8487)">
            <text x="52.374px" y="159.769px" style="font-family:'Pridi-Regular', 'Pridi';font-size:7px;">X<tspan x="57.512px " y="159.769px ">D</tspan></text>
        </g>
        <g transform="matrix(2.96596,0,0,2.96596,12.3973,59.8487)">
            <text x="82.065px" y="159.769px" style="font-family:'Pridi-Regular', 'Pridi';font-size:7px;">A</text>
            <text x="87.511px" y="159.769px" style="font-family:'Pridi-Regular', 'Pridi';font-size:7px;">F</text>
            <text x="94.672px" y="159.769px" style="font-family:'Pridi-Regular', 'Pridi';font-size:7px;">D<tspan x="99.488px 103.681px " y="159.769px 159.769px ">es</tspan></text>
            <text x="107.335px" y="159.769px" style="font-family:'Pridi-Regular', 'Pridi';font-size:7px;">i</text>
            <text x="109.673px" y="159.769px" style="font-family:'Pridi-Regular', 'Pridi';font-size:7px;">g</text>
            <text x="114.188px" y="159.769px" style="font-family:'Pridi-Regular', 'Pridi';font-size:7px;">n<tspan x="118.755px " y="159.769px ">e</tspan></text>
            <text x="122.875px" y="159.769px" style="font-family:'Pridi-Regular', 'Pridi';font-size:7px;">r</text>
            <text x="134.692px" y="159.769px" style="font-family:'Pridi-Regular', 'Pridi';font-size:7px;">I</text>
            <text x="137.219px" y="159.769px" style="font-family:'Pridi-Regular', 'Pridi';font-size:7px;">n<tspan x="141.865px 146.687px 150.885px " y="159.769px 159.769px 159.769px ">Des</tspan></text>
            <text x="154.544px" y="159.769px" style="font-family:'Pridi-Regular', 'Pridi';font-size:7px;">i</text>
            <text x="156.882px" y="159.769px" style="font-family:'Pridi-Regular', 'Pridi';font-size:7px;">g</text>
            <text x="161.397px" y="159.769px" style="font-family:'Pridi-Regular', 'Pridi';font-size:7px;">n</text>
            <text x="177.755px" y="159.769px" style="font-family:'Pridi-Regular', 'Pridi';font-size:7px;">P</text>
            <text x="182.395px" y="159.769px" style="font-family:'Pridi-Regular', 'Pridi';font-size:7px;">h<tspan x="186.956px " y="159.769px ">o</tspan></text>
            <text x="191.195px" y="159.769px" style="font-family:'Pridi-Regular', 'Pridi';font-size:7px;">t</text>
            <text x="194.695px" y="159.769px" style="font-family:'Pridi-Regular', 'Pridi';font-size:7px;">o<tspan x="199px " y="159.769px ">s</tspan></text>
            <text x="202.633px" y="159.769px" style="font-family:'Pridi-Regular', 'Pridi';font-size:7px;">h<tspan x="207.204px " y="159.769px ">o</tspan></text>
            <text x="211.453px" y="159.769px" style="font-family:'Pridi-Regular', 'Pridi';font-size:7px;">p</text>
            <text x="224.902px" y="159.769px" style="font-family:'Pridi-Regular', 'Pridi';font-size:7px;">I</text>
            <text x="227.429px" y="159.769px" style="font-family:'Pridi-Regular', 'Pridi';font-size:7px;">l</text>
            <text x="229.935px" y="159.769px" style="font-family:'Pridi-Regular', 'Pridi';font-size:7px;">l</text>
            <text x="232.266px" y="159.769px" style="font-family:'Pridi-Regular', 'Pridi';font-size:7px;">u</text>
            <text x="236.823px" y="159.769px" style="font-family:'Pridi-Regular', 'Pridi';font-size:7px;">s</text>
            <text x="240.463px" y="159.769px" style="font-family:'Pridi-Regular', 'Pridi';font-size:7px;">t</text>
            <text x="244.012px" y="159.769px" style="font-family:'Pridi-Regular', 'Pridi';font-size:7px;">r</text>
            <text x="247.057px" y="159.769px" style="font-family:'Pridi-Regular', 'Pridi';font-size:7px;">a</text>
            <text x="250.991px" y="159.769px" style="font-family:'Pridi-Regular', 'Pridi';font-size:7px;">t</text>
            <text x="254.491px" y="159.769px" style="font-family:'Pridi-Regular', 'Pridi';font-size:7px;">o<tspan x="258.733px " y="159.769px ">r</tspan></text>
        </g>
        <g transform="matrix(2.96596,0,0,2.96596,12.3973,59.8487)">
            <g transform="matrix(1,0,0,1,109.765,22.509)">
                <path d="M0,2.513C0.344,2.217 0.516,1.797 0.516,1.246C0.516,0.627 0.361,0.19 0.052,-0.061C-0.258,-0.312 -0.706,-0.44 -1.29,-0.44L-4.8,-0.44L-4.8,2.953L-1.29,2.953C-0.774,2.953 -0.344,2.809 0,2.513" style="fill-rule:nonzero;"/>
            </g>
        </g>
        <g transform="matrix(2.96596,0,0,2.96596,12.3973,59.8487)">
            <g transform="matrix(1,0,0,1,108.767,30.8473)">
                <path d="M0,-3.84L-3.802,-3.84L-3.802,0L0,0C0.654,0 1.163,-0.168 1.521,-0.509C1.882,-0.846 2.065,-1.328 2.065,-1.947C2.065,-2.557 1.886,-3.022 1.521,-3.352C1.156,-3.682 0.654,-3.84 0,-3.84" style="fill-rule:nonzero;"/>
            </g>
        </g>
        <g transform="matrix(2.96596,0,0,2.96596,12.3973,59.8487)">
            <g transform="matrix(1,0,0,1,114.641,36.8007)">
                <path d="M0,-21.06L-14.04,-21.06C-15.97,-21.06 -17.55,-19.481 -17.55,-17.55L-17.55,-3.51C-17.55,-1.581 -15.97,0 -14.04,0L0,0C1.931,0 3.51,-1.581 3.51,-3.51L3.51,-17.55C3.51,-19.481 1.931,-21.06 0,-21.06M-1.917,-6.273C-2.089,-5.853 -2.357,-5.492 -2.725,-5.189C-3.093,-4.886 -3.561,-4.646 -4.136,-4.466C-4.711,-4.289 -5.392,-4.199 -6.184,-4.199L-11.827,-4.199L-11.827,-16.483L-5.857,-16.483C-4.755,-16.483 -3.871,-16.232 -3.207,-15.726C-2.543,-15.22 -2.209,-14.459 -2.209,-13.438C-2.209,-12.819 -2.36,-12.289 -2.663,-11.848C-2.966,-11.408 -3.4,-11.063 -3.964,-10.823L-3.964,-10.789C-3.207,-10.626 -2.632,-10.268 -2.244,-9.714C-1.854,-9.157 -1.659,-8.461 -1.659,-7.622C-1.659,-7.14 -1.745,-6.69 -1.917,-6.273" style="fill-rule:nonzero;"/>
            </g>
        </g>
        <g transform="matrix(2.96596,0,0,2.96596,12.3973,59.8487)">
            <g transform="matrix(1,0,0,1,56.4467,16.648)">
                <path d="M0,0.996L0,0.087L1.326,0.087L1.326,-0.907L-0.995,-0.907L-0.995,1.903L1.326,1.903L1.326,0.996L0,0.996ZM3.711,0.087L4.638,0.087L4.638,-0.907L2.317,-0.907L2.317,0.087C2.628,0.397 2.79,0.546 3.239,0.995C2.976,0.995 2.317,0.996 2.317,0.996L2.317,1.903L4.638,1.903L4.638,0.996L3.711,0.087ZM7,0.087L7.927,0.087L7.927,-0.907L5.607,-0.907L5.607,0.087C5.917,0.397 6.079,0.546 6.528,0.995C6.265,0.995 5.607,0.996 5.607,0.996L5.607,1.903L7.927,1.903L7.927,0.996L7,0.087Z" style="fill-rule:nonzero;"/>
            </g>
        </g>
        <g transform="matrix(2.96596,0,0,2.96596,12.3973,59.8487)">
            <g transform="matrix(1,0,0,1,52.3959,36.8002)">
                <path d="M0,-16.913L1.409,-1.644L7.517,0L13.625,-1.644L15.034,-16.913L0,-16.913ZM12.193,-13.809L12.007,-11.965L7.511,-10.042L7.501,-10.038L11.849,-10.038L11.351,-4.319L7.519,-3.201L7.511,-3.203L7.511,-3.201L3.658,-4.341L3.409,-7.22L3.416,-7.22L3.416,-7.221L5.322,-7.221L5.446,-5.728L7.494,-5.212L7.511,-5.217L7.511,-5.215L9.631,-5.811L9.776,-8.215L7.511,-8.222L3.285,-8.235L3.14,-10.038L7.511,-11.858L7.766,-11.965L2.974,-11.965L2.746,-13.809L12.193,-13.809Z" style="fill-rule:nonzero;"/>
            </g>
        </g>
        <g transform="matrix(2.96596,0,0,2.96596,12.3973,59.8487)">
            <g transform="matrix(1,0,0,1,260.838,27.4058)">
                <path d="M0,-1.877L-9.195,-11.071C-9.725,-11.601 -10.583,-11.601 -11.113,-11.071L-13.022,-9.161L-10.601,-6.739C-10.038,-6.93 -9.392,-6.803 -8.944,-6.355C-8.493,-5.902 -8.366,-5.251 -8.561,-4.686L-6.227,-2.352C-5.662,-2.547 -5.01,-2.421 -4.559,-1.969C-3.929,-1.339 -3.929,-0.317 -4.559,0.314C-5.19,0.944 -6.211,0.944 -6.842,0.314C-7.316,-0.161 -7.433,-0.857 -7.193,-1.441L-9.37,-3.619L-9.37,2.11C-9.217,2.186 -9.072,2.288 -8.944,2.416C-8.313,3.046 -8.313,4.067 -8.944,4.698C-9.574,5.328 -10.596,5.328 -11.226,4.698C-11.856,4.067 -11.856,3.046 -11.226,2.416C-11.07,2.26 -10.89,2.143 -10.697,2.064L-10.697,-3.719C-10.89,-3.798 -11.069,-3.915 -11.226,-4.071C-11.703,-4.549 -11.818,-5.249 -11.573,-5.836L-13.961,-8.224L-20.266,-1.919C-20.796,-1.389 -20.796,-0.53 -20.266,-0.001L-11.07,9.194C-10.541,9.724 -9.683,9.724 -9.152,9.194L0,0.042C0.53,-0.487 0.53,-1.347 0,-1.877" style="fill-rule:nonzero;"/>
            </g>
        </g>
        <g transform="matrix(2.96596,0,0,2.96596,12.3973,59.8487)">
            <g transform="matrix(1,0,0,1,6.2689,18.5787)">
                <path d="M0,-2.838L0.946,-2.838L0.946,-1.901L1.818,-1.901L1.818,-2.838L2.764,-2.838L2.764,0L1.818,0L1.818,-0.945L0.954,-0.945L0.954,0L0,0M4.015,-1.892L3.18,-1.892L3.18,-2.838L5.8,-2.838L5.8,-1.892L4.96,-1.892L4.96,0L4.015,0M6.215,-2.838L7.207,-2.838L7.815,-1.838L8.424,-2.838L9.415,-2.838L9.415,0L8.469,0L8.469,-1.406L7.807,-0.387L7.145,-1.406L7.145,0L6.215,0M9.884,-2.838L10.83,-2.838L10.83,-0.938L12.171,-0.938L12.171,0L9.884,0" style="fill-rule:nonzero;"/>
            </g>
        </g>
        <g transform="matrix(2.96596,0,0,2.96596,12.3973,59.8487)">
            <g transform="matrix(1,0,0,1,4.8788,36.8004)">
                <path d="M0,-16.922L1.357,-1.686L7.449,0L13.565,-1.694L14.923,-16.922L0,-16.922ZM11.961,-11.94L4.821,-11.94L4.993,-10.027L11.793,-10.027L11.278,-4.294L7.461,-3.235L7.461,-3.225L3.628,-4.294L3.365,-7.227L5.24,-7.227L5.372,-5.734L7.457,-5.175L9.538,-5.734L9.756,-8.16L7.453,-8.16L7.453,-8.164L3.282,-8.164L2.772,-13.808L12.134,-13.808L11.961,-11.94Z" style="fill-rule:nonzero;"/>
            </g>
        </g>
        <g transform="matrix(2.96596,0,0,2.96596,12.3973,59.8487)">
            <g transform="matrix(1,0,0,1,214.845,26.4574)">
                <path d="M0,0.005C0,-1.561 -1.962,-3.046 -4.97,-3.967C-4.276,-7.033 -4.584,-9.471 -5.943,-10.253C-6.255,-10.435 -6.62,-10.521 -7.019,-10.522L-7.019,-10.527C-8.344,-10.527 -10.079,-9.583 -11.834,-7.943C-13.588,-9.573 -15.324,-10.508 -16.649,-10.508L-16.649,-10.503C-17.054,-10.503 -17.421,-10.417 -17.739,-10.233C-19.093,-9.452 -19.397,-7.018 -18.698,-3.962C-21.696,-3.037 -23.648,-1.557 -23.648,0.005C-23.648,1.571 -21.687,3.056 -18.679,3.977C-19.373,7.043 -19.064,9.482 -17.705,10.263C-17.392,10.444 -17.025,10.532 -16.621,10.532C-15.295,10.532 -13.56,9.588 -11.805,7.949C-10.05,9.578 -8.315,10.514 -6.99,10.514C-6.585,10.514 -6.218,10.427 -5.9,10.243C-4.545,9.462 -4.242,7.029 -4.941,3.972C-1.952,3.052 0,1.567 0,0.005M-7.023,-9.452L-7.023,-9.447C-6.802,-9.447 -6.623,-9.404 -6.474,-9.322C-5.818,-8.946 -5.534,-7.515 -5.755,-5.674C-5.809,-5.221 -5.895,-4.743 -6.001,-4.256C-6.946,-4.487 -7.978,-4.666 -9.063,-4.781C-9.713,-5.674 -10.388,-6.483 -11.067,-7.191C-9.499,-8.65 -8.026,-9.45 -7.023,-9.452M-16.095,2.473C-15.869,2.859 -15.637,3.234 -15.401,3.601C-16.085,3.5 -16.746,3.374 -17.378,3.22C-17.199,2.599 -16.977,1.957 -16.727,1.317C-16.529,1.701 -16.322,2.087 -16.095,2.473M-17.392,-3.21C-16.76,-3.359 -16.095,-3.49 -15.406,-3.591C-15.642,-3.22 -15.878,-2.839 -16.1,-2.448C-16.322,-2.063 -16.529,-1.678 -16.727,-1.292C-16.987,-1.937 -17.208,-2.584 -17.392,-3.21M-16.163,0.02C-15.864,-0.627 -15.526,-1.272 -15.165,-1.904C-14.789,-2.556 -14.403,-3.172 -14.003,-3.745C-13.285,-3.808 -12.557,-3.842 -11.824,-3.842C-11.097,-3.842 -10.369,-3.808 -9.655,-3.75C-9.255,-3.177 -8.865,-2.564 -8.489,-1.918C-8.122,-1.287 -7.79,-0.645 -7.486,-0C-7.79,0.647 -8.123,1.292 -8.484,1.924C-8.86,2.574 -9.246,3.192 -9.645,3.765C-10.364,3.827 -11.092,3.862 -11.824,3.862C-12.552,3.862 -13.28,3.827 -13.994,3.77C-14.394,3.196 -14.784,2.584 -15.16,1.938C-15.526,1.307 -15.859,0.665 -16.163,0.02M-7.554,2.458C-7.332,2.073 -7.124,1.683 -6.927,1.297C-6.667,1.942 -6.445,2.589 -6.262,3.215C-6.893,3.369 -7.558,3.5 -8.248,3.601C-8.011,3.23 -7.775,2.849 -7.554,2.458M-7.558,-2.463C-7.78,-2.849 -8.016,-3.224 -8.253,-3.591C-7.568,-3.49 -6.908,-3.364 -6.276,-3.21C-6.455,-2.589 -6.676,-1.947 -6.927,-1.307C-7.124,-1.691 -7.332,-2.077 -7.558,-2.463M-10.499,-4.888C-10.933,-4.907 -11.376,-4.922 -11.824,-4.922C-12.277,-4.922 -12.726,-4.912 -13.165,-4.888C-12.73,-5.452 -12.282,-5.968 -11.839,-6.431C-11.391,-5.968 -10.942,-5.452 -10.499,-4.888M-17.204,-9.303C-17.059,-9.39 -16.871,-9.429 -16.649,-9.429L-16.649,-9.433C-15.652,-9.433 -14.172,-8.638 -12.601,-7.187C-13.275,-6.478 -13.95,-5.674 -14.591,-4.781C-15.681,-4.666 -16.712,-4.487 -17.657,-4.251C-17.768,-4.733 -17.85,-5.201 -17.908,-5.649C-18.134,-7.49 -17.854,-8.922 -17.204,-9.303M-18.419,2.936C-18.895,2.786 -19.349,2.622 -19.768,2.444C-21.475,1.716 -22.579,0.762 -22.579,0.005C-22.579,-0.752 -21.475,-1.711 -19.768,-2.434C-19.354,-2.612 -18.9,-2.771 -18.433,-2.921C-18.158,-1.976 -17.797,-0.993 -17.349,0.015C-17.792,1.018 -18.148,1.996 -18.419,2.936M-16.63,9.462C-16.847,9.458 -17.03,9.414 -17.175,9.332C-17.831,8.956 -18.115,7.525 -17.893,5.684C-17.84,5.231 -17.753,4.753 -17.647,4.266C-16.703,4.497 -15.671,4.676 -14.587,4.791C-13.936,5.684 -13.261,6.493 -12.581,7.201C-14.152,8.662 -15.628,9.462 -16.63,9.462M-11.814,6.441C-12.263,5.978 -12.712,5.462 -13.155,4.898C-12.721,4.917 -12.277,4.932 -11.829,4.932C-11.376,4.932 -10.928,4.922 -10.489,4.898C-10.923,5.462 -11.371,5.978 -11.814,6.441M-6.445,9.313C-6.589,9.4 -6.777,9.439 -6.999,9.439C-7.997,9.439 -9.477,8.643 -11.048,7.192C-10.374,6.484 -9.699,5.679 -9.058,4.787C-7.968,4.671 -6.937,4.492 -5.992,4.257C-5.881,4.743 -5.794,5.211 -5.741,5.659C-5.515,7.5 -5.794,8.932 -6.445,9.313M-3.885,2.444C-4.3,2.622 -4.753,2.781 -5.221,2.931C-5.495,1.987 -5.857,1.003 -6.305,-0.005C-5.862,-1.008 -5.505,-1.986 -5.235,-2.926C-4.758,-2.776 -4.305,-2.612 -3.88,-2.434C-2.174,-1.706 -1.07,-0.752 -1.07,0.005C-1.075,0.762 -2.179,1.721 -3.885,2.444" style="fill-rule:nonzero;"/>
            </g>
        </g>
        <g transform="matrix(2.96596,0,0,2.96596,12.3973,59.8487)">
            <g transform="matrix(1,0,0,1,203.016,24.2595)">
                <path d="M0,4.406C1.217,4.406 2.203,3.42 2.203,2.203C2.203,0.986 1.217,0 0,0C-1.217,0 -2.203,0.986 -2.203,2.203C-2.203,3.42 -1.217,4.406 0,4.406" style="fill-rule:nonzero;"/>
            </g>
        </g>
        <g transform="matrix(2.96596,0,0,2.96596,12.3973,59.8487)">
            <g transform="matrix(1,0,0,1,0,-109.726)">
                <path d="M144.794,146.716L165.854,146.716L165.854,125.656L144.794,125.656L144.794,146.716ZM156.263,142.082C156.263,144.131 155.06,145.063 153.308,145.063C151.723,145.063 150.805,144.244 150.339,143.256L151.95,142.281C152.261,142.832 152.543,143.299 153.223,143.299C153.872,143.299 154.284,143.044 154.284,142.055L154.284,135.326L156.263,135.326L156.263,142.082ZM160.939,145.067C159.1,145.067 157.912,144.191 157.331,143.044L158.941,142.109C159.365,142.802 159.916,143.311 160.892,143.311C161.713,143.311 162.237,142.901 162.237,142.335C162.237,141.656 161.699,141.416 160.796,141.021L160.301,140.809C158.872,140.2 157.924,139.438 157.924,137.827C157.924,136.343 159.055,135.213 160.823,135.213C162.08,135.213 162.985,135.651 163.638,136.798L162.096,137.787C161.757,137.179 161.391,136.938 160.823,136.938C160.243,136.938 159.874,137.307 159.874,137.787C159.874,138.381 160.244,138.621 161.093,138.988L161.587,139.2C163.267,139.922 164.218,140.657 164.218,142.31C164.218,144.091 162.818,145.067 160.939,145.067" style="fill-rule:nonzero;"/>
            </g>
        </g>
        <g transform="matrix(2.96596,0,0,2.96596,12.3973,59.8487)">
            <g transform="matrix(-1,1.34593e-05,1.34593e-05,1,0.00010675,8.5621)">
                <rect x="-148.596" y="-1.001" width="148.596" height="1" style="fill:rgb(204,204,204);"/>
            </g>
        </g>
        <g transform="matrix(2.96596,0,0,2.96596,12.3973,59.8487)">
            <g transform="matrix(-1,6.72966e-06,6.72966e-06,1,0.00010337,66.5928)">
                <rect x="-148.596" y="-1" width="148.596" height="1" style="fill:rgb(204,204,204);"/>
            </g>
        </g>
        <g transform="matrix(2.96596,0,0,2.96596,12.3973,59.8487)">
            <g transform="matrix(1,0,0,1,35.5941,76.9402)">
                <path d="M0,8.112C0.075,8.493 -0.105,8.694 -0.466,8.689C-1.186,8.678 -1.906,8.698 -2.626,8.69C-3.361,8.68 -4.097,8.649 -4.832,8.639C-5.29,8.634 -5.748,8.657 -6.207,8.661C-6.675,8.665 -6.746,8.573 -6.661,8.07C-6.318,8.008 -5.968,7.945 -5.583,7.875C-5.6,7.763 -5.594,7.672 -5.629,7.599C-5.816,7.208 -6.013,6.819 -6.208,6.429C-6.297,6.253 -6.433,6.175 -6.643,6.178C-7.432,6.19 -8.221,6.188 -9.01,6.181C-9.202,6.179 -9.326,6.25 -9.396,6.425C-9.543,6.795 -9.695,7.163 -9.839,7.534C-9.87,7.613 -9.873,7.703 -9.896,7.828C-9.541,7.911 -9.21,7.988 -8.879,8.065C-8.787,8.502 -8.949,8.722 -9.329,8.695C-9.964,8.649 -10.604,8.658 -11.242,8.65C-11.695,8.645 -11.774,8.556 -11.725,8.036C-11.104,8.011 -10.909,7.504 -10.673,7.042C-10.54,6.781 -10.423,6.511 -10.298,6.248C-9.501,4.556 -8.704,2.868 -7.904,1.177C-7.867,1.097 -7.813,1.025 -7.748,0.915C-7.554,0.915 -7.345,0.883 -7.154,0.926C-7.032,0.956 -6.897,1.079 -6.836,1.195C-6.376,2.081 -5.931,2.973 -5.483,3.867C-4.958,4.915 -4.439,5.965 -3.911,7.009C-3.803,7.223 -3.661,7.421 -3.543,7.629C-3.415,7.858 -3.208,7.965 -2.967,8.025C-2.697,8.092 -2.483,7.982 -2.418,7.709C-2.369,7.505 -2.339,7.293 -2.339,7.084C-2.336,5.409 -2.332,3.733 -2.352,2.056C-2.357,1.677 -2.452,1.3 -2.517,0.922C-2.543,0.769 -2.519,0.667 -2.371,0.589C-1.649,0.204 -0.933,-0.191 -0.209,-0.571C-0.135,-0.61 -0.022,-0.571 0.073,-0.567C0.062,-0.458 0.086,-0.328 0.034,-0.246C-0.049,-0.117 -0.174,-0.008 -0.297,0.089C-0.523,0.267 -0.619,0.508 -0.622,0.779C-0.644,2.906 -0.658,5.032 -0.676,7.159C-0.681,7.603 -0.532,7.937 -0.066,8.062L0,8.112ZM-7.835,3.188L-7.941,3.198C-8.254,3.897 -8.568,4.595 -8.903,5.344C-8.158,5.462 -7.481,5.405 -6.805,5.404L-6.748,5.311C-7.11,4.603 -7.473,3.896 -7.835,3.188" style="fill:rgb(128,128,128);fill-rule:nonzero;"/>
            </g>
        </g>
        <g transform="matrix(2.96596,0,0,2.96596,12.3973,59.8487)">
            <g transform="matrix(1,0,0,1,57.5131,84.0715)">
                <path d="M0,-2.778C0.158,-2.925 0.277,-3.058 0.417,-3.163C0.848,-3.486 1.276,-3.814 1.727,-4.107C1.975,-4.268 2.261,-4.257 2.509,-4.061C2.918,-3.741 3.352,-3.424 3.517,-2.909C3.617,-2.596 3.639,-2.247 3.631,-1.916C3.616,-1.262 3.56,-0.61 3.513,0.041C3.485,0.423 3.577,0.728 3.977,0.865L4.149,0.95C4.251,1.326 4.056,1.557 3.694,1.546C3.019,1.527 2.342,1.531 1.666,1.523C1.322,1.519 1.247,1.429 1.281,1.081L1.309,1.048C1.93,0.879 1.944,0.344 1.979,-0.137C2.025,-0.758 2.02,-1.383 2.008,-2.007C2,-2.416 1.752,-2.756 1.423,-2.83C1.292,-2.86 1.111,-2.846 1.003,-2.776C0.471,-2.428 0.153,-1.941 0.131,-1.286C0.116,-0.805 0.086,-0.326 0.075,0.154C0.065,0.548 0.253,0.808 0.639,0.915L0.728,0.971C0.823,1.36 0.642,1.563 0.263,1.551C-0.419,1.531 -1.103,1.533 -1.786,1.529C-2.135,1.526 -2.222,1.426 -2.178,1.059L-2.04,0.967C-1.643,0.81 -1.491,0.49 -1.484,0.095C-1.473,-0.581 -1.459,-1.258 -1.495,-1.933C-1.507,-2.163 -1.623,-2.418 -1.766,-2.602C-2.046,-2.965 -2.286,-2.961 -2.644,-2.661C-3.031,-2.339 -3.268,-1.923 -3.315,-1.425C-3.362,-0.925 -3.362,-0.421 -3.381,0.081C-3.396,0.498 -3.228,0.792 -2.815,0.922L-2.73,0.981C-2.657,1.386 -2.832,1.566 -3.22,1.553C-3.903,1.531 -4.587,1.534 -5.271,1.526C-5.611,1.522 -5.684,1.438 -5.661,1.083L-5.635,1.048C-5.042,0.871 -5,0.375 -4.974,-0.116C-4.933,-0.904 -4.915,-1.695 -5.066,-2.475C-5.119,-2.746 -5.225,-3.007 -5.304,-3.272L-5.319,-3.428C-5.033,-3.59 -4.738,-3.762 -4.437,-3.926C-4.306,-3.998 -4.165,-4.052 -4.03,-4.118C-3.756,-4.253 -3.511,-4.141 -3.462,-3.838C-3.433,-3.647 -3.453,-3.449 -3.451,-3.256C-3.45,-3.146 -3.451,-3.039 -3.451,-2.931L-3.384,-2.894C-3.287,-2.976 -3.192,-3.063 -3.091,-3.14C-2.703,-3.436 -2.329,-3.753 -1.92,-4.014C-1.407,-4.344 -1.018,-4.247 -0.596,-3.711C-0.417,-3.482 -0.283,-3.219 -0.128,-2.972C-0.097,-2.924 -0.065,-2.877 0,-2.778" style="fill:rgb(128,128,128);fill-rule:nonzero;"/>
            </g>
        </g>
        <g transform="matrix(2.96596,0,0,2.96596,12.3973,59.8487)">
            <g transform="matrix(1,0,0,1,7.0448,82.8941)">
                <path d="M0,-2.584C-0.378,-2.808 -0.718,-3.011 -1.061,-3.21C-1.549,-3.492 -2.073,-3.675 -2.637,-3.706C-3.279,-3.74 -3.853,-3.578 -4.293,-3.066C-4.477,-2.851 -4.546,-2.611 -4.514,-2.337C-4.452,-1.814 -3.954,-1 -3.457,-0.65C-2.733,-1.264 -1.998,-1.886 -1.27,-2.501C0.017,-2.391 1.207,-1.441 1.051,0.018C1.002,0.479 0.801,0.868 0.534,1.222C0.024,1.895 -0.572,2.474 -1.401,2.74C-1.598,2.804 -1.813,2.835 -2.02,2.837C-3.189,2.848 -4.323,2.663 -5.4,2.187C-5.447,2.168 -5.489,2.141 -5.594,2.083C-5.298,1.594 -5.011,1.117 -4.704,0.607C-4.809,0.49 -4.924,0.354 -5.044,0.225C-5.435,-0.202 -5.831,-0.626 -6.041,-1.182C-6.278,-1.809 -6.18,-2.397 -5.793,-2.928C-5.246,-3.684 -4.485,-4.178 -3.677,-4.608C-3.199,-4.863 -2.706,-5.075 -2.154,-5.125C-1.746,-5.161 -1.359,-5.087 -0.984,-4.948C-0.682,-4.837 -0.389,-4.698 -0.093,-4.569C0.16,-4.459 0.273,-4.495 0.4,-4.739C0.51,-4.951 0.615,-5.165 0.747,-5.432C0.889,-5.343 1.009,-5.27 1.135,-5.191C0.829,-4.256 0.514,-3.383 0,-2.584M-3.942,0.721L-3.804,0.832C-2.998,1.354 -2.109,1.537 -1.163,1.461C-0.819,1.433 -0.502,1.16 -0.476,0.818C-0.453,0.511 -0.476,0.187 -0.545,-0.114C-0.612,-0.405 -0.786,-0.659 -1.047,-0.839C-1.411,-1.09 -1.744,-1.091 -2.085,-0.816C-2.523,-0.462 -2.957,-0.104 -3.392,0.256C-3.568,0.401 -3.743,0.552 -3.942,0.721" style="fill-rule:nonzero;"/>
            </g>
        </g>
        <g transform="matrix(2.96596,0,0,2.96596,12.3973,59.8487)">
            <g transform="matrix(1,0,0,1,61.4389,88.3168)">
                <path d="M0,-7.413C0.825,-7.935 1.672,-8.319 2.578,-8.65C2.641,-8.578 2.707,-8.504 2.799,-8.399C2.684,-8.293 2.595,-8.195 2.49,-8.119C1.968,-7.743 1.899,-7.525 2.182,-6.947C2.613,-6.062 3.059,-5.185 3.5,-4.307L3.618,-4.142C3.708,-4.211 3.796,-4.258 3.854,-4.326C4.182,-4.724 4.454,-5.149 4.566,-5.663C4.665,-6.112 4.543,-6.48 4.167,-6.751C3.972,-6.892 3.765,-7.015 3.561,-7.142C3.258,-7.329 3.21,-7.642 3.485,-7.86C3.741,-8.063 4.028,-8.228 4.31,-8.397L4.546,-8.422C5.19,-8.166 5.712,-7.758 5.992,-7.112C6.246,-6.527 6.103,-5.944 5.794,-5.43C5.545,-5.016 5.245,-4.615 4.898,-4.281C4.109,-3.521 3.279,-2.806 2.464,-2.074C2.293,-1.921 2.113,-1.776 1.938,-1.627L1.959,-1.564C2.057,-1.56 2.155,-1.551 2.252,-1.554C3.146,-1.577 4.039,-1.609 4.933,-1.628C5.149,-1.633 5.368,-1.603 5.584,-1.573C5.912,-1.528 6.096,-1.272 6.024,-0.943C5.986,-0.77 5.928,-0.593 5.837,-0.44C5.57,0.012 5.283,0.45 5.003,0.896C4.931,1.011 4.856,1.124 4.783,1.237C4.608,1.125 4.531,1.075 4.452,1.025C4.558,0.603 4.912,0.287 4.87,-0.21C4.595,-0.233 4.332,-0.27 4.067,-0.277C3.019,-0.306 1.98,-0.223 0.954,-0.003C0.623,0.066 0.38,0.246 0.263,0.575L0.135,0.83C-0.069,0.842 -0.237,0.776 -0.184,0.575C-0.02,-0.035 0.038,-0.702 0.464,-1.203C0.748,-1.537 1.118,-1.799 1.451,-2.091C1.742,-2.348 2.035,-2.601 2.356,-2.884C1.569,-4.395 0.796,-5.884 0,-7.413" style="fill:rgb(128,128,128);fill-rule:nonzero;"/>
            </g>
        </g>
        <g transform="matrix(2.96596,0,0,2.96596,12.3973,59.8487)">
            <g transform="matrix(1,0,0,1,16.6137,82.6989)">
                <path d="M0,-2.133C-0.085,-0.993 -0.254,0.037 -0.872,0.938C-1.346,1.631 -1.976,2.122 -2.76,2.412C-3.076,2.529 -3.4,2.627 -3.724,2.719C-4.35,2.896 -4.935,2.804 -5.503,2.481C-6.168,2.104 -6.799,1.686 -7.289,1.093C-8.035,0.186 -8.329,-0.826 -7.928,-1.97C-7.732,-2.529 -7.363,-2.985 -6.92,-3.362C-6.308,-3.885 -5.637,-4.325 -4.878,-4.619C-4.125,-4.909 -3.348,-5.029 -2.556,-4.886C-1.902,-4.77 -1.315,-4.474 -0.862,-3.971C-0.521,-3.592 -0.182,-3.201 -0.078,-2.677C-0.038,-2.472 -0.018,-2.263 0,-2.133M-6.559,-1.608C-6.552,-1.182 -6.423,-0.789 -6.197,-0.44C-5.658,0.398 -4.897,0.979 -4.004,1.403C-3.625,1.583 -3.255,1.662 -2.876,1.412L-2.715,1.334C-2.045,0.966 -1.764,0.33 -1.601,-0.362C-1.442,-1.03 -1.466,-1.705 -1.724,-2.355C-1.882,-2.751 -2.103,-3.124 -2.517,-3.292C-3.226,-3.579 -3.963,-3.751 -4.739,-3.646C-5.905,-3.486 -6.548,-2.594 -6.559,-1.608" style="fill-rule:nonzero;"/>
            </g>
        </g>
        <g transform="matrix(2.96596,0,0,2.96596,12.3973,59.8487)">
            <g transform="matrix(1,0,0,1,43.5321,85.6353)">
                <path d="M0,-9.334C0.17,-9.187 0.155,-9.063 0.039,-8.938C-0.049,-8.847 -0.132,-8.745 -0.233,-8.669C-0.533,-8.442 -0.618,-8.127 -0.627,-7.776C-0.64,-7.288 -0.646,-6.799 -0.666,-6.312C-0.685,-5.848 -0.722,-5.382 -0.746,-4.918C-0.753,-4.773 -0.747,-4.628 -0.747,-4.482L-0.687,-4.455C-0.483,-4.636 -0.292,-4.833 -0.072,-4.992C0.267,-5.237 0.617,-5.472 0.978,-5.683C1.23,-5.829 1.503,-5.811 1.741,-5.624C2.256,-5.227 2.761,-4.812 2.871,-4.115C2.909,-3.874 2.892,-3.622 2.879,-3.376C2.843,-2.739 2.793,-2.104 2.755,-1.466C2.736,-1.145 2.814,-0.867 3.156,-0.737L3.388,-0.616C3.504,-0.265 3.316,0 2.971,-0.007C2.281,-0.021 1.59,-0.029 0.9,-0.035C0.544,-0.039 0.466,-0.125 0.512,-0.487L0.54,-0.521C1.18,-0.694 1.167,-1.256 1.208,-1.734C1.262,-2.355 1.241,-2.98 1.23,-3.605C1.224,-3.975 0.959,-4.293 0.64,-4.407C0.48,-4.464 0.352,-4.438 0.218,-4.344C-0.198,-4.053 -0.519,-3.686 -0.584,-3.17C-0.655,-2.613 -0.692,-2.05 -0.711,-1.488C-0.726,-1.045 -0.526,-0.722 -0.073,-0.624C0.058,-0.27 -0.114,0 -0.448,-0.006C-1.175,-0.019 -1.903,-0.025 -2.631,-0.039C-2.732,-0.04 -2.832,-0.062 -2.95,-0.075C-2.974,-0.226 -2.993,-0.349 -3.015,-0.484L-2.776,-0.625C-2.517,-0.73 -2.382,-0.917 -2.373,-1.193C-2.347,-2.087 -2.309,-2.98 -2.302,-3.873C-2.295,-4.707 -2.306,-5.542 -2.344,-6.374C-2.365,-6.845 -2.448,-7.313 -2.516,-7.779C-2.538,-7.936 -2.511,-8.033 -2.364,-8.111C-1.636,-8.498 -0.912,-8.895 -0.184,-9.282L0,-9.334Z" style="fill:rgb(128,128,128);fill-rule:nonzero;"/>
            </g>
        </g>
        <g transform="matrix(2.96596,0,0,2.96596,12.3973,59.8487)">
            <g transform="matrix(1,0,0,1,23.3822,80.6331)">
                <path d="M0,2.258C0.325,2.191 0.454,2.277 0.429,2.57C0.383,3.122 0.313,3.675 0.249,4.227C0.221,4.47 0.183,4.713 0.147,4.969C0.05,4.981 -0.022,4.996 -0.094,4.996C-2.032,4.989 -3.969,4.981 -5.907,4.971L-5.998,4.972C-6.479,4.974 -6.554,4.883 -6.478,4.37C-6.268,4.326 -6.051,4.276 -5.832,4.237C-5.545,4.185 -5.402,4.016 -5.387,3.728C-5.373,3.481 -5.337,3.233 -5.338,2.986C-5.342,1.617 -5.349,0.251 -5.367,-1.116C-5.375,-1.703 -5.524,-1.896 -6.081,-2.048C-6.211,-2.082 -6.337,-2.129 -6.515,-2.184C-6.461,-2.373 -6.407,-2.558 -6.355,-2.738L-2.462,-2.738C-2.436,-2.543 -2.413,-2.363 -2.386,-2.157C-2.587,-2.115 -2.753,-2.084 -2.918,-2.045C-3.403,-1.926 -3.491,-1.824 -3.523,-1.321C-3.539,-1.09 -3.539,-0.855 -3.539,-0.623C-3.541,0.64 -3.541,1.903 -3.539,3.163C-3.539,3.299 -3.55,3.445 -3.506,3.567C-3.423,3.797 -3.255,3.97 -2.995,3.984C-2.297,4.02 -1.599,4.032 -0.916,3.854C-0.551,3.758 -0.409,3.451 -0.294,3.137C-0.187,2.843 -0.095,2.543 0,2.258" style="fill-rule:nonzero;"/>
            </g>
        </g>
        <g transform="matrix(2.96596,0,0,2.96596,12.3973,59.8487)">
            <g transform="matrix(1,0,0,1,51.4657,81.7966)">
                <path d="M0,1.99C0.108,2.185 0.178,2.312 0.26,2.464C0.105,2.623 -0.019,2.787 -0.177,2.907C-0.57,3.204 -0.952,3.533 -1.387,3.753C-2.075,4.1 -2.752,3.969 -3.337,3.472C-4.244,2.703 -4.582,1.165 -4.091,0.084C-3.878,-0.385 -3.535,-0.757 -3.132,-1.067C-2.735,-1.371 -2.324,-1.659 -1.9,-1.927C-1.612,-2.11 -1.278,-2.098 -1.001,-1.908C-0.625,-1.652 -0.269,-1.363 0.075,-1.063C0.319,-0.848 0.299,-0.549 0.217,-0.265L0.044,-0.105C-0.537,0.161 -1.122,0.416 -1.703,0.678C-2.002,0.813 -2.296,0.96 -2.629,1.119C-2.584,1.297 -2.565,1.461 -2.502,1.603C-2.284,2.1 -1.96,2.486 -1.379,2.565C-1.081,2.604 -0.817,2.513 -0.571,2.352C-0.394,2.238 -0.215,2.127 0,1.99M-2.696,0.491C-2.197,0.243 -1.74,0.016 -1.268,-0.216C-1.399,-0.559 -1.655,-0.696 -1.927,-0.792C-2.322,-0.935 -2.367,-0.919 -2.562,-0.547C-2.72,-0.247 -2.797,0.075 -2.696,0.491" style="fill:rgb(128,128,128);fill-rule:nonzero;"/>
            </g>
        </g>
        <g transform="matrix(2.96596,0,0,2.96596,12.3973,59.8487)">
            <g transform="matrix(1,0,0,1,39.2162,83.572)">
                <path d="M0,-1.553C-0.291,-1.877 -0.574,-2.21 -0.879,-2.521C-0.959,-2.603 -1.11,-2.615 -1.226,-2.658C-1.446,-2.546 -1.535,-2.348 -1.578,-2.146C-1.749,-1.347 -1.75,-0.564 -1.286,0.156C-0.918,0.725 -0.333,0.938 0.246,0.702C0.382,0.646 0.501,0.548 0.628,0.467C0.734,0.399 0.839,0.329 0.992,0.229C1.103,0.375 1.206,0.508 1.323,0.66C1.146,0.847 1,1.018 0.838,1.171C0.403,1.578 -0.053,1.969 -0.647,2.111C-1.555,2.326 -2.234,1.926 -2.73,1.201C-3.319,0.339 -3.42,-0.617 -3.086,-1.592C-2.977,-1.911 -2.728,-2.199 -2.493,-2.455C-2.055,-2.931 -1.554,-3.337 -0.981,-3.653C-0.575,-3.874 -0.188,-3.879 0.179,-3.602C0.513,-3.35 0.836,-3.081 1.147,-2.801C1.361,-2.61 1.343,-2.342 1.291,-2.085L1.176,-1.929C0.818,-1.78 0.456,-1.638 0.093,-1.5L-0.039,-1.51L0,-1.553Z" style="fill:rgb(128,128,128);fill-rule:nonzero;"/>
            </g>
        </g>
        <g transform="matrix(2.96596,0,0,2.96596,12.3973,59.8487)">
            <g transform="matrix(1,0,0,1,19.4721,88.1376)">
                <path d="M0,-1.682C0.022,-1.59 0.07,-1.495 0.061,-1.408C0.001,-0.81 -0.229,-0.275 -0.576,0.208C-0.863,0.609 -1.297,0.69 -1.754,0.7C-2.229,0.711 -2.67,0.594 -3.101,0.389C-4.199,-0.13 -5.302,-0.643 -6.415,-1.134C-6.754,-1.286 -7.124,-1.374 -7.489,-1.456C-7.86,-1.54 -8.2,-1.438 -8.496,-1.187C-8.635,-1.068 -8.796,-0.973 -8.947,-0.868L-9.017,-0.912C-8.98,-1.006 -8.961,-1.114 -8.904,-1.192C-8.615,-1.598 -8.286,-1.96 -7.835,-2.203C-7.488,-2.391 -7.133,-2.393 -6.79,-2.261C-5.599,-1.807 -4.417,-1.328 -3.229,-0.868C-2.67,-0.649 -2.107,-0.442 -1.541,-0.245C-1.179,-0.119 -0.92,-0.224 -0.728,-0.565C-0.586,-0.821 -0.467,-1.088 -0.328,-1.346C-0.261,-1.47 -0.175,-1.584 -0.097,-1.703L0,-1.682Z" style="fill-rule:nonzero;"/>
            </g>
        </g>
        <g transform="matrix(2.96596,0,0,2.96596,12.3973,59.8487)">
            <g transform="matrix(1,0,0,1,135.019,87.6872)">
                <path d="M0,-15.926C-5.374,-15.926 -5.039,-13.595 -5.039,-13.595L-5.033,-11.181L0.096,-11.181L0.096,-10.455L-7.07,-10.455C-7.07,-10.455 -10.509,-10.846 -10.509,-5.423C-10.509,0 -7.507,-0.194 -7.507,-0.194L-5.716,-0.194L-5.716,-2.709C-5.716,-2.709 -5.812,-5.71 -2.762,-5.71L2.325,-5.71C2.325,-5.71 5.183,-5.664 5.183,-8.473L5.183,-13.116C5.183,-13.116 5.616,-15.926 0,-15.926M-2.828,-14.302C-2.317,-14.302 -1.905,-13.89 -1.905,-13.379C-1.905,-12.869 -2.317,-12.456 -2.828,-12.456C-3.338,-12.456 -3.75,-12.869 -3.75,-13.379C-3.75,-13.89 -3.338,-14.302 -2.828,-14.302" style="fill-rule:nonzero;"/>
            </g>
        </g>
        <g transform="matrix(2.96596,0,0,2.96596,12.3973,59.8487)">
            <g transform="matrix(1,0,0,1,135.172,76.8958)">
                <path d="M0,15.926C5.374,15.926 5.039,13.595 5.039,13.595L5.033,11.181L-0.096,11.181L-0.096,10.454L7.07,10.454C7.07,10.454 10.509,10.846 10.509,5.423C10.509,0 7.507,0.193 7.507,0.193L5.715,0.193L5.715,2.709C5.715,2.709 5.812,5.71 2.762,5.71L-2.325,5.71C-2.325,5.71 -5.183,5.663 -5.183,8.473L-5.183,13.115C-5.183,13.115 -5.617,15.926 0,15.926M2.828,14.302C2.317,14.302 1.905,13.89 1.905,13.379C1.905,12.868 2.317,12.456 2.828,12.456C3.338,12.456 3.75,12.868 3.75,13.379C3.75,13.89 3.338,14.302 2.828,14.302" style="fill-rule:nonzero;"/>
            </g>
        </g>
        <g transform="matrix(2.96596,0,0,2.96596,12.3973,59.8487)">
            <g transform="matrix(1,0,0,1,214.861,74.5128)">
                <path d="M0,16.891C-0.899,16.184 -1.858,15.505 -2.513,14.551C-3.892,12.869 -4.954,10.918 -5.679,8.87C-6.118,7.538 -6.268,6.112 -6.833,4.83C-7.425,3.902 -6.732,2.885 -5.713,2.588C-5.26,2.501 -4.463,2.075 -5.425,2.379C-6.288,3.013 -6.372,1.805 -5.487,1.729C-4.883,1.649 -4.661,1.155 -4.867,0.708C-5.515,0.287 -3.296,-0.178 -4.412,-0.809C-5.576,-2.064 -2.785,-2.306 -3.473,-0.881C-3.638,0.216 -1.523,-1.082 -2.014,0.185C-1.515,0.792 -0.146,0.324 -0.179,1.176C0.547,1.226 0.797,1.837 1.479,1.885C2.186,2.204 3.468,2.455 3.708,3.251C3.007,3.808 1.382,2.105 1.305,3.643C1.516,5.912 1.462,8.251 2.293,10.414C2.686,11.725 3.639,12.754 4.499,13.775C5.322,14.774 6.437,15.477 7.574,16.069C8.571,16.538 9.646,16.851 10.732,17.046C11.173,16.708 11.951,15.455 12.639,15.985C12.671,16.579 11.274,17.226 12.573,17.161C13.335,16.931 13.864,17.749 14.493,17.011C15.071,17.697 16.897,16.573 16.486,17.974C15.929,18.332 15.117,18.116 14.559,18.61C13.64,18.151 12.908,19.021 11.891,18.911C10.76,19.114 9.61,19.195 8.464,19.197C6.584,19.047 4.664,18.986 2.876,18.33C1.869,18.037 0.886,17.464 0,16.891M1.588,17.578C2.572,18.003 3.534,18.453 4.612,18.587C6.322,18.826 8.088,19.192 9.805,18.858C9.028,18.507 8.225,18.994 7.451,18.607C6.523,18.807 5.526,18.556 4.583,18.433C3.51,17.954 2.352,17.625 1.347,17.004C0.091,16.546 1.996,17.594 2.335,17.678C3.12,18.123 1.472,17.451 1.239,17.265C0.582,16.896 0.498,16.973 1.174,17.348C1.311,17.427 1.445,17.511 1.588,17.578M-0.284,16.255C0.669,16.609 -0.289,15.584 -0.725,15.645C-0.919,15.309 -1.465,15.097 -1.08,14.915C-1.773,15.158 -1.805,14.001 -2.131,14.166C-2.864,13.936 -2.416,13.117 -3.289,12.613C-3.369,12.081 -4.156,11.622 -4.407,10.823C-4.519,10.412 -5.297,9.237 -4.819,10.33C-4.411,11.385 -3.695,12.287 -3.098,13.189C-2.635,14.046 -2.088,14.945 -1.245,15.48C-0.961,15.751 -0.686,16.169 -0.284,16.255M3.915,18.029C4.306,18.276 6.196,18.569 5.012,18.129C4.814,18.17 2.818,17.566 3.915,18.029M-0.4,14.525C0.058,14.875 1.448,14.57 0.302,14.315C-0.22,14.037 -1.396,13.847 -0.594,14.483L-0.4,14.525ZM1.818,15.701C2.938,16.017 0.876,14.992 1.542,15.582L1.689,15.65L1.818,15.701ZM1.827,15.107C2.641,15.21 0.859,14.553 1.649,15.046L1.827,15.107ZM4.656,16.846C5.415,16.391 5.165,17.91 5.945,16.974C6.714,16.412 5.281,17.667 6.229,17.074C6.914,16.616 7.927,17.29 8.566,17.512C9.026,17.49 9.474,17.91 9.945,17.654C10.853,17.41 8.17,17.29 8.873,16.858C8.042,17.099 7.429,16.569 7.02,16.037C6.088,15.822 5.011,15.345 4.546,14.521C4.356,14.21 4.82,14.565 4.382,14.059C3.821,13.559 3.54,12.993 3.163,12.385C2.713,12.145 2.661,11.438 2.615,12.362C2.619,11.779 2.072,11.386 1.938,11.549C1.936,10.989 2.524,11.27 2.112,10.854C2.023,10.273 1.732,9.665 1.644,9.009C1.508,8.693 1.625,8.015 1.179,8.732C1.017,9.489 1.125,7.8 1.378,8.357C1.709,7.788 1.259,7.856 1.24,7.935C1.456,7.455 1.377,6.776 1.184,7.035C1.299,6.527 1.366,5.164 1.012,5.407C1.227,4.874 1.419,2.975 0.487,3.7C0.11,3.704 -0.544,3.835 -0.853,3.991C0.116,4.525 -0.951,4.183 -1.345,4.098C-1.396,4.592 -1.787,4.378 -2.275,4.384C-1.496,4.48 -2.655,5.181 -3.102,4.909C-3.683,5.186 -2.601,5.878 -3.09,6.093C-3.03,6.415 -3.98,5.977 -3.905,6.723C-4.469,6.486 -3.983,7.608 -3.701,7.228C-2.742,7.488 -3.026,8.079 -3.002,8.642C-3.158,8.969 -3.773,7.87 -3.139,7.921C-3.639,7.11 -3.692,7.627 -4.108,8.005C-4.205,8.034 -3.047,8.542 -3.773,8.795C-3.134,8.895 -3.116,9.454 -2.986,9.808C-2.602,10.207 -2.681,9.366 -2.221,9.847C-2.512,9.417 -3.762,8.64 -2.755,8.889C-2.761,8.457 -2.938,8.111 -2.629,8.119C-2.324,7.566 -2.949,9.483 -2.261,8.78C-2.07,8.697 -2.023,8.226 -1.681,8.824C-1.183,9.313 -1.501,9.667 -2.203,9.22C-2.077,9.646 -1.264,9.797 -1.417,10.462C-1.255,11.049 -1.028,10.832 -0.831,10.8C-0.676,11.369 -0.588,10.951 -0.581,10.68C0.129,10.83 -0.037,11.25 0.185,11.543C0.674,11.765 -0.515,10.047 0.325,11.028C1.207,11.825 0.656,12.158 -0.137,12.03C0.365,11.99 0.526,12.707 1.154,12.683C1.726,12.955 2.113,13.999 1.127,13.565C0.785,13.257 -0.425,12.875 0.563,13.462C1.477,13.886 2.202,14.139 3.082,14.668C3.712,15.119 3.985,15.635 4.224,15.737C3.694,15.99 2.627,15.535 3.419,15.395C2.925,15.305 2.37,15.055 2.843,15.67C3.245,16.007 4.268,15.971 4.452,16.009C4.296,16.352 4.029,16.378 4.458,16.406C3.98,16.661 4.611,16.7 4.656,16.846M3.678,14.083C3.387,13.78 3.311,13.209 3.626,13.705C3.788,13.771 4.143,14.637 3.678,14.083M1.813,11.013C1.467,10.237 2.059,10.588 1.89,11.141L1.813,11.013ZM-1.379,8.885C-1.533,8.629 -1.79,7.882 -1.707,7.655C-1.632,8.026 -0.917,9.253 -1.356,8.162C-1.841,7.248 -0.775,8.458 -0.666,8.688C-0.615,8.913 -0.965,8.625 -0.728,9.158C-1.161,8.552 -0.984,9.493 -1.379,8.885M-2.988,7.533C-3.355,7.166 -3.621,6.83 -2.971,7.306C-2.721,7.316 -3.528,6.54 -2.911,7.06C-2.262,7.178 -2.59,8.123 -2.988,7.533M-2.769,6.973C-3.836,6.023 -1.427,7.47 -2.594,7.149L-2.769,6.973ZM0.29,8.749C-0.172,8.473 0.168,6.8 0.326,7.945C0.774,7.799 0.301,8.536 0.636,8.529C0.583,8.994 0.433,9.161 0.29,8.749M-2.559,6.661C-3.245,5.713 -0.566,7.618 -2.12,6.901C-2.282,6.859 -2.478,6.843 -2.559,6.661M-2.454,6.3C-2.046,6.211 -0.765,7.016 -1.941,6.529C-2.072,6.384 -2.351,6.451 -2.454,6.3M1.046,8.043C1.09,7.23 1.289,7.558 1.048,8.161L1.046,8.043ZM-2.15,6.016C-1.984,5.773 -2.591,4.913 -2.063,5.707C-1.835,5.89 -1.402,6.012 -1.784,6.087C-1.183,6.619 -1.931,6.233 -2.15,6.016M0.506,5.579C0.294,5.205 0.774,3.934 0.827,4.723C0.604,5.337 0.763,5.682 0.919,4.857C1.207,4.207 0.856,6.138 0.506,5.579M1.385,14.674C1.992,14.83 1.988,14.58 1.44,14.505C1.145,14.232 0.214,13.941 1.047,14.472C1.102,14.612 1.277,14.609 1.385,14.674M-0.77,13.244C-0.436,13.493 0.489,13.951 -0.294,13.337C-0.03,13.032 -0.799,12.869 -0.544,12.662C-1.193,12.266 -1.056,12.301 -0.601,12.314C-1.381,11.964 -0.488,11.992 -0.53,11.813C-0.831,11.752 -2.025,11.283 -1.322,11.851C-2.036,11.488 -1.493,11.987 -1.708,11.934C-2.438,11.735 -1.058,12.49 -1.824,12.302C-1.405,12.634 -0.697,13.153 -1.647,12.654C-1.772,12.832 -0.967,13.107 -0.77,13.244M6.812,17.69C7.132,17.379 6.825,18.184 7.343,17.615C7.348,17.205 7.327,16.964 6.748,17.459C6.589,17.549 6.518,17.925 6.812,17.69M1.571,14.325C1.927,14.641 3.206,14.557 2.003,14.364C1.825,14.1 0.872,14.162 1.571,14.325M-4.294,10.385C-4.811,9.648 -4.615,9.316 -5.114,8.712C-5.208,8.251 -5.97,7.205 -5.508,8.315C-5.085,8.961 -4.959,9.964 -4.294,10.385M8.209,17.899C8.751,17.55 8.084,17.604 8.111,17.931L8.209,17.899ZM9.078,18.135C9.771,17.634 8.658,18.038 8.933,18.23L9.078,18.135ZM-2.559,10.718C-2.051,10.831 -0.527,11.97 -1.426,10.796C-1.887,10.661 -1.61,9.536 -2.08,9.735C-1.765,10.261 -1.821,10.485 -2.482,10.153C-3.314,9.747 -2.95,10.354 -2.787,10.522C-3.009,10.572 -2.494,10.713 -2.559,10.718M-4.876,8.889C-4.785,8.512 -5.714,6.818 -5.314,8.038C-5.171,8.294 -5.185,8.781 -4.876,8.889M11.03,17.667C11.534,17.567 12.68,17.925 12.866,17.536C12.255,17.521 10.751,17.104 10.68,17.635L10.814,17.656L11.03,17.667ZM-4.644,6.726C-4.136,6.527 -5.568,6.314 -4.748,6.688L-4.644,6.726ZM-6.229,4.953C-6.32,4.427 -6.308,3.503 -5.43,3.816C-6.601,4.048 -4.62,5.272 -4.87,4.306C-4.378,4.33 -3.907,4.015 -4.166,4.494C-3.195,4.386 -2.523,3.544 -1.586,3.662C-0.856,3.566 -0.058,3.493 0.729,3.199C1.375,3.153 1.998,2.455 1.643,2.042C0.762,1.969 -0.162,2.079 -1.136,2.273C-2.216,2.497 -3.198,2.924 -4.288,3.107C-5.35,3.249 -4.074,3.499 -4.378,3.556C-4.933,3.748 -3.717,3.877 -4.45,4.08C-4.902,3.995 -5.374,3.838 -5.18,3.363C-6.198,3.494 -7.092,3.915 -6.288,4.953L-6.229,4.953ZM-3.776,3.704C-3.538,2.826 -2.498,4.427 -3.385,3.821C-3.491,3.742 -3.666,3.677 -3.776,3.704M-3.293,3.285C-3.262,2.879 -2.292,3.498 -3.133,3.43L-3.293,3.285ZM-2.542,2.942C-2.178,2.504 -0.482,2.662 -1.723,2.899C-2.056,2.649 -2.311,3.046 -2.542,2.942M0.3,2.597C0.529,1.995 1.191,2.356 0.406,2.476C0.423,2.539 0.383,2.787 0.3,2.597M15.067,17.676C15.615,17.678 16.727,17.505 15.535,17.507C15.348,17.536 14.445,17.53 15.067,17.676M-3.816,5.682C-3.372,5.652 -3.122,5.193 -3.901,5.219C-5.11,5.094 -2.835,5.633 -4.056,5.479C-4.22,5.587 -3.825,5.711 -3.816,5.682M-4.437,2.179C-3.645,1.91 -2.563,1.607 -2.189,2.311C-2.569,1.854 -2.342,1.403 -1.983,2.072C-1.475,2.748 -1.221,1.764 -1.551,1.537C-1.174,2.003 -0.746,2.226 -1.299,1.567C-0.698,0.844 -2.502,1.662 -2.911,1.653C-3.108,1.742 -4.947,2.12 -4.437,2.179M-3.973,1.289C-3.521,0.95 -2.411,1.493 -3.124,0.952C-3.193,0.89 -4.683,1.362 -3.973,1.289M-2.327,1.358C-1.798,1.37 -2.555,0.648 -1.925,0.976C-2.028,0.638 -2.658,0.575 -2.966,0.44C-3.14,0.748 -2.611,1.363 -2.327,1.358M-3.011,0.025C-2.16,-0.088 -3.229,-0.341 -3.183,0.016L-3.011,0.025ZM-4.268,-0.959C-4.867,-1.741 -3.14,-0.826 -3.749,-1.646C-4.262,-2.054 -4.754,-1.186 -4.268,-0.959M3.427,3.187C3.702,2.699 2.292,2.53 3.242,3.014C3.329,3.042 3.309,3.22 3.427,3.187" style="fill-rule:nonzero;"/>
            </g>
        </g>
        <g transform="matrix(2.96596,0,0,2.96596,12.3973,59.8487)">
            <g transform="matrix(1,0,0,1,231.267,85.5254)">
                <path d="M0,-11.188C-0.098,-10.8 -0.159,-10.15 -0.182,-9.235C-0.182,-9.056 -0.263,-8.966 -0.425,-8.966C-0.587,-8.966 -0.7,-9.044 -0.764,-9.202C-0.937,-9.624 -1.102,-9.918 -1.258,-10.085C-1.444,-10.284 -1.689,-10.401 -1.996,-10.442C-2.326,-10.495 -3.147,-10.52 -4.461,-10.52C-4.762,-10.52 -4.959,-10.488 -5.051,-10.424C-5.109,-10.384 -5.138,-10.297 -5.138,-10.165L-5.138,-6.232C-5.138,-6.099 -5.054,-6.037 -4.887,-6.042C-4.372,-6.047 -3.625,-6.082 -2.647,-6.145C-2.456,-6.168 -2.328,-6.231 -2.261,-6.334C-2.194,-6.433 -2.129,-6.695 -2.065,-7.119C-2.025,-7.349 -1.889,-7.439 -1.658,-7.386C-1.461,-7.346 -1.377,-7.256 -1.406,-7.119C-1.568,-6.332 -1.62,-5.306 -1.562,-4.045C-1.557,-3.895 -1.652,-3.814 -1.849,-3.802C-2.011,-3.786 -2.112,-3.873 -2.152,-4.062C-2.303,-4.787 -2.582,-5.172 -2.99,-5.221C-3.398,-5.27 -4.062,-5.294 -4.982,-5.294C-5.086,-5.294 -5.138,-5.257 -5.138,-5.182L-5.138,-1.276C-5.138,-0.987 -5.031,-0.792 -4.817,-0.686C-4.649,-0.599 -4.288,-0.521 -3.732,-0.453C-3.449,-0.422 -3.324,-0.298 -3.359,-0.08C-3.393,0.113 -3.648,0.188 -4.123,0.147C-5.494,0.038 -6.625,0.043 -7.517,0.165C-7.765,0.2 -7.89,0.098 -7.89,-0.139C-7.89,-0.291 -7.765,-0.377 -7.517,-0.4C-6.949,-0.463 -6.666,-0.96 -6.666,-1.892L-6.666,-9.322C-6.666,-9.705 -6.734,-9.999 -6.87,-10.204C-7.006,-10.41 -7.259,-10.595 -7.629,-10.763C-7.861,-10.868 -7.947,-11.009 -7.89,-11.188C-7.861,-11.298 -7.814,-11.359 -7.75,-11.372C-7.693,-11.388 -7.539,-11.377 -7.29,-11.335C-6.926,-11.278 -6.067,-11.249 -4.713,-11.249C-3.116,-11.249 -1.736,-11.285 -0.573,-11.353C-0.185,-11.377 0.009,-11.344 0.009,-11.257L0,-11.188Z" style="fill-rule:nonzero;"/>
            </g>
        </g>
        <g transform="matrix(2.96596,0,0,2.96596,12.3973,59.8487)">
            <g transform="matrix(1,0,0,1,236.909,73.5947)">
                <path d="M0,11.774C0,12.004 -0.13,12.107 -0.391,12.078C-1.189,12.002 -2.178,12.014 -3.359,12.113C-3.596,12.134 -3.742,12.129 -3.797,12.094C-3.852,12.06 -3.879,11.964 -3.879,11.809C-3.879,11.67 -3.722,11.552 -3.407,11.458C-3.091,11.362 -2.934,11.077 -2.934,10.602L-2.934,2.748C-2.934,2.279 -3.001,1.934 -3.138,1.713C-3.273,1.495 -3.512,1.324 -3.854,1.203C-4.033,1.139 -4.122,1.048 -4.122,0.933C-4.122,0.759 -3.993,0.628 -3.732,0.542C-3.338,0.416 -2.931,0.218 -2.508,-0.047C-2.161,-0.255 -1.941,-0.36 -1.849,-0.36C-1.634,-0.36 -1.527,-0.212 -1.527,0.083C-1.527,0.06 -1.539,0.349 -1.562,0.951C-1.58,1.524 -1.585,2.087 -1.58,2.643L-1.545,10.394C-1.545,10.747 -1.458,11.003 -1.285,11.163C-1.111,11.321 -0.813,11.426 -0.391,11.479C-0.13,11.507 0,11.606 0,11.774" style="fill-rule:nonzero;"/>
            </g>
        </g>
        <g transform="matrix(2.96596,0,0,2.96596,12.3973,59.8487)">
            <g transform="matrix(1,0,0,1,244.825,79.6926)">
                <path d="M0,5.095C0,5.216 -0.222,5.4 -0.664,5.646C-1.107,5.892 -1.461,6.015 -1.727,6.015C-1.953,6.015 -2.153,5.905 -2.326,5.685C-2.5,5.465 -2.622,5.355 -2.691,5.355C-2.743,5.355 -3.018,5.474 -3.516,5.711C-4.013,5.949 -4.514,6.067 -5.017,6.067C-5.491,6.067 -5.888,5.928 -6.206,5.65C-6.553,5.343 -6.727,4.927 -6.727,4.401C-6.727,3.4 -5.581,2.682 -3.289,2.246C-2.896,2.172 -2.697,2.014 -2.691,1.771L-2.673,1.215C-2.639,0.266 -3.058,-0.21 -3.932,-0.21C-4.181,-0.21 -4.416,0.014 -4.639,0.459C-4.862,0.906 -5.182,1.146 -5.599,1.18C-6.073,1.227 -6.31,1.027 -6.31,0.58C-6.31,0.304 -5.957,-0.02 -5.251,-0.39C-4.511,-0.778 -3.799,-0.972 -3.116,-0.972C-1.941,-0.972 -1.36,-0.414 -1.372,0.701L-1.406,4.279C-1.412,4.655 -1.253,4.843 -0.929,4.843C-0.865,4.843 -0.744,4.827 -0.564,4.799C-0.385,4.771 -0.281,4.756 -0.252,4.756C-0.084,4.756 0,4.868 0,5.095M-2.673,3.116C-2.667,2.971 -2.701,2.874 -2.773,2.828C-2.846,2.783 -2.96,2.775 -3.116,2.803C-4.511,3.052 -5.208,3.506 -5.208,4.165C-5.208,4.83 -4.846,5.163 -4.123,5.163C-3.833,5.163 -3.536,5.109 -3.229,4.998C-2.87,4.871 -2.691,4.719 -2.691,4.538L-2.673,3.116Z" style="fill-rule:nonzero;"/>
            </g>
        </g>
        <g transform="matrix(2.96596,0,0,2.96596,12.3973,59.8487)">
            <g transform="matrix(1,0,0,1,251.299,80.6914)">
                <path d="M0,3.063C0,3.675 -0.236,4.164 -0.708,4.526C-1.179,4.887 -1.823,5.068 -2.639,5.068C-3.183,5.068 -3.727,5.009 -4.27,4.894C-4.739,4.791 -5.011,4.695 -5.086,4.608C-5.132,4.527 -5.156,4.129 -5.156,3.417C-5.156,3.112 -5.086,2.953 -4.947,2.942C-4.809,2.923 -4.69,3 -4.591,3.167C-4.157,3.924 -3.457,4.304 -2.491,4.304C-1.675,4.304 -1.267,4.021 -1.267,3.454C-1.267,3.205 -1.36,2.997 -1.545,2.829C-1.747,2.638 -2.141,2.415 -2.725,2.161C-3.57,1.785 -4.134,1.455 -4.418,1.169C-4.725,0.87 -4.878,0.464 -4.878,-0.044C-4.878,-0.669 -4.638,-1.155 -4.157,-1.502C-3.712,-1.838 -3.116,-2.005 -2.37,-2.005C-1.901,-2.005 -1.473,-1.968 -1.085,-1.893C-0.668,-1.818 -0.451,-1.725 -0.434,-1.616C-0.388,-1.291 -0.292,-0.824 -0.147,-0.209C-0.13,-0.134 -0.211,-0.074 -0.391,-0.027C-0.581,0.013 -0.709,-0.018 -0.772,-0.123C-1.23,-0.87 -1.808,-1.243 -2.508,-1.243C-3.301,-1.243 -3.697,-0.988 -3.697,-0.478C-3.697,-0.195 -3.59,0.031 -3.376,0.199C-3.186,0.342 -2.737,0.569 -2.031,0.875C-1.29,1.194 -0.787,1.48 -0.521,1.735C-0.173,2.065 0,2.506 0,3.063" style="fill-rule:nonzero;"/>
            </g>
        </g>
        <g transform="matrix(2.96596,0,0,2.96596,12.3973,59.8487)">
            <g transform="matrix(1,0,0,1,261.368,73.6449)">
                <path d="M0,11.672C0,11.874 -0.136,11.982 -0.408,11.992C-0.813,11.999 -1.343,12.026 -1.997,12.08C-2.32,12.144 -2.552,12.103 -2.691,11.958C-3.605,10.975 -4.38,9.944 -5.017,8.867C-5.069,8.776 -5.135,8.73 -5.216,8.73C-5.315,8.73 -5.485,8.817 -5.729,8.988C-6,9.141 -6.137,9.355 -6.137,9.632C-6.137,9.829 -6.131,10.111 -6.119,10.483C-6.107,10.853 -6.015,11.096 -5.841,11.212C-5.72,11.293 -5.439,11.357 -4.999,11.401C-4.727,11.438 -4.592,11.539 -4.591,11.706C-4.592,11.84 -4.613,11.922 -4.657,11.954C-4.7,11.985 -4.814,11.992 -4.999,11.976C-5.578,11.924 -6.556,11.951 -7.933,12.063C-8.28,12.091 -8.468,12.048 -8.498,11.932L-8.515,11.759C-8.515,11.579 -8.338,11.443 -7.985,11.351C-7.667,11.27 -7.508,10.897 -7.508,10.231L-7.508,2.646C-7.508,2.171 -7.554,1.841 -7.646,1.654C-7.774,1.418 -8.04,1.234 -8.445,1.1C-8.636,1.035 -8.731,0.945 -8.731,0.831C-8.731,0.663 -8.596,0.532 -8.324,0.441C-7.89,0.296 -7.476,0.096 -7.082,-0.158C-6.764,-0.367 -6.567,-0.472 -6.492,-0.472C-6.255,-0.472 -6.137,-0.32 -6.137,-0.019C-6.137,-0.059 -6.139,0.227 -6.145,0.84C-6.151,1.262 -6.154,1.829 -6.154,2.541L-6.137,7.975C-6.137,8.125 -6.096,8.199 -6.015,8.199C-5.928,8.199 -5.795,8.125 -5.616,7.975C-5.135,7.598 -4.545,7.107 -3.845,6.499C-3.706,6.355 -3.637,6.237 -3.637,6.151C-3.637,5.994 -3.871,5.886 -4.34,5.82C-4.542,5.799 -4.638,5.686 -4.626,5.484C-4.609,5.279 -4.508,5.194 -4.322,5.223C-3.906,5.279 -3.298,5.313 -2.5,5.318C-1.944,5.323 -1.392,5.326 -0.842,5.326C-0.663,5.333 -0.573,5.44 -0.573,5.649C-0.573,5.845 -0.715,5.951 -0.998,5.97C-1.444,5.986 -1.863,6.088 -2.257,6.274C-2.807,6.522 -3.394,6.959 -4.019,7.584L-4.088,7.714C-4.088,7.795 -3.99,7.987 -3.793,8.295C-3.07,9.395 -2.387,10.226 -1.745,10.785C-1.334,11.14 -0.949,11.316 -0.59,11.316C-0.324,11.316 -0.159,11.335 -0.096,11.372C-0.032,11.409 0,11.51 0,11.672" style="fill-rule:nonzero;"/>
            </g>
        </g>
        <g transform="matrix(2.96596,0,0,2.96596,12.3973,59.8487)">
            <g transform="matrix(1,0,0,1,0,104.785)">
                <rect x="219.328" y="13.388" width="1" height="31.085" style="fill:rgb(204,204,204);"/>
            </g>
        </g>
        <g transform="matrix(2.96596,0,0,2.96596,12.3973,59.8487)">
            <g transform="matrix(1,0,0,1,0,104.785)">
                <rect x="77.533" y="13.388" width="1" height="31.085" style="fill:rgb(204,204,204);"/>
            </g>
        </g>
        <g transform="matrix(2.96596,0,0,2.96596,12.3973,59.8487)">
            <g transform="matrix(1,0,0,1,6.9691,142.242)">
                <path d="M0,7.016C1.936,7.016 3.507,5.445 3.507,3.508L3.507,0L0,0C-1.936,0 -3.507,1.572 -3.507,3.508C-3.507,5.445 -1.936,7.016 0,7.016" style="fill-rule:nonzero;"/>
            </g>
        </g>
        <g transform="matrix(2.96596,0,0,2.96596,12.3973,59.8487)">
            <g transform="matrix(1,0,0,1,3.4618,138.736)">
                <path d="M0,0C0,-1.937 1.571,-3.507 3.507,-3.507L7.015,-3.507L7.015,3.507L3.507,3.507C1.571,3.507 0,1.936 0,0" style="fill-rule:nonzero;"/>
            </g>
        </g>
        <g transform="matrix(2.96596,0,0,2.96596,12.3973,59.8487)">
            <g transform="matrix(1,0,0,1,3.4618,131.721)">
                <path d="M0,-0.001C0,-1.937 1.571,-3.508 3.507,-3.508L7.015,-3.508L7.015,3.507L3.507,3.507C1.571,3.507 0,1.936 0,-0.001" style="fill-rule:nonzero;"/>
            </g>
        </g>
        <g transform="matrix(2.96596,0,0,2.96596,12.3973,59.8487)">
            <g transform="matrix(1,0,0,1,10.4765,135.228)">
                <path d="M0,-7.015L3.507,-7.015C5.444,-7.015 7.015,-5.445 7.015,-3.508C7.015,-1.572 5.444,0 3.507,0L0,0L0,-7.015Z" style="fill-rule:nonzero;"/>
            </g>
        </g>
        <g transform="matrix(2.96596,0,0,2.96596,12.3973,59.8487)">
            <g transform="matrix(0,-1,-1,0,13.9841,135.228)">
                <path d="M-3.507,-3.507C-5.444,-3.507 -7.015,-1.936 -7.015,-0C-7.015,1.937 -5.444,3.507 -3.507,3.507C-1.571,3.507 -0,1.937 -0,-0C-0,-1.936 -1.571,-3.507 -3.507,-3.507" style="fill-rule:nonzero;"/>
            </g>
        </g>
        <g transform="matrix(2.96596,0,0,2.96596,12.3973,59.8487)">
            <g transform="matrix(1,0,0,1,62.0785,141.677)">
                <path d="M0,-3.986C-0.342,-3.986 -0.685,-3.917 -0.992,-3.757C-1.291,-3.608 -1.545,-3.388 -1.739,-3.108C-1.932,-2.828 -2.029,-2.45 -2.029,-1.993C-2.038,-1.685 -1.985,-1.379 -1.879,-1.089C-1.792,-0.85 -1.66,-0.639 -1.484,-0.465C-1.317,-0.306 -1.115,-0.183 -0.887,-0.114C-0.65,-0.035 -0.404,0 -0.158,0C-0.026,0 0.097,-0.007 0.211,-0.016C0.325,-0.007 0.422,-0.025 0.527,-0.06L0.527,-3.925L0.29,-3.968C0.193,-3.977 0.097,-3.986 0,-3.986" style="fill-rule:nonzero;"/>
            </g>
        </g>
        <g transform="matrix(2.96596,0,0,2.96596,12.3973,59.8487)">
            <g transform="matrix(1,0,0,1,63.9491,149.259)">
                <path d="M0,-20.553L-13.613,-20.553C-15.677,-20.553 -17.346,-18.883 -17.346,-16.821L-17.346,-3.735C-17.346,-1.669 -15.677,0 -13.613,0L0,0C2.064,0 3.733,-1.669 3.733,-3.735L3.733,-16.821C3.733,-18.883 2.064,-20.553 0,-20.553M-6.165,-6.071L-8.176,-6.071C-8.317,-6.071 -8.414,-6.078 -8.475,-6.166C-8.66,-6.535 -8.853,-6.896 -9.037,-7.265C-9.222,-7.624 -9.424,-7.993 -9.634,-8.37C-9.845,-8.748 -10.056,-9.126 -10.267,-9.513L-10.284,-9.513C-10.469,-9.136 -10.671,-8.757 -10.873,-8.379C-11.075,-8.002 -11.277,-7.624 -11.47,-7.255C-11.672,-6.887 -11.874,-6.509 -12.076,-6.15C-12.111,-6.062 -12.181,-6.053 -12.278,-6.053L-14.21,-6.053L-14.272,-6.078L-14.254,-6.175L-11.523,-10.655L-14.184,-15.159L-14.201,-15.247L-14.114,-15.282L-12.12,-15.282L-11.997,-15.266L-11.909,-15.187C-11.742,-14.81 -11.549,-14.432 -11.347,-14.054C-11.136,-13.675 -10.934,-13.308 -10.715,-12.939C-10.504,-12.57 -10.311,-12.199 -10.126,-11.823L-10.109,-11.823C-9.924,-12.208 -9.731,-12.586 -9.538,-12.955C-9.345,-13.324 -9.143,-13.694 -8.94,-14.063C-8.739,-14.432 -8.545,-14.81 -8.352,-15.168L-8.299,-15.256L-8.185,-15.275L-6.332,-15.275L-6.235,-15.212L-6.262,-15.152L-8.897,-10.804L-6.086,-6.194L-6.069,-6.087L-6.165,-6.071ZM0.58,-6.431C0.123,-6.238 -0.36,-6.097 -0.852,-6.008C-1.3,-5.93 -1.748,-5.886 -2.204,-5.886C-2.854,-5.876 -3.504,-6.008 -4.092,-6.281C-4.646,-6.535 -5.103,-6.956 -5.419,-7.476C-5.744,-8.012 -5.902,-8.679 -5.902,-9.478C-5.911,-10.127 -5.744,-10.769 -5.419,-11.33C-5.085,-11.903 -4.602,-12.375 -4.023,-12.693C-3.408,-13.034 -2.67,-13.201 -1.8,-13.201L-1.616,-13.194C-1.537,-13.185 -1.449,-13.185 -1.344,-13.175L-1.344,-15.95L-1.256,-16.047L0.527,-16.047L0.615,-15.987L0.615,-7.608C0.615,-7.449 0.624,-7.274 0.632,-7.079C0.65,-6.896 0.659,-6.72 0.667,-6.572L0.58,-6.431Z" style="fill-rule:nonzero;"/>
            </g>
        </g>
        <g transform="matrix(2.96596,0,0,2.96596,12.3973,59.8487)">
            <clipPath id="_clip1">
                <path d="M93.777,128.214C93.429,128.214 93.146,128.496 93.146,128.844L93.146,148.627C93.146,148.975 93.429,149.259 93.777,149.259L113.558,149.259C113.909,149.259 114.19,148.975 114.19,148.627L114.19,128.844C114.19,128.496 113.909,128.214 113.558,128.214L93.777,128.214Z" clip-rule="nonzero"/>
            </clipPath>
            <g clip-path="url(#_clip1)">
                <g transform="matrix(1,0,0,1,114.191,148.626)">
                    <path d="M0,-19.782C0,-20.13 -0.283,-20.413 -0.631,-20.413L-20.413,-20.413C-20.762,-20.413 -21.045,-20.13 -21.045,-19.782L-21.045,-0C-21.045,0.349 -20.762,0.631 -20.413,0.631L-0.631,0.631C-0.283,0.631 0,0.349 0,-0L0,-19.782Z" style="fill:rgb(13,13,13);"/>
                </g>
                <g transform="matrix(1,0,0,1,114.191,148.626)">
                    <path d="M0,-19.782C0,-20.13 -0.283,-20.413 -0.631,-20.413L-12.416,-20.413L-21.045,-5.469L-21.045,-0C-21.045,0.349 -20.762,0.631 -20.413,0.631L-0.631,0.631C-0.283,0.631 0,0.349 0,-0L0,-19.782Z" style="fill:rgb(38,38,38);"/>
                </g>
                <g transform="matrix(1,0,0,1,102.876,128.212)">
                    <path d="M0,21.046L-1.468,21.046L-5.259,13.424L2.129,0L3.318,0L-4.416,13.397L0,21.046ZM3.976,21.046L0.316,21.046L-3.997,13.575L11.316,13.575L11.315,14.971L3.976,21.046ZM0.338,0L-0.891,0L-9.73,15.31L-9.73,17.439L0.338,0ZM2.473,13.301L-1.69,13.301C-2.175,13.301 -2.627,13.046 -2.87,12.625C-3.113,12.205 -3.113,11.686 -2.87,11.266L-0.786,7.655L2.473,13.301ZM11.315,13.301L2.789,13.301L-0.628,7.382L3.633,0L5.177,0.001L2.935,7.632L3.976,9.77L11.315,12.655L11.315,13.301Z" style="fill:rgb(64,64,64);"/>
                </g>
                <g transform="matrix(1,0,0,1,114.191,128.212)">
                    <path d="M0,21.045L-10.683,21.045L-14.838,13.85L0,13.85L0,21.045ZM-11.63,21.045L-21.045,21.045L-21.045,15.857L-11.89,0L-8.313,0L-16.047,13.397L-11.63,21.045ZM-9.314,13.028L-12.931,13.028C-13.335,13.028 -13.708,12.816 -13.91,12.466C-14.112,12.117 -14.112,11.686 -13.91,11.336C-13.107,9.944 -12.101,8.202 -12.101,8.202L-9.314,13.028ZM0,13.028L-8.367,13.028L-11.627,7.382L-7.366,0L0,0L0,13.028Z" style="fill:rgb(102,102,102);"/>
                </g>
                <g transform="matrix(1,0,0,1,114.679,127.773)">
                    <path d="M0,21.872L-10.948,21.872L-15.327,14.289L-0.008,14.289L0,21.872ZM-16.535,13.836L-11.895,21.872L-22.179,21.872L-22.213,17.475L-12.124,0L-8.547,0L-16.535,13.836ZM-14.889,14.541L-10.802,21.62L-0.253,21.62L-0.26,14.541L-14.889,14.541ZM-11.979,0.253L-21.96,17.541L-21.928,21.62L-12.333,21.62L-16.827,13.836L-8.984,0.253L-11.979,0.253ZM-9.803,13.468L-13.443,13.468L-13.448,13.467L-13.472,13.467L-13.476,13.466L-13.49,13.466L-13.495,13.465L-13.505,13.465L-13.523,13.463L-13.528,13.463L-13.532,13.462L-13.537,13.462L-13.542,13.461L-13.546,13.461L-13.551,13.46L-13.556,13.46L-13.565,13.459L-13.574,13.457L-13.588,13.456L-13.602,13.453L-13.606,13.453L-13.615,13.451L-13.625,13.448L-13.629,13.448L-13.647,13.444L-13.661,13.441L-13.692,13.434L-13.697,13.434L-13.706,13.432L-13.715,13.429L-13.732,13.424L-13.746,13.421L-13.75,13.419L-13.759,13.417L-13.763,13.415L-13.768,13.414L-13.772,13.412L-13.785,13.407L-13.789,13.405L-13.798,13.403L-13.802,13.401L-13.811,13.398L-13.815,13.396L-13.82,13.395L-13.824,13.393L-13.832,13.391L-13.845,13.386L-13.849,13.384L-13.854,13.382L-13.858,13.381L-13.871,13.375L-13.875,13.373L-13.879,13.372L-13.883,13.37L-13.891,13.365L-13.916,13.353L-13.92,13.351L-13.933,13.346L-13.957,13.334L-13.961,13.331L-13.969,13.327L-13.981,13.319L-13.993,13.313L-13.997,13.31L-14.001,13.309L-14.005,13.307L-14.012,13.302L-14.016,13.3L-14.02,13.297L-14.024,13.295L-14.028,13.292L-14.036,13.287L-14.051,13.276L-14.055,13.274L-14.058,13.271L-14.066,13.267L-14.077,13.259L-14.081,13.257L-14.096,13.246L-14.103,13.239L-14.107,13.237L-14.11,13.234L-14.118,13.228L-14.125,13.224L-14.128,13.221L-14.132,13.218L-14.135,13.215L-14.139,13.212L-14.146,13.206L-14.15,13.203L-14.153,13.199L-14.16,13.194L-14.167,13.187L-14.174,13.182L-14.181,13.176L-14.184,13.173L-14.194,13.164L-14.201,13.157L-14.204,13.153L-14.207,13.15L-14.211,13.147L-14.214,13.144L-14.221,13.138L-14.224,13.135L-14.23,13.128L-14.237,13.122L-14.24,13.119L-14.243,13.114L-14.246,13.111L-14.249,13.107L-14.252,13.104L-14.256,13.101L-14.262,13.095L-14.265,13.091L-14.268,13.088L-14.286,13.066L-14.289,13.062L-14.298,13.053L-14.304,13.045L-14.307,13.042L-14.312,13.033L-14.324,13.019L-14.329,13.012L-14.332,13.009L-14.335,13.005L-14.337,13.001L-14.343,12.993L-14.348,12.985L-14.356,12.974L-14.361,12.966L-14.372,12.951L-14.374,12.945L-14.377,12.942L-14.379,12.938L-14.384,12.931L-14.389,12.922L-14.394,12.914L-14.396,12.91L-14.403,12.897L-14.408,12.89L-14.41,12.886L-14.413,12.882L-14.417,12.873L-14.421,12.864L-14.424,12.86L-14.428,12.851L-14.43,12.848L-14.436,12.836L-14.442,12.822L-14.444,12.818L-14.448,12.809L-14.45,12.806L-14.456,12.793L-14.463,12.775L-14.467,12.767L-14.468,12.763L-14.472,12.754L-14.475,12.746L-14.478,12.736L-14.48,12.732L-14.483,12.724L-14.485,12.72L-14.486,12.715L-14.488,12.711L-14.489,12.706L-14.491,12.702L-14.492,12.697L-14.494,12.692L-14.495,12.688L-14.497,12.684L-14.499,12.676L-14.501,12.671L-14.503,12.662L-14.505,12.657L-14.507,12.648L-14.509,12.644L-14.513,12.627L-14.515,12.622L-14.517,12.612L-14.523,12.587L-14.526,12.572L-14.53,12.555L-14.531,12.55L-14.531,12.546L-14.535,12.527L-14.535,12.523L-14.537,12.514L-14.537,12.51L-14.539,12.501L-14.539,12.496L-14.541,12.486L-14.542,12.477L-14.542,12.474L-14.543,12.469L-14.543,12.464L-14.544,12.455L-14.545,12.451L-14.545,12.445L-14.546,12.441L-14.546,12.436L-14.547,12.428L-14.547,12.419L-14.548,12.414L-14.548,12.4L-14.549,12.395L-14.549,12.378L-14.55,12.369L-14.55,12.309L-14.549,12.304L-14.549,12.286L-14.548,12.276L-14.548,12.268L-14.547,12.259L-14.547,12.254L-14.546,12.245L-14.546,12.24L-14.545,12.231L-14.544,12.226L-14.544,12.222L-14.543,12.218L-14.543,12.213L-14.541,12.194L-14.539,12.185L-14.539,12.181L-14.537,12.172L-14.537,12.168L-14.535,12.158L-14.534,12.149L-14.533,12.144L-14.532,12.141L-14.531,12.136L-14.531,12.132L-14.526,12.108L-14.523,12.096L-14.519,12.078L-14.518,12.072L-14.515,12.059L-14.512,12.051L-14.511,12.047L-14.509,12.037L-14.507,12.032L-14.505,12.023L-14.503,12.019L-14.502,12.016L-14.501,12.011L-14.499,12.007L-14.497,11.998L-14.495,11.993L-14.494,11.988L-14.489,11.976L-14.488,11.972L-14.486,11.967L-14.485,11.963L-14.483,11.958L-14.482,11.954L-14.472,11.928L-14.47,11.924L-14.468,11.919L-14.467,11.915L-14.465,11.911L-14.463,11.905L-14.459,11.897L-14.456,11.889L-14.452,11.881L-14.446,11.868L-14.442,11.858L-14.44,11.854L-14.438,11.851L-14.426,11.826L-14.419,11.812L-14.417,11.809L-14.413,11.801L-14.41,11.797L-14.406,11.788L-14.401,11.779L-14.399,11.775L-12.589,8.642L-9.803,13.468ZM-0.013,13.468L-8.856,13.468L-12.116,7.821L-7.6,0L-0.104,0L-0.013,13.468ZM-14.18,11.901L-14.182,11.904L-14.184,11.908L-14.185,11.912L-14.189,11.918L-14.191,11.922L-14.193,11.925L-14.194,11.928L-14.198,11.934L-14.199,11.937L-14.201,11.94L-14.202,11.943L-14.204,11.946L-14.206,11.951L-14.208,11.954L-14.209,11.957L-14.211,11.96L-14.212,11.964L-14.214,11.967L-14.215,11.971L-14.217,11.974L-14.218,11.976L-14.22,11.979L-14.221,11.982L-14.223,11.986L-14.227,11.997L-14.229,12L-14.231,12.007L-14.233,12.01L-14.234,12.013L-14.237,12.019L-14.238,12.023L-14.241,12.029L-14.243,12.037L-14.245,12.041L-14.248,12.05L-14.249,12.054L-14.252,12.06L-14.256,12.074L-14.261,12.091L-14.263,12.099L-14.264,12.101L-14.267,12.111L-14.272,12.13L-14.273,12.133L-14.273,12.137L-14.275,12.143L-14.276,12.145L-14.277,12.15L-14.277,12.153L-14.278,12.156L-14.28,12.165L-14.28,12.168L-14.282,12.175L-14.282,12.178L-14.283,12.182L-14.284,12.184L-14.284,12.188L-14.285,12.192L-14.285,12.195L-14.286,12.198L-14.287,12.203L-14.287,12.206L-14.288,12.21L-14.288,12.214L-14.289,12.217L-14.289,12.221L-14.29,12.224L-14.29,12.227L-14.291,12.23L-14.291,12.237L-14.292,12.241L-14.292,12.246L-14.293,12.249L-14.294,12.259L-14.294,12.267L-14.295,12.269L-14.295,12.277L-14.296,12.285L-14.296,12.298L-14.297,12.302L-14.297,12.33L-14.298,12.334L-14.298,12.349L-14.297,12.351L-14.297,12.377L-14.296,12.384L-14.296,12.397L-14.295,12.404L-14.295,12.412L-14.294,12.415L-14.294,12.423L-14.293,12.426L-14.293,12.433L-14.292,12.436L-14.292,12.44L-14.291,12.443L-14.291,12.451L-14.29,12.454L-14.29,12.458L-14.289,12.465L-14.288,12.468L-14.288,12.472L-14.287,12.478L-14.285,12.486L-14.285,12.489L-14.284,12.493L-14.284,12.497L-14.282,12.504L-14.282,12.508L-14.28,12.514L-14.28,12.518L-14.279,12.52L-14.277,12.527L-14.277,12.53L-14.275,12.539L-14.273,12.545L-14.273,12.549L-14.269,12.562L-14.265,12.577L-14.26,12.594L-14.258,12.601L-14.257,12.603L-14.251,12.625L-14.249,12.628L-14.245,12.642L-14.243,12.644L-14.241,12.651L-14.238,12.658L-14.237,12.662L-14.235,12.666L-14.233,12.672L-14.231,12.675L-14.229,12.682L-14.227,12.684L-14.226,12.688L-14.224,12.691L-14.223,12.695L-14.221,12.698L-14.22,12.702L-14.218,12.705L-14.217,12.709L-14.215,12.712L-14.214,12.715L-14.212,12.719L-14.211,12.722L-14.209,12.725L-14.208,12.727L-14.206,12.73L-14.202,12.738L-14.201,12.741L-14.199,12.744L-14.198,12.748L-14.196,12.751L-14.191,12.761L-14.184,12.772L-14.182,12.776L-14.178,12.782L-14.176,12.786L-14.174,12.789L-14.172,12.793L-14.171,12.796L-14.163,12.808L-14.161,12.81L-14.153,12.822L-14.151,12.827L-14.149,12.83L-14.147,12.832L-14.145,12.836L-14.143,12.839L-14.141,12.841L-14.139,12.845L-14.137,12.847L-14.135,12.851L-14.132,12.853L-14.13,12.855L-14.124,12.864L-14.122,12.868L-14.119,12.871L-14.117,12.874L-14.115,12.876L-14.109,12.885L-14.106,12.888L-14.104,12.891L-14.095,12.9L-14.093,12.903L-14.09,12.906L-14.086,12.913L-14.083,12.915L-14.079,12.921L-14.074,12.926L-14.072,12.929L-14.067,12.934L-14.064,12.936L-14.057,12.943L-14.055,12.946L-14.052,12.948L-14.047,12.955L-14.045,12.957L-14.042,12.959L-14.04,12.962L-14.034,12.967L-14.032,12.97L-14.029,12.972L-14.027,12.974L-14.024,12.976L-14.022,12.979L-14.019,12.981L-14.014,12.986L-14.011,12.988L-14.008,12.991L-14.006,12.994L-14,12.998L-13.998,13.001L-13.995,13.003L-13.99,13.008L-13.984,13.012L-13.982,13.015L-13.979,13.017L-13.976,13.018L-13.974,13.02L-13.971,13.022L-13.968,13.025L-13.962,13.029L-13.954,13.037L-13.945,13.043L-13.943,13.045L-13.928,13.055L-13.926,13.057L-13.923,13.059L-13.919,13.06L-13.916,13.062L-13.914,13.064L-13.899,13.074L-13.896,13.077L-13.884,13.085L-13.881,13.086L-13.872,13.092L-13.866,13.095L-13.863,13.097L-13.859,13.099L-13.856,13.101L-13.853,13.101L-13.844,13.107L-13.841,13.108L-13.835,13.112L-13.831,13.113L-13.829,13.115L-13.825,13.118L-13.822,13.119L-13.816,13.122L-13.813,13.124L-13.809,13.125L-13.803,13.129L-13.8,13.13L-13.797,13.132L-13.793,13.133L-13.79,13.135L-13.787,13.136L-13.784,13.138L-13.781,13.139L-13.777,13.141L-13.761,13.146L-13.758,13.148L-13.754,13.149L-13.751,13.151L-13.745,13.153L-13.741,13.155L-13.731,13.158L-13.725,13.162L-13.714,13.165L-13.711,13.167L-13.698,13.171L-13.68,13.176L-13.674,13.179L-13.67,13.18L-13.667,13.18L-13.653,13.184L-13.649,13.184L-13.636,13.188L-13.629,13.19L-13.625,13.19L-13.611,13.194L-13.608,13.194L-13.597,13.197L-13.594,13.197L-13.587,13.199L-13.583,13.199L-13.58,13.201L-13.576,13.202L-13.572,13.202L-13.569,13.203L-13.565,13.203L-13.558,13.205L-13.555,13.205L-13.551,13.206L-13.547,13.206L-13.544,13.207L-13.54,13.207L-13.537,13.208L-13.533,13.208L-13.529,13.209L-13.526,13.209L-13.522,13.21L-13.515,13.21L-13.511,13.211L-13.504,13.211L-13.501,13.212L-13.493,13.212L-13.49,13.213L-13.479,13.213L-13.475,13.214L-13.457,13.214L-13.453,13.215L-10.24,13.215L-12.589,9.146L-14.18,11.901ZM-7.454,0.253L-11.824,7.821L-8.71,13.215L-0.267,13.215L-0.355,0.253L-7.454,0.253Z" style="fill:rgb(89,89,89);"/>
                </g>
            </g>
        </g>
        <g transform="matrix(2.96596,0,0,2.96596,12.3973,59.8487)">
            <g transform="matrix(1,0,0,1,152.145,141.677)">
                <path d="M0,-3.986C-0.342,-3.986 -0.685,-3.917 -0.992,-3.757C-1.291,-3.608 -1.546,-3.388 -1.739,-3.108C-1.932,-2.828 -2.029,-2.45 -2.029,-1.993C-2.038,-1.685 -1.985,-1.379 -1.879,-1.089C-1.792,-0.85 -1.66,-0.639 -1.484,-0.465C-1.317,-0.306 -1.115,-0.183 -0.887,-0.114C-0.65,-0.035 -0.404,0 -0.158,0C-0.026,0 0.097,-0.007 0.211,-0.016C0.325,-0.007 0.43,-0.025 0.527,-0.06L0.527,-3.925L0.29,-3.968C0.193,-3.977 0.097,-3.986 0,-3.986" style="fill-rule:nonzero;"/>
            </g>
        </g>
        <g transform="matrix(2.96596,0,0,2.96596,12.3973,59.8487)">
            <g transform="matrix(1,0,0,1,156.44,149.259)">
                <path d="M0,-20.553L-13.613,-20.553C-15.677,-20.553 -17.346,-18.883 -17.346,-16.821L-17.346,-3.735C-17.346,-1.669 -15.677,0 -13.613,0L0,0C2.064,0 3.732,-1.669 3.732,-3.735L3.732,-16.821C3.732,-18.883 2.064,-20.553 0,-20.553M-9.688,-6.166C-9.688,-6.071 -9.731,-6.027 -9.81,-6.027L-11.532,-6.027C-11.611,-6.027 -11.646,-6.071 -11.646,-6.166L-11.646,-15.178L-11.523,-15.291L-9.81,-15.291L-9.696,-15.203L-9.688,-15.178L-9.688,-6.166ZM-1.845,-6.431C-2.301,-6.238 -2.784,-6.097 -3.276,-6.008C-3.715,-5.93 -4.172,-5.886 -4.628,-5.886C-5.278,-5.876 -5.929,-6.008 -6.517,-6.281C-7.07,-6.535 -7.527,-6.956 -7.843,-7.476C-8.168,-8.012 -8.326,-8.679 -8.326,-9.478C-8.335,-10.127 -8.168,-10.769 -7.843,-11.33C-7.509,-11.903 -7.026,-12.375 -6.447,-12.693C-5.832,-13.034 -5.094,-13.201 -4.225,-13.201L-4.04,-13.194C-3.961,-13.185 -3.874,-13.185 -3.768,-13.175L-3.768,-15.95L-3.68,-16.047L-1.897,-16.047L-1.81,-15.987L-1.81,-7.608C-1.81,-7.449 -1.801,-7.274 -1.792,-7.079C-1.774,-6.896 -1.766,-6.72 -1.757,-6.572L-1.845,-6.431Z" style="fill-rule:nonzero;"/>
            </g>
        </g>
        <g transform="matrix(2.96596,0,0,2.96596,12.3973,59.8487)">
            <g transform="matrix(1,0,0,1,203.486,149.259)">
                <path d="M0,-20.553L-13.613,-20.553C-15.677,-20.553 -17.346,-18.883 -17.346,-16.821L-17.346,-3.735C-17.346,-1.669 -15.677,0 -13.613,0L0,0C2.064,0 3.732,-1.669 3.732,-3.735L3.732,-16.821C3.732,-18.883 2.064,-20.553 0,-20.553M-6.491,-10.322C-6.842,-9.828 -7.334,-9.459 -7.904,-9.249C-8.502,-9.03 -9.161,-8.95 -9.881,-8.95C-10.091,-8.95 -10.232,-8.95 -10.32,-8.959C-10.408,-8.969 -10.531,-8.969 -10.697,-8.969L-10.697,-6.15L-10.794,-6.027L-12.498,-6.027L-12.604,-6.141L-12.604,-15.178L-12.516,-15.275C-12.366,-15.275 -12.226,-15.275 -12.023,-15.282C-11.813,-15.291 -11.593,-15.291 -11.356,-15.3C-11.119,-15.31 -10.864,-15.31 -10.592,-15.319C-10.32,-15.326 -10.056,-15.326 -9.793,-15.326C-9.073,-15.326 -8.476,-15.239 -7.983,-15.055C-7.544,-14.905 -7.141,-14.659 -6.807,-14.334C-6.526,-14.054 -6.306,-13.71 -6.165,-13.333C-6.034,-12.964 -5.963,-12.586 -5.963,-12.192C-5.963,-11.437 -6.139,-10.813 -6.491,-10.322M-0.264,-6.905C-0.509,-6.554 -0.852,-6.281 -1.247,-6.122C-1.678,-5.939 -2.205,-5.841 -2.837,-5.841C-3.241,-5.841 -3.636,-5.876 -4.031,-5.955C-4.339,-6.008 -4.646,-6.106 -4.927,-6.238L-5.024,-6.405L-5.024,-7.933L-4.989,-8.012L-4.91,-8.002C-4.567,-7.8 -4.207,-7.659 -3.821,-7.573C-3.487,-7.485 -3.136,-7.441 -2.784,-7.441C-2.451,-7.441 -2.213,-7.485 -2.055,-7.564C-1.915,-7.624 -1.818,-7.775 -1.818,-7.933C-1.818,-8.056 -1.888,-8.168 -2.029,-8.282C-2.169,-8.398 -2.459,-8.53 -2.89,-8.697C-3.337,-8.855 -3.751,-9.066 -4.137,-9.328C-4.409,-9.522 -4.637,-9.777 -4.804,-10.074C-4.945,-10.357 -5.015,-10.663 -5.006,-10.971C-5.006,-11.349 -4.901,-11.708 -4.708,-12.033C-4.488,-12.384 -4.163,-12.665 -3.786,-12.841C-3.372,-13.053 -2.855,-13.15 -2.231,-13.15C-1.871,-13.15 -1.502,-13.122 -1.142,-13.071C-0.878,-13.034 -0.624,-12.964 -0.387,-12.867L-0.299,-12.788L-0.281,-12.684L-0.281,-11.251L-0.325,-11.163L-0.483,-11.163C-0.747,-11.305 -1.028,-11.402 -1.326,-11.462C-1.651,-11.532 -1.976,-11.576 -2.31,-11.576C-2.486,-11.585 -2.67,-11.56 -2.837,-11.516C-2.951,-11.489 -3.048,-11.428 -3.109,-11.339L-3.18,-11.103L-3.092,-10.873C-3.013,-10.779 -2.907,-10.699 -2.793,-10.638C-2.591,-10.532 -2.38,-10.436 -2.169,-10.348C-1.695,-10.19 -1.238,-9.97 -0.817,-9.705C-0.527,-9.522 -0.29,-9.277 -0.123,-8.978C0.018,-8.697 0.088,-8.389 0.079,-8.073C0.088,-7.659 -0.035,-7.246 -0.264,-6.905" style="fill-rule:nonzero;"/>
            </g>
        </g>
        <g transform="matrix(2.96596,0,0,2.96596,12.3973,59.8487)">
            <g transform="matrix(1,0,0,1,194.791,138.462)">
                <path d="M0,-2.625C-0.325,-2.757 -0.676,-2.81 -1.037,-2.801C-1.265,-2.801 -1.467,-2.801 -1.634,-2.791C-1.81,-2.801 -1.932,-2.791 -1.994,-2.782L-1.994,0.168C-1.871,0.177 -1.757,0.185 -1.651,0.185L-1.186,0.185C-0.843,0.185 -0.501,0.133 -0.176,0.027C0.105,-0.052 0.351,-0.219 0.544,-0.437C0.729,-0.657 0.816,-0.956 0.816,-1.344C0.825,-1.614 0.755,-1.888 0.615,-2.124C0.465,-2.354 0.254,-2.528 0,-2.625" style="fill-rule:nonzero;"/>
            </g>
        </g>
        <g transform="matrix(2.96596,0,0,2.96596,12.3973,59.8487)">
            <g transform="matrix(1,0,0,1,241.902,136.98)">
                <path d="M0,0.887C-0.088,0.614 -0.167,0.351 -0.255,0.078C-0.343,-0.193 -0.421,-0.448 -0.492,-0.704C-0.562,-0.949 -0.624,-1.177 -0.685,-1.388L-0.703,-1.388C-0.782,-1.011 -0.878,-0.634 -1.002,-0.256C-1.133,0.166 -1.265,0.606 -1.405,1.044C-1.528,1.492 -1.66,1.905 -1.792,2.275L0.439,2.275C0.386,2.089 0.316,1.869 0.237,1.642C0.158,1.405 0.079,1.151 0,0.887" style="fill-rule:nonzero;"/>
            </g>
        </g>
        <g transform="matrix(2.96596,0,0,2.96596,12.3973,59.8487)">
            <g transform="matrix(1,0,0,1,249.999,149.258)">
                <path d="M0,-20.552L-13.613,-20.552C-15.677,-20.552 -17.346,-18.883 -17.346,-16.821L-17.346,-3.735C-17.346,-1.669 -15.677,0 -13.613,0L0,0C2.064,0 3.732,-1.669 3.732,-3.735L3.732,-16.821C3.732,-18.883 2.064,-20.552 0,-20.552M-4.435,-6.034L-6.271,-6.034L-6.412,-6.131L-7.131,-8.221L-10.399,-8.221L-11.066,-6.157L-11.233,-6.034L-12.884,-6.034C-12.981,-6.034 -13.007,-6.087 -12.981,-6.194L-10.153,-14.334C-10.126,-14.422 -10.1,-14.52 -10.065,-14.624C-10.03,-14.81 -10.012,-15.001 -10.012,-15.196L-9.942,-15.291L-7.667,-15.291L-7.553,-15.221L-4.348,-6.175C-4.321,-6.078 -4.348,-6.034 -4.435,-6.034M-1.449,-6.166C-1.449,-6.071 -1.484,-6.027 -1.563,-6.027L-3.285,-6.027L-3.417,-6.166L-3.417,-12.929L-3.302,-13.052L-1.563,-13.052L-1.449,-12.929L-1.449,-6.166ZM-1.634,-14.097C-1.835,-13.886 -2.134,-13.773 -2.433,-13.789C-2.723,-13.781 -3.004,-13.896 -3.214,-14.097C-3.417,-14.318 -3.522,-14.608 -3.513,-14.905C-3.522,-15.203 -3.408,-15.486 -3.197,-15.688C-2.986,-15.889 -2.705,-15.994 -2.415,-15.994C-2.073,-15.994 -1.809,-15.889 -1.616,-15.688C-1.423,-15.477 -1.317,-15.196 -1.326,-14.905C-1.317,-14.608 -1.423,-14.318 -1.634,-14.097" style="fill-rule:nonzero;"/>
            </g>
        </g>
    </g>
</svg>
