<?xml version="1.0" encoding="UTF-8"?><svg id="Layer_2" xmlns="http://www.w3.org/2000/svg" xmlns:xlink="http://www.w3.org/1999/xlink" viewBox="0 0 311.32 174.01"><defs><style>.cls-1{font-family:JosefinSansRoman-Light, 'Josefin Sans';font-size:6px;font-variation-settings:'wght' 300;}.cls-1,.cls-2{fill:#7f8080;}.cls-3{letter-spacing:.05em;}.cls-4{fill:#404040;}.cls-4,.cls-5,.cls-6,.cls-7{fill-rule:evenodd;}.cls-8{letter-spacing:.06em;}.cls-9{letter-spacing:.04em;}.cls-10{letter-spacing:.04em;}.cls-11{letter-spacing:.06em;}.cls-12{fill:#0c0c0c;}.cls-13{letter-spacing:.07em;}.cls-14{letter-spacing:0em;}.cls-15{letter-spacing:.05em;}.cls-16{letter-spacing:.06em;}.cls-17{letter-spacing:.05em;}.cls-18{letter-spacing:.06em;}.cls-19{letter-spacing:.07em;}.cls-20{letter-spacing:.05em;}.cls-21{letter-spacing:.05em;}.cls-22{letter-spacing:.05em;}.cls-23{letter-spacing:.05em;}.cls-24{letter-spacing:.04em;}.cls-25,.cls-26{letter-spacing:.06em;}.cls-27{clip-path:url(#clippath-1);}.cls-28{letter-spacing:.05em;}.cls-29{letter-spacing:.08em;}.cls-30{letter-spacing:.05em;}.cls-31{letter-spacing:.06em;}.cls-32{fill:#cdcccc;}.cls-5{fill:#5a5a5a;}.cls-33{letter-spacing:.05em;}.cls-34{letter-spacing:.06em;}.cls-35{letter-spacing:.04em;}.cls-36{letter-spacing:.06em;}.cls-37{letter-spacing:.05em;}.cls-38{letter-spacing:.04em;}.cls-39{letter-spacing:.04em;}.cls-40{letter-spacing:.05em;}.cls-6{fill:#676766;}.cls-41{letter-spacing:.05em;}.cls-42{letter-spacing:.06em;}.cls-42,.cls-43,.cls-26,.cls-44{fill:#1d1d1b;font-family:MyriadPro-Regular, 'Myriad Pro';font-size:7px;}.cls-45{clip-path:url(#clippath);}.cls-46{letter-spacing:.05em;}.cls-47{letter-spacing:.05em;}.cls-48{fill:none;}.cls-49{letter-spacing:.04em;}.cls-7{fill:#262626;}.cls-50{letter-spacing:.07em;}.cls-51{letter-spacing:.05em;}.cls-52{letter-spacing:.05em;}.cls-53{letter-spacing:.05em;}.cls-54{letter-spacing:.05em;}.cls-55{letter-spacing:.04em;}.cls-56{letter-spacing:.05em;}.cls-57{letter-spacing:.05em;}.cls-58{letter-spacing:.06em;}.cls-59{letter-spacing:.04em;}.cls-60{letter-spacing:.06em;}.cls-44{letter-spacing:.06em;}.cls-61{fill:#010101;}.cls-62{letter-spacing:.06em;}.cls-63{letter-spacing:.04em;}.cls-64{letter-spacing:.05em;}</style><clipPath id="clippath"><rect class="cls-48" x="2.76" y="10.38" width="14.03" height="21.04"/></clipPath><clipPath id="clippath-1"><rect class="cls-48" x="69.22" y="10.38" width="21.04" height="21.04" rx=".63" ry=".63"/></clipPath></defs><g id="Layer_1-2"><text class="cls-1" transform="translate(86.28 68.79)"><tspan x="0" y="0">Intermedio</tspan></text><rect class="cls-32" x="205.53" y="64.34" width="1" height="31.08"/><g><path d="M304.12,74.62h.95v1.9h1.34v.94h-2.29m-3.67-2.84h.99l.61,1,.61-1h.99v2.84h-.95v-1.41l-.66,1.02-.66-1.02v1.41h-.93m-2.2-1.89h-.83v-.95h2.62v.95h-.84v1.89h-.95m-4.01-2.84h.95v.94h.87v-.94h.95v2.84h-.95v-.95h-.86v.95h-.95"/><g><g><path d="M269.3,75.61h.93v-.99h-2.32v.99c.31,.31,.47,.46,.92,.91-.26,0-.92,0-.92,0v.91h2.32v-.91l-.93-.91Zm-3.29,0h.93v-.99h-2.32v.99c.31,.31,.47,.46,.92,.91-.26,0-.92,0-.92,0v.91h2.32v-.91l-.93-.91Zm-3.71,.91v-.91h1.33v-.99h-2.32v2.81h2.32v-.91h-1.33Z"/><text class="cls-43" transform="translate(259.94 106.85)"><tspan class="cls-60" x="0" y="0">C</tspan><tspan class="cls-38" x="4.47" y="0">S</tspan><tspan x="8.19" y="0">S</tspan></text><path d="M270.44,81.87l-.19,1.84-4.5,1.92h4.34l-.5,5.72-3.83,1.12h0l-3.85-1.14-.25-2.88h1.91l.12,1.49,2.05,.52h.02l2.12-.6,.15-2.4h-2.26l-4.23-.02-.14-1.8,4.37-1.82,.25-.11h-4.79l-.23-1.84h9.45Zm-12.19-3.11l1.41,15.27,6.11,1.64,6.11-1.64,1.41-15.27h-15.03Z"/></g><g><text class="cls-43" transform="translate(289.17 106.85)"><tspan class="cls-34" x="0" y="0">H</tspan><tspan class="cls-54" x="4.98" y="0">T</tspan><tspan class="cls-46" x="8.8" y="0">M</tspan><tspan class="cls-8" x="14.81" y="0">L</tspan><tspan x="18.56" y="0">5</tspan></text><path d="M304.74,83.74h-7.14l.17,1.91h6.8l-.52,5.73-3.82,1.06h0l-3.83-1.06-.26-2.93h1.88l.13,1.49,2.09,.56,2.08-.56,.22-2.43h-6.47l-.51-5.65h9.36l-.17,1.87Zm-11.96-4.98l1.36,15.24,6.09,1.69,6.12-1.69,1.36-15.23h-14.92Z"/></g><g><text class="cls-43" transform="translate(214.96 106.85)"><tspan class="cls-41" x="0" y="0">J</tspan><tspan class="cls-55" x="2.94" y="0">a</tspan><tspan class="cls-46" x="6.57" y="0">v</tspan><tspan class="cls-35" x="10.33" y="0">a</tspan><tspan class="cls-25" x="14.01" y="0">S</tspan><tspan class="cls-41" x="17.86" y="0">c</tspan><tspan class="cls-64" x="21.34" y="0">r</tspan><tspan class="cls-41" x="24.01" y="0">i</tspan><tspan class="cls-33" x="26" y="0">p</tspan><tspan class="cls-14" x="30.34" y="0">t</tspan></text><path d="M236.9,94.22c-1.84,0-3.02-.88-3.61-2.02l1.61-.93c.42,.69,.98,1.2,1.95,1.2,.82,0,1.34-.41,1.34-.98,0-.68-.54-.92-1.44-1.31l-.49-.21c-1.43-.61-2.38-1.37-2.38-2.98,0-1.48,1.13-2.61,2.9-2.61,1.26,0,2.16,.44,2.82,1.59l-1.54,.99c-.34-.61-.7-.85-1.27-.85s-.95,.37-.95,.85c0,.59,.37,.83,1.22,1.2l.49,.21c1.68,.72,2.63,1.46,2.63,3.11,0,1.78-1.4,2.76-3.28,2.76m-4.68-2.99c0,2.05-1.2,2.98-2.96,2.98-1.58,0-2.5-.82-2.97-1.81l1.61-.97c.31,.55,.59,1.02,1.27,1.02s1.06-.25,1.06-1.24v-6.73h1.98v6.76Zm-11.47,4.63h21.06v-21.06h-21.06v21.06Z"/></g></g><text class="cls-1" transform="translate(250.31 68.76)"><tspan x="0" y="0">Avanzado</tspan></text></g><rect class="cls-32" x="42.64" y=".34" width="1" height="31.08"/><g><text class="cls-1" transform="translate(1.69 5.11)"><tspan x="0" y="0">Básico</tspan></text><g><g class="cls-45"><path d="M6.26,31.43c1.94,0,3.51-1.57,3.51-3.51v-3.51h-3.51c-1.94,0-3.51,1.57-3.51,3.51s1.57,3.51,3.51,3.51"/><path d="M2.76,20.91c0-1.94,1.57-3.51,3.51-3.51h3.51v7.01h-3.51c-1.94,0-3.51-1.57-3.51-3.51"/><path d="M2.76,13.89c0-1.94,1.57-3.51,3.51-3.51h3.51v7.01h-3.51c-1.94,0-3.51-1.57-3.51-3.51"/><path d="M9.77,10.38h3.51c1.94,0,3.51,1.57,3.51,3.51s-1.57,3.51-3.51,3.51h-3.51v-7.02Z"/><path d="M16.79,20.91c0,1.94-1.57,3.51-3.51,3.51s-3.51-1.57-3.51-3.51,1.57-3.51,3.51-3.51,3.51,1.57,3.51,3.51"/></g><text class="cls-43" transform="translate(0 41.94)"><tspan class="cls-39" x="0" y="0">F</tspan><tspan class="cls-37" x="3.71" y="0">igm</tspan><tspan x="16.17" y="0">a</tspan></text></g></g><g><text class="cls-1" transform="translate(89.69 5.11)"><tspan x="0" y="0">Intermedio</tspan></text><g><g><g class="cls-27"><path class="cls-12" d="M69.85,10.38h19.78c.35,0,.63,.28,.63,.63V30.8c0,.35-.28,.63-.63,.63h-19.78c-.35,0-.63-.28-.63-.63V11.02c0-.35,.28-.63,.63-.63Z"/><path class="cls-7" d="M90.27,11.02c0-.35-.28-.63-.63-.63h-11.79l-8.63,14.94v5.47c0,.35,.28,.63,.63,.63h19.78c.35,0,.63-.28,.63-.63V11.02Z"/><path class="cls-4" d="M90.27,23.68h-8.53l-3.42-5.92,4.26-7.38h1.54l-2.24,7.63,1.04,2.14,7.34,2.89v.65Zm-8.84,0h-4.16c-.49,0-.94-.26-1.18-.68-.24-.42-.24-.94,0-1.36l2.08-3.61,3.26,5.65Zm-2.14-13.3h-1.23l-8.84,15.31v2.13l10.07-17.44Zm3.64,21.04h-3.66l-4.31-7.47h15.31v1.39l-7.34,6.07Zm-3.98,0h-1.47l-3.79-7.62,7.39-13.42h1.19l-7.73,13.4,4.42,7.65Z"/><path class="cls-6" d="M90.27,23.41h-8.37l-3.26-5.65,4.26-7.38h7.37v13.03Zm-9.31,0h-3.62c-.4,0-.78-.21-.98-.56-.2-.35-.2-.78,0-1.13,.8-1.39,1.81-3.13,1.81-3.13l2.79,4.83Zm-2.32,8.02h-9.42v-5.19l9.15-15.86h3.58l-7.73,13.4,4.42,7.65Zm11.63,0h-10.68l-4.15-7.2h14.84v7.2Z"/><path class="cls-5" d="M83.3,10.2l-4.37,7.57,3.11,5.39h8.44l-.09-12.96h-7.1Zm-6.73,11.65h0v.02h0v.02h0v.02h0v.02h0v.02h0v.02h0v.02h0v.02h0v.02h0v.02h0v.02h0v.02h0v.02h0v.02h0v.02h0v.02h0v.02h0v.02h0v.02h0v.02h0v.02h0v.02h0v.02h0v.02h0v.02h0v.02h0v.02h0v.02h0v.02h0v.02h0v.02h0v.02h0v.02h0v.02h0v.02h0v.02h0v.02h0v.02h0v.02h0v.02h0v.02h0v.02h0v.02h0v.02h0v.02h0v.02h0v.02h0v.02h0v.02h0v.02h.01v.02h.01v.02h.01v.02h.01v.02h.01v.02h.01v.02h.01v.02h.01v.02h.02v.02h.02v.02h.02v.02h.02v.02h.02v.02h.02v.02h.02v.02h.03v.02h.02v.02h.02v.02h.03v.02h.03v.02h.04v.02h.04v.02h.04v.02h.05v.02h.07v.02h3.35l-2.35-4.05-1.59,2.76Zm14.17,1.57h-8.84l-3.26-5.65,4.52-7.82h7.5l.09,13.47Zm-9.79,0h-3.8v-.02h-.08v-.02h-.06v-.02h-.05v-.02h-.03v-.02h-.05v-.02h-.03v-.02h-.03v-.02h-.03v-.02h-.04v-.02h-.02v-.02h-.03v-.02h-.02v-.02h-.03v-.02h-.02v-.02h-.02v-.02h-.02v-.02h-.02v-.02h-.02v-.02h-.02v-.02h-.02v-.02h-.02v-.02h-.01v-.02h-.02v-.02h-.01v-.02h-.02v-.02h-.01v-.02h-.01v-.02h-.01v-.02h-.01v-.02h0v-.02h-.01v-.02h-.01v-.02h0v-.02h0v-.02h0v-.02h0v-.02h0v-.02h0v-.02h0v-.02h0v-.02h0v-.02h0v-.02h0v-.02h0v-.02h0v-.02h0v-.02h0v-.02h0v-.02h0v-.02h0v-.02h0v-.02h0v-.02h0v-.02h0v-.02h0v-.02h0v-.02h0v-.02h0v-.02h0v-.02h0v-.02h0v-.02h0v-.02h0v-.02h0v-.02h0v-.02h0v-.02h0v-.02h0v-.02h0v-.02h0v-.02h0v-.02h0v-.02h0v-.02h0v-.02h0v-.02h0v-.02h0v-.02h0v-.02h0v-.02h0v-.02h0v-.02h0v-.02h0v-.02h0v-.02h0v-.02h0v-.02h0v-.02h0v-.02h0v-.02h0v-.02h0v-.02h.01v-.02h0l1.81-3.14,2.79,4.83Zm-2.18-13.21l-9.98,17.29,.03,4.08h9.6l-4.49-7.78,7.84-13.58h-2.99Zm-2.91,14.29l4.09,7.08h10.55v-7.08h-14.64Zm-1.65-.71l4.64,8.04h-10.28l-.03-4.4,10.09-17.48h3.58l-7.99,13.84Zm16.54,8.04h-10.95l-4.38-7.58h15.32v7.58Z"/></g><text class="cls-43" transform="translate(60.34 41.94)"><tspan class="cls-40" x="0" y="0">A</tspan><tspan class="cls-38" x="4.61" y="0">F</tspan><tspan class="cls-10" x="8.29" y="0"> </tspan><tspan class="cls-36" x="10.06" y="0">D</tspan><tspan class="cls-51" x="15.14" y="0">e</tspan><tspan class="cls-40" x="19" y="0">s</tspan><tspan class="cls-33" x="22.11" y="0">i</tspan><tspan class="cls-51" x="24.11" y="0">g</tspan><tspan class="cls-46" x="28.38" y="0">n</tspan><tspan class="cls-64" x="32.65" y="0">e</tspan><tspan x="36.53" y="0">r</tspan></text></g><g><g><path d="M134.43,19.86c-.34,0-.69,.07-.99,.23-.3,.15-.55,.37-.75,.65-.19,.28-.29,.66-.29,1.12,0,.31,.04,.61,.15,.9,.09,.24,.22,.45,.4,.62,.17,.16,.37,.28,.6,.35,.24,.08,.48,.11,.73,.11,.13,0,.26,0,.37-.02,.11,0,.22,0,.32-.04v-3.87l-.24-.04c-.1,0-.19-.02-.29-.02"/><path d="M136.88,25c-.46,.19-.94,.33-1.43,.42-.44,.08-.9,.12-1.35,.12-.65,0-1.3-.12-1.89-.4-.55-.25-1.01-.68-1.33-1.19-.33-.54-.48-1.2-.48-2,0-.65,.16-1.29,.48-1.85,.33-.57,.82-1.04,1.4-1.36,.62-.34,1.35-.51,2.22-.51h.18c.08,.02,.17,.02,.27,.03v-2.78l.09-.1h1.78l.09,.06v8.38c0,.16,0,.33,.02,.53,.02,.18,.03,.36,.04,.51l-.09,.14Zm-7.84,.26c0,.1-.04,.14-.12,.14h-1.72c-.08,0-.11-.04-.11-.14v-9.01l.12-.11h1.71l.11,.09v9.04Zm9.7-14.39h-13.61c-2.06,0-3.73,1.67-3.73,3.73v13.09c0,2.07,1.67,3.73,3.73,3.73h13.61c2.06,0,3.73-1.67,3.73-3.73V14.61c0-2.06-1.67-3.73-3.73-3.73"/></g><text class="cls-43" transform="translate(117.67 41.94)"><tspan class="cls-51" x="0" y="0">I</tspan><tspan class="cls-17" x="2.03" y="0">n</tspan><tspan class="cls-36" x="6.29" y="0">D</tspan><tspan class="cls-33" x="11.37" y="0">e</tspan><tspan class="cls-22" x="15.24" y="0">s</tspan><tspan class="cls-51" x="18.34" y="0">ig</tspan><tspan x="24.6" y="0">n</tspan></text></g></g></g><g><text class="cls-1" transform="translate(238.37 5.17)"><tspan x="0" y="0">Avanzado</tspan></text><g><g><g><path d="M256.95,19.86c-.34,0-.69,.07-.99,.23-.3,.15-.55,.37-.75,.65-.19,.28-.29,.66-.29,1.12,0,.31,.04,.61,.15,.9,.09,.24,.22,.45,.4,.62,.17,.16,.37,.28,.6,.35,.24,.08,.48,.11,.73,.11,.13,0,.26,0,.37-.02,.11,0,.21,0,.32-.04v-3.87l-.24-.04c-.1,0-.19-.02-.29-.02"/><path d="M259.4,25c-.46,.19-.94,.33-1.43,.42-.45,.08-.9,.12-1.35,.12-.65,0-1.3-.12-1.89-.4-.55-.25-1.01-.68-1.33-1.19-.33-.54-.48-1.2-.48-2,0-.65,.16-1.29,.48-1.85,.33-.57,.82-1.04,1.4-1.36,.61-.34,1.35-.51,2.22-.51h.18c.08,.02,.17,.02,.27,.03v-2.78l.09-.1h1.78l.09,.06v8.38c0,.16,0,.33,.02,.53,.02,.18,.03,.36,.04,.51l-.09,.14Zm-6.74,.36h-2.01c-.14,0-.24,0-.3-.1-.18-.37-.38-.73-.56-1.1-.18-.36-.39-.73-.6-1.11-.21-.38-.42-.76-.63-1.14h-.02c-.18,.38-.39,.76-.59,1.13-.2,.38-.4,.76-.6,1.12-.2,.37-.4,.75-.61,1.11-.03,.09-.1,.1-.2,.1h-1.93l-.06-.03,.02-.1,2.73-4.48-2.66-4.51-.02-.09,.09-.04h1.99l.12,.02,.09,.08c.17,.38,.36,.75,.56,1.13,.21,.38,.41,.75,.63,1.12,.21,.37,.4,.74,.59,1.12h.02c.18-.39,.38-.76,.57-1.13,.19-.37,.4-.74,.6-1.11,.2-.37,.39-.75,.59-1.11l.05-.09,.11-.02h1.85l.1,.06-.03,.06-2.63,4.35,2.81,4.61,.02,.11-.1,.02Zm6.17-14.48h-13.61c-2.06,0-3.73,1.67-3.73,3.73v13.09c0,2.07,1.67,3.73,3.73,3.73h13.61c2.06,0,3.73-1.67,3.73-3.73V14.61c0-2.06-1.67-3.73-3.73-3.73"/></g><text class="cls-43" transform="translate(247.53 41.94)"><tspan class="cls-47" x="0" y="0">X</tspan><tspan class="cls-14" x="4.32" y="0">D</tspan></text></g><g><g><path d="M215.05,24.52c-.24,.35-.59,.62-.98,.78-.43,.18-.96,.28-1.59,.28-.4,0-.8-.04-1.19-.11-.31-.05-.62-.15-.9-.28l-.1-.17v-1.53l.04-.08h.08c.34,.21,.7,.35,1.09,.44,.33,.09,.68,.13,1.04,.13,.33,0,.57-.04,.73-.12,.14-.06,.24-.21,.24-.37,0-.12-.07-.24-.21-.35-.14-.11-.43-.25-.86-.41-.45-.16-.86-.37-1.25-.63-.27-.19-.5-.45-.67-.75-.14-.28-.21-.59-.2-.9,0-.38,.11-.74,.3-1.06,.22-.35,.54-.63,.92-.81,.41-.21,.93-.31,1.55-.31,.36,0,.73,.03,1.09,.08,.26,.04,.52,.11,.76,.2l.09,.08,.02,.1v1.43l-.04,.09h-.16c-.26-.14-.55-.24-.84-.3-.32-.07-.65-.11-.98-.11-.18,0-.36,.02-.53,.06-.11,.03-.21,.09-.27,.18l-.07,.24,.09,.23c.08,.1,.18,.18,.3,.24,.2,.11,.41,.2,.62,.29,.47,.16,.93,.38,1.35,.64,.29,.18,.53,.43,.69,.73,.14,.28,.21,.59,.2,.9,0,.41-.11,.83-.34,1.17m-6.23-3.42c-.35,.49-.84,.86-1.41,1.07-.6,.22-1.26,.3-1.98,.3-.21,0-.35,0-.44,0-.09,0-.21,0-.38,0v2.82l-.1,.12h-1.7l-.11-.11v-9.04l.09-.1c.15,0,.29,0,.49,0,.21,0,.43,0,.67-.02,.24,0,.49,0,.76-.02,.27,0,.54,0,.8,0,.72,0,1.32,.09,1.81,.27,.44,.15,.84,.4,1.18,.72,.28,.28,.5,.62,.64,1,.13,.37,.2,.75,.2,1.14,0,.76-.18,1.38-.53,1.87m6.49-10.23h-13.61c-2.06,0-3.73,1.67-3.73,3.73v13.09c0,2.07,1.67,3.73,3.73,3.73h13.61c2.06,0,3.73-1.67,3.73-3.73V14.61c0-2.06-1.67-3.73-3.73-3.73"/><path d="M206.61,18.01c-.33-.13-.68-.18-1.04-.17-.23,0-.43,0-.6,0-.18,0-.3,0-.36,0v2.95c.12,0,.24,.02,.34,.02h.46c.34,0,.68-.05,1.01-.16,.28-.08,.53-.25,.72-.47,.18-.22,.27-.52,.27-.91,0-.27-.06-.54-.2-.78-.15-.23-.36-.4-.61-.5"/></g><text class="cls-43" transform="translate(191.07 41.94)"><tspan class="cls-63" x="0" y="0">P</tspan><tspan class="cls-57" x="4.01" y="0">h</tspan><tspan class="cls-23" x="8.27" y="0">o</tspan><tspan class="cls-49" x="12.47" y="0">t</tspan><tspan class="cls-56" x="15.09" y="0">os</tspan><tspan class="cls-57" x="22.4" y="0">ho</tspan><tspan x="30.88" y="0">p</tspan></text></g><g><g><path d="M294.24,22.34c-.09-.27-.17-.54-.26-.81-.09-.27-.17-.53-.24-.78-.07-.25-.13-.47-.19-.68h-.02c-.08,.38-.18,.76-.3,1.13-.13,.42-.26,.86-.4,1.3-.12,.45-.26,.86-.39,1.23h2.23c-.05-.18-.12-.4-.2-.63-.08-.24-.16-.49-.24-.76"/><path d="M300.7,19.64c-.2,.21-.5,.33-.8,.31-.29,0-.57-.11-.78-.31-.2-.22-.31-.51-.3-.81,0-.3,.1-.58,.32-.78s.49-.31,.78-.31c.34,0,.61,.1,.8,.31,.19,.21,.3,.49,.29,.78,0,.3-.1,.59-.31,.81m.18,7.93c0,.1-.03,.14-.11,.14h-1.72l-.13-.14v-6.76l.12-.12h1.74l.11,.12v6.76Zm-2.99,.13h-1.84l-.14-.1-.72-2.09h-3.27l-.67,2.06-.17,.12h-1.65c-.1,0-.12-.05-.1-.16l2.83-8.14c.03-.09,.05-.18,.09-.29,.03-.18,.05-.38,.05-.57l.07-.1h2.27l.11,.07,3.21,9.05c.03,.1,0,.14-.09,.14m4.44-14.52h-13.61c-2.06,0-3.73,1.67-3.73,3.73v13.09c0,2.07,1.67,3.73,3.73,3.73h13.61c2.06,0,3.73-1.67,3.73-3.73v-13.09c0-2.06-1.67-3.73-3.73-3.73"/></g><text class="cls-43" transform="translate(279.74 41.94)"><tspan class="cls-51" x="0" y="0">I</tspan><tspan class="cls-53" x="2.03" y="0">ll</tspan><tspan class="cls-3" x="6.01" y="0">u</tspan><tspan class="cls-18" x="10.21" y="0">s</tspan><tspan class="cls-21" x="13.4" y="0">t</tspan><tspan class="cls-62" x="16.07" y="0">r</tspan><tspan class="cls-15" x="18.75" y="0">a</tspan><tspan class="cls-49" x="22.44" y="0">t</tspan><tspan class="cls-57" x="25.07" y="0">o</tspan><tspan class="cls-14" x="29.29" y="0">r</tspan></text></g></g></g><text class="cls-1" transform="translate(5.03 127.89)"><tspan x="0" y="0">Básico</tspan></text><rect class="cls-32" x="4.17" y="130.27" width="148.6" height="1"/><g><g><path class="cls-2" d="M172.25,150.16h-.09c-.26,.59-.52,1.17-.8,1.79,.62,.1,1.18,.05,1.74,.05l.05-.08c-.3-.59-.6-1.17-.9-1.76m6.5,4.08c.06,.32-.09,.48-.39,.48-.6,0-1.19,0-1.79,0-.61,0-1.22-.03-1.83-.04-.38,0-.76,.01-1.14,.02-.39,0-.45-.07-.38-.49,.28-.05,.57-.1,.89-.16-.01-.09,0-.17-.04-.23-.15-.33-.32-.65-.48-.97-.07-.15-.19-.21-.36-.21-.65,0-1.31,0-1.96,0-.16,0-.26,.06-.32,.2-.12,.31-.25,.61-.37,.92-.02,.07-.03,.14-.05,.24,.29,.07,.57,.13,.84,.2,.08,.36-.06,.55-.37,.52-.53-.04-1.06-.03-1.59-.04-.38,0-.44-.08-.4-.51,.52-.02,.68-.44,.87-.82,.11-.22,.21-.44,.31-.66,.66-1.4,1.32-2.8,1.99-4.2,.03-.07,.07-.13,.13-.22,.16,0,.33-.03,.49,.01,.1,.02,.21,.13,.26,.22,.38,.73,.75,1.47,1.12,2.21,.43,.87,.86,1.74,1.3,2.61,.09,.18,.21,.34,.3,.51,.11,.19,.28,.28,.48,.33,.22,.06,.4-.04,.45-.26,.04-.17,.07-.34,.07-.52,0-1.39,0-2.78-.01-4.17,0-.31-.08-.63-.14-.94-.02-.13,0-.21,.12-.28,.6-.32,1.19-.65,1.79-.96,.06-.03,.15,0,.23,0,0,.09,.01,.2-.03,.26-.07,.11-.17,.2-.27,.28-.19,.15-.27,.35-.27,.57-.02,1.76-.03,3.53-.05,5.29,0,.37,.12,.64,.51,.75l.06,.04Z"/><path class="cls-2" d="M196.92,151.12c.13-.12,.23-.23,.35-.32,.36-.27,.71-.54,1.09-.78,.21-.13,.44-.12,.65,.04,.34,.27,.7,.53,.83,.96,.08,.26,.1,.55,.1,.82-.01,.54-.06,1.08-.1,1.62-.02,.32,.05,.57,.39,.68l.14,.07c.08,.31-.08,.5-.38,.49-.56-.02-1.12-.01-1.68-.02-.29,0-.35-.08-.32-.36l.02-.03c.51-.14,.53-.58,.56-.98,.04-.51,.03-1.03,.02-1.55,0-.34-.21-.62-.48-.68-.11-.02-.26-.01-.35,.05-.44,.29-.7,.69-.72,1.24-.01,.4-.04,.8-.05,1.19,0,.33,.15,.54,.47,.63l.07,.05c.08,.32-.07,.49-.39,.48-.57-.02-1.13-.01-1.7-.02-.29,0-.36-.09-.33-.39l.12-.08c.33-.13,.45-.39,.46-.72,0-.56,.02-1.12,0-1.68-.01-.19-.11-.4-.23-.55-.23-.3-.43-.3-.73-.05-.32,.27-.52,.61-.56,1.03-.04,.41-.04,.83-.05,1.25-.01,.35,.13,.59,.47,.7l.07,.05c.06,.34-.09,.49-.41,.47-.57-.02-1.13-.01-1.7-.02-.28,0-.34-.07-.32-.37l.02-.03c.49-.15,.53-.56,.55-.97,.03-.65,.05-1.31-.08-1.96-.04-.22-.13-.44-.2-.66v-.13c.22-.14,.47-.28,.72-.41,.11-.06,.23-.1,.34-.16,.23-.11,.43-.02,.47,.23,.03,.16,0,.32,0,.48,0,.09,0,.18,0,.27l.06,.03c.08-.07,.16-.14,.24-.2,.32-.25,.63-.51,.97-.72,.42-.27,.75-.19,1.1,.25,.15,.19,.26,.41,.39,.61,.02,.04,.05,.08,.11,.16"/><path d="M151.81,153.05l.11,.09c.67,.43,1.4,.58,2.19,.52,.29-.02,.55-.25,.57-.53,.02-.26,0-.52-.06-.77-.05-.24-.2-.45-.42-.6-.3-.21-.58-.21-.86,.02-.36,.29-.72,.59-1.08,.89-.15,.12-.29,.25-.46,.39m3.27-2.74c-.31-.18-.6-.35-.88-.52-.4-.23-.84-.39-1.31-.41-.53-.03-1.01,.11-1.37,.53-.15,.18-.21,.38-.18,.6,.05,.43,.46,1.11,.88,1.4,.6-.51,1.21-1.02,1.81-1.53,1.07,.09,2.05,.88,1.92,2.09-.04,.38-.21,.71-.43,1-.42,.56-.92,1.04-1.6,1.26-.16,.05-.34,.08-.51,.08-.97,0-1.91-.14-2.8-.54-.04-.02-.07-.04-.16-.09,.24-.41,.48-.8,.74-1.22-.09-.1-.18-.21-.28-.32-.32-.35-.65-.71-.83-1.17-.2-.52-.12-1.01,.21-1.45,.45-.63,1.08-1.04,1.75-1.39,.4-.21,.8-.39,1.26-.43,.34-.03,.66,.03,.97,.15,.25,.09,.49,.21,.74,.31,.21,.09,.3,.06,.41-.14,.09-.18,.18-.35,.29-.57,.12,.07,.22,.13,.32,.2-.25,.78-.51,1.5-.94,2.16"/><path class="cls-2" d="M200.17,150.8c.68-.43,1.39-.75,2.14-1.03,.05,.06,.11,.12,.18,.21-.1,.09-.17,.17-.26,.23-.43,.31-.49,.49-.26,.97,.36,.73,.73,1.46,1.09,2.19l.1,.14c.07-.06,.15-.1,.19-.15,.27-.33,.5-.68,.59-1.11,.08-.37-.02-.68-.33-.9-.16-.12-.33-.22-.5-.32-.25-.16-.29-.42-.06-.6,.21-.17,.45-.31,.68-.44l.2-.02c.53,.21,.97,.55,1.2,1.08,.21,.49,.09,.97-.16,1.4-.21,.34-.46,.67-.74,.95-.65,.63-1.34,1.22-2.02,1.83-.14,.13-.29,.25-.43,.37l.02,.05c.08,0,.16,.01,.24,0,.74-.02,1.48-.05,2.22-.06,.18,0,.36,.02,.54,.04,.27,.04,.42,.25,.37,.52-.03,.14-.08,.29-.15,.42-.22,.38-.46,.74-.69,1.11-.06,.1-.12,.19-.18,.29-.15-.09-.21-.14-.27-.18,.09-.35,.38-.61,.35-1.02-.23-.02-.45-.05-.67-.06-.87-.02-1.73,.05-2.58,.23-.27,.06-.48,.21-.57,.48l-.11,.21c-.17,.01-.31-.04-.26-.21,.13-.51,.18-1.06,.54-1.47,.24-.28,.54-.49,.82-.74,.24-.21,.48-.42,.75-.66-.65-1.25-1.29-2.49-1.95-3.76"/><path d="M157.58,150.96c0,.35,.11,.68,.3,.97,.45,.69,1.08,1.18,1.82,1.53,.31,.15,.62,.21,.93,0l.13-.07c.55-.31,.79-.83,.92-1.4,.13-.56,.11-1.11-.1-1.65-.13-.33-.32-.64-.66-.78-.59-.24-1.2-.38-1.84-.29-.97,.13-1.5,.87-1.51,1.69m5.44-.44c-.07,.95-.21,1.8-.72,2.55-.39,.57-.91,.98-1.57,1.22-.26,.1-.53,.18-.8,.25-.52,.15-1,.07-1.48-.2-.55-.31-1.07-.66-1.48-1.15-.62-.75-.86-1.59-.53-2.54,.16-.46,.47-.84,.83-1.15,.51-.43,1.06-.8,1.69-1.04,.62-.24,1.27-.34,1.92-.22,.54,.1,1.03,.34,1.4,.76,.28,.31,.56,.64,.65,1.07,.03,.17,.05,.34,.07,.45"/><path class="cls-2" d="M185.33,146.99c.14,.12,.13,.23,.03,.33-.07,.08-.14,.16-.23,.22-.25,.19-.32,.45-.33,.74-.01,.41-.02,.81-.03,1.21-.02,.39-.05,.77-.07,1.16,0,.12,0,.24,0,.36l.05,.02c.17-.15,.33-.31,.51-.44,.28-.2,.57-.4,.87-.57,.21-.12,.43-.11,.63,.05,.43,.33,.85,.67,.94,1.25,.03,.2,.02,.41,0,.61-.03,.53-.07,1.06-.1,1.58-.02,.27,.05,.5,.33,.6l.19,.1c.1,.29-.06,.51-.35,.5-.57-.01-1.14-.02-1.72-.02-.29,0-.36-.07-.32-.38l.02-.03c.53-.14,.52-.61,.55-1,.05-.51,.03-1.03,.02-1.55,0-.31-.23-.57-.49-.67-.13-.05-.24-.03-.35,.05-.35,.24-.61,.55-.67,.97-.06,.46-.09,.93-.11,1.39-.01,.37,.15,.64,.53,.72,.11,.3-.03,.52-.31,.51-.6,0-1.21-.02-1.81-.03-.08,0-.17-.02-.26-.03-.02-.12-.04-.23-.05-.34l.2-.12c.21-.09,.33-.24,.33-.47,.02-.74,.05-1.48,.06-2.22,0-.69,0-1.38-.04-2.07-.02-.39-.09-.78-.14-1.17-.02-.13,0-.21,.12-.28,.6-.32,1.2-.65,1.81-.97l.15-.04Z"/><path d="M168.62,152.45c.27-.06,.38,.02,.36,.26-.04,.46-.1,.92-.15,1.37-.02,.2-.06,.4-.08,.61-.08,.01-.14,.02-.2,.02-1.61,0-3.21-.01-4.82-.02h-.08c-.4,0-.46-.07-.4-.5,.18-.04,.35-.08,.54-.11,.24-.04,.36-.18,.37-.42,.01-.2,.04-.41,.04-.61,0-1.13,0-2.27-.02-3.4,0-.49-.13-.65-.59-.77-.11-.03-.21-.07-.36-.11,.05-.16,.09-.31,.13-.46h3.23c.02,.16,.04,.31,.06,.48-.17,.03-.3,.06-.44,.09-.4,.1-.48,.18-.5,.6-.01,.19-.01,.39-.01,.58,0,1.05,0,2.09,0,3.14,0,.11-.01,.23,.03,.33,.07,.19,.21,.33,.42,.34,.58,.03,1.16,.04,1.72-.11,.3-.08,.42-.33,.51-.59,.09-.24,.17-.49,.24-.73"/><path class="cls-2" d="M189.67,151.95c.41-.21,.79-.39,1.18-.59-.11-.28-.32-.4-.55-.48-.33-.12-.36-.1-.53,.2-.13,.25-.19,.52-.11,.86m2.24,1.24c.09,.16,.15,.27,.22,.39-.13,.13-.23,.27-.36,.37-.33,.25-.64,.52-1,.7-.57,.29-1.13,.18-1.62-.23-.75-.64-1.03-1.91-.62-2.81,.18-.39,.46-.7,.79-.95,.33-.25,.67-.49,1.02-.71,.24-.15,.51-.14,.74,.01,.31,.21,.61,.45,.89,.7,.2,.18,.19,.43,.12,.66l-.14,.13c-.48,.22-.97,.43-1.45,.65-.25,.11-.49,.23-.77,.37,.04,.15,.05,.28,.11,.4,.18,.41,.45,.73,.93,.8,.25,.03,.47-.04,.67-.18,.15-.1,.3-.19,.47-.3"/><path class="cls-2" d="M181.75,151.73c-.24-.27-.48-.54-.73-.8-.07-.07-.19-.08-.29-.11-.18,.09-.26,.26-.29,.42-.14,.66-.14,1.31,.24,1.91,.3,.47,.79,.65,1.27,.45,.11-.05,.21-.13,.32-.19,.09-.06,.18-.11,.3-.2,.09,.12,.18,.23,.27,.36-.15,.16-.27,.3-.4,.42-.36,.34-.74,.66-1.23,.78-.75,.18-1.32-.15-1.73-.75-.49-.72-.57-1.51-.3-2.32,.09-.26,.3-.5,.49-.72,.36-.39,.78-.73,1.25-.99,.34-.18,.66-.19,.96,.04,.28,.21,.54,.43,.8,.66,.18,.16,.16,.38,.12,.59l-.1,.13c-.3,.12-.6,.24-.9,.36h-.11l.03-.04Z"/><path d="M165.38,155.4c.02,.08,.06,.16,.05,.23-.05,.5-.24,.94-.53,1.34-.24,.33-.6,.4-.98,.41-.39,0-.76-.09-1.12-.26-.91-.43-1.83-.86-2.75-1.26-.28-.12-.59-.2-.89-.27-.31-.07-.59,.01-.83,.22-.12,.1-.25,.18-.37,.27l-.06-.04c.03-.08,.05-.17,.09-.23,.24-.34,.51-.64,.89-.84,.29-.16,.58-.16,.87-.05,.99,.38,1.97,.77,2.95,1.16,.46,.18,.93,.35,1.4,.52,.3,.11,.52,.02,.67-.27,.12-.21,.22-.43,.33-.65,.06-.1,.13-.2,.19-.3l.08,.02Z"/></g><text class="cls-43" transform="translate(157.35 172.26)"><tspan class="cls-37" x="0" y="0">S</tspan><tspan class="cls-31" x="3.81" y="0">Q</tspan><tspan class="cls-50" x="9.02" y="0">L</tspan><tspan class="cls-28" x="12.83" y="0">A</tspan><tspan class="cls-30" x="17.46" y="0">l</tspan><tspan class="cls-52" x="19.49" y="0">c</tspan><tspan class="cls-46" x="22.96" y="0">h</tspan><tspan class="cls-64" x="27.23" y="0">e</tspan><tspan class="cls-9" x="31.11" y="0">m</tspan><tspan x="37.22" y="0">y</tspan></text></g><g><g><path d="M228.17,142.91c.51,0,.92,.41,.92,.92s-.41,.92-.92,.92-.92-.41-.92-.92,.41-.92,.92-.92m2.83-1.62c-5.37,0-5.04,2.33-5.04,2.33v2.41h5.13v.73h-7.17s-3.44-.39-3.44,5.03,3,5.23,3,5.23h1.79v-2.52s-.1-3,2.95-3h5.09s2.86,.05,2.86-2.76v-4.64s.43-2.81-5.18-2.81"/><path d="M233.98,160.72c-.51,0-.92-.41-.92-.92s.41-.92,.92-.92,.92,.41,.92,.92-.41,.92-.92,.92m-2.83,1.62c5.37,0,5.04-2.33,5.04-2.33v-2.41h-5.13v-.73h7.17s3.44,.39,3.44-5.03-3-5.23-3-5.23h-1.79v2.52s.1,3-2.95,3h-5.09s-2.86-.05-2.86,2.76v4.64s-.43,2.81,5.18,2.81"/></g><text class="cls-43" transform="translate(219.51 172.26)"><tspan class="cls-19" x="0" y="0">P</tspan><tspan class="cls-29" x="4.22" y="0">y</tspan><tspan class="cls-3" x="8.1" y="0">t</tspan><tspan class="cls-64" x="10.76" y="0">ho</tspan><tspan x="19.24" y="0">n</tspan></text></g><g><g><path d="M268.24,147.22c.28-.49-1.13-.66-.18-.17,.09,.03,.07,.21,.18,.17m-7.69-4.15c-.6-.78,1.13,.13,.52-.69-.51-.41-1.01,.46-.52,.69m1.26,.98c.85-.11-.22-.37-.17,0h.17Zm.68,1.34c.53,.01-.23-.71,.4-.38-.1-.34-.73-.4-1.04-.54-.17,.31,.35,.92,.64,.92m-1.65-.07c.45-.34,1.56,.2,.85-.34-.07-.06-1.56,.41-.85,.34m-.46,.89c.79-.27,1.87-.57,2.25,.13-.38-.46-.15-.91,.21-.24,.51,.68,.76-.31,.43-.53,.38,.47,.81,.69,.25,.03,.6-.72-1.2,.1-1.61,.09-.2,.09-2.04,.47-1.53,.53m.62,3.5c.44-.03,.69-.49-.09-.46-1.21-.12,1.07,.41-.16,.26-.16,.11,.23,.23,.24,.2m18.88,11.99c.55,0,1.66-.17,.47-.17-.19,.03-1.09,.02-.47,.17m-14.77-15.08c.23-.6,.89-.24,.11-.12,.02,.06-.02,.31-.11,.12m-2.84,.35c.36-.44,2.06-.28,.82-.04-.33-.25-.59,.15-.82,.04m-.75,.34c.03-.4,1,.21,.16,.14l-.16-.14Zm-.48,.42c.24-.88,1.28,.72,.39,.12-.11-.08-.28-.14-.39-.12m-2.45,1.25c-.09-.53-.08-1.45,.8-1.14-1.17,.23,.81,1.46,.56,.49,.49,.03,.96-.29,.7,.19,.97-.11,1.64-.95,2.58-.83,.73-.1,1.53-.17,2.32-.46,.65-.05,1.27-.74,.91-1.16-.88-.07-1.8,.04-2.78,.23-1.08,.22-2.06,.65-3.15,.83-1.06,.14,.21,.39-.09,.45-.55,.19,.66,.32-.07,.53-.45-.09-.92-.24-.73-.72-1.02,.13-1.91,.55-1.11,1.59h.06Zm1.58,1.77c.51-.2-.92-.41-.1-.04l.1,.04Zm15.67,10.94c.5-.1,1.65,.26,1.84-.13-.61-.01-2.12-.43-2.19,.1l.13,.02h.22Zm-15.91-8.77c.09-.38-.84-2.07-.44-.85,.14,.26,.13,.74,.44,.85m2.32,1.83c.51,.11,2.03,1.25,1.13,.08-.46-.14-.18-1.26-.65-1.06,.32,.53,.26,.75-.4,.42-.83-.4-.47,.2-.3,.37-.22,.05,.29,.19,.23,.2m11.64,7.42c.69-.5-.42-.1-.14,.09l.14-.09Zm-.87-.24c.54-.35-.12-.29-.1,.03l.1-.03Zm-12.5-7.51c-.52-.74-.32-1.07-.82-1.67-.09-.46-.86-1.51-.39-.4,.42,.65,.55,1.65,1.21,2.07m5.86,3.94c.36,.32,1.64,.23,.43,.04-.18-.26-1.13-.2-.43-.04m5.24,3.36c.32-.31,.01,.49,.53-.07,0-.41-.02-.65-.6-.16-.16,.09-.23,.47,.06,.23m-7.58-4.45c.33,.25,1.26,.71,.48,.09,.26-.31-.51-.47-.25-.68-.65-.4-.51-.36-.06-.35-.78-.35,.11-.32,.07-.5-.3-.06-1.49-.53-.79,.04-.71-.36-.17,.14-.39,.08-.73-.2,.65,.56-.12,.37,.42,.33,1.13,.85,.18,.35-.12,.18,.68,.45,.88,.59m2.15,1.43c.61,.16,.6-.09,.05-.17-.29-.27-1.23-.57-.39-.03,.05,.14,.23,.14,.34,.2m-.88-9.09c-.21-.37,.27-1.65,.32-.86-.22,.62-.06,.96,.09,.13,.29-.65-.06,1.28-.41,.72m-2.66,.44c.17-.24-.44-1.1,.09-.31,.23,.18,.66,.3,.28,.38,.6,.53-.15,.14-.37-.07m3.2,2.03c.04-.81,.24-.49,0,.12v-.12Zm-3.5-1.74c.41-.09,1.69,.72,.51,.23-.13-.14-.41-.08-.51-.23m-.11,.36c-.69-.95,1.99,.96,.44,.24-.16-.04-.36-.06-.44-.24m2.85,2.09c-.46-.28-.12-1.95,.04-.81,.45-.15-.02,.59,.31,.58-.05,.47-.2,.63-.35,.22m-3.06-1.78c-1.07-.95,1.34,.5,.17,.18l-.17-.18Zm-.22,.56c-.37-.37-.63-.7,.02-.23,.25,.01-.56-.76,.06-.25,.65,.12,.32,1.06-.08,.47m1.61,1.35c-.15-.25-.41-1-.33-1.23,.07,.37,.79,1.6,.35,.51-.48-.91,.58,.3,.69,.53,.05,.23-.3-.06-.06,.47-.43-.61-.26,.33-.65-.27m3.19,2.13c-.35-.78,.25-.42,.08,.13l-.08-.13Zm1.86,3.07c-.29-.3-.37-.87-.05-.38,.16,.07,.52,.93,.05,.38m.98,2.76c.76-.46,.51,1.06,1.29,.13,.77-.56-.66,.69,.28,.1,.68-.46,1.7,.22,2.34,.44,.46-.02,.91,.4,1.38,.14,.91-.24-1.77-.36-1.07-.8-.83,.24-1.44-.29-1.85-.82-.93-.21-2.01-.69-2.47-1.52-.19-.31,.27,.04-.16-.46-.56-.5-.84-1.07-1.22-1.67-.45-.24-.5-.95-.55-.02,0-.58-.54-.98-.68-.81,0-.56,.59-.28,.17-.69-.09-.58-.38-1.19-.47-1.85-.14-.32-.02-.99-.46-.28-.16,.76-.05-.93,.2-.38,.33-.57-.12-.5-.14-.42,.22-.48,.14-1.16-.06-.9,.11-.51,.18-1.87-.17-1.63,.21-.53,.41-2.43-.52-1.71-.38,0-1.03,.14-1.34,.29,.97,.53-.1,.19-.49,.11-.05,.49-.44,.28-.93,.29,.78,.1-.38,.8-.83,.53-.58,.28,.5,.97,.01,1.18,.06,.32-.89-.12-.82,.63-.56-.24-.08,.89,.2,.51,.96,.26,.68,.85,.7,1.41-.16,.33-.77-.77-.14-.72-.5-.81-.55-.29-.97,.08-.1,.03,1.06,.54,.33,.79,.64,.1,.66,.66,.79,1.01,.38,.4,.3-.44,.77,.04-.29-.43-1.54-1.21-.53-.96,0-.43-.18-.78,.13-.77,.31-.55-.32,1.36,.37,.66,.19-.08,.24-.55,.58,.04,.5,.49,.18,.84-.52,.4,.13,.43,.94,.58,.79,1.24,.16,.59,.39,.37,.59,.34,.15,.57,.24,.15,.25-.12,.71,.15,.54,.57,.77,.86,.49,.22-.7-1.5,.14-.52,.88,.8,.33,1.13-.46,1,.5-.04,.66,.68,1.29,.65,.57,.27,.96,1.32-.03,.88-.34-.31-1.55-.69-.56-.1,.91,.42,1.64,.68,2.52,1.21,.63,.45,.9,.97,1.14,1.07-.53,.25-1.6-.2-.81-.34-.49-.09-1.05-.34-.58,.28,.4,.34,1.42,.3,1.61,.34-.16,.34-.42,.37,0,.4-.48,.25,.15,.29,.2,.44m-2.83-1.74c.81,.1-.97-.55-.18-.06l.18,.06Zm0,.59c1.12,.32-.94-.71-.28-.12l.15,.07,.13,.05Zm-2.22-1.18c.46,.35,1.85,.04,.7-.21-.52-.28-1.7-.47-.9,.17l.19,.04Zm4.32,3.5c.39,.25,2.28,.54,1.1,.1-.2,.04-2.19-.56-1.1-.1m-4.2-1.77c.95,.35,0-.67-.44-.61-.19-.34-.74-.55-.36-.73-.69,.24-.73-.91-1.05-.75-.73-.23-.29-1.05-1.16-1.55-.08-.53-.87-.99-1.12-1.79-.11-.41-.89-1.59-.41-.49,.41,1.05,1.12,1.96,1.72,2.86,.46,.86,1.01,1.76,1.85,2.29,.28,.27,.56,.69,.96,.78m1.87,1.32c.98,.43,1.95,.87,3.02,1.01,1.71,.24,3.48,.6,5.19,.27-.78-.35-1.58,.14-2.35-.25-.93,.2-1.93-.05-2.87-.17-1.07-.48-2.23-.81-3.24-1.43-1.26-.46,.65,.59,.99,.67,.79,.45-.86-.23-1.1-.41-.66-.37-.74-.29-.07,.08,.14,.08,.27,.16,.41,.23m-1.59-.69c-.9-.71-1.86-1.38-2.51-2.34-1.38-1.68-2.44-3.63-3.17-5.68-.44-1.33-.59-2.76-1.15-4.04-.59-.93,.1-1.95,1.12-2.24,.45-.09,1.25-.51,.29-.21-.86,.63-.95-.58-.06-.65,.6-.08,.83-.57,.62-1.02-.65-.42,1.57-.89,.45-1.52-1.16-1.25,1.63-1.5,.94-.07-.16,1.1,1.95-.2,1.46,1.07,.5,.61,1.87,.14,1.83,.99,.73,.05,.98,.66,1.66,.71,.71,.32,1.99,.57,2.23,1.37-.7,.56-2.33-1.15-2.4,.39,.21,2.27,.16,4.61,.99,6.77,.39,1.31,1.35,2.34,2.21,3.36,.82,1,1.94,1.7,3.07,2.29,1,.47,2.07,.78,3.16,.98,.44-.34,1.22-1.59,1.91-1.06,.03,.59-1.36,1.24-.07,1.18,.76-.23,1.29,.59,1.92-.15,.58,.69,2.4-.44,1.99,.96-.56,.36-1.37,.14-1.93,.64-.92-.46-1.65,.41-2.67,.3-1.13,.2-2.28,.28-3.43,.29-1.88-.15-3.8-.21-5.59-.87-1.01-.29-1.99-.87-2.88-1.44"/><path d="M281.22,143.86c-.1,.39-.16,1.04-.18,1.95,0,.18-.08,.27-.24,.27s-.27-.08-.34-.23c-.17-.42-.34-.72-.49-.88-.19-.2-.43-.32-.74-.36-.33-.05-1.15-.08-2.47-.08-.3,0-.5,.03-.59,.1-.06,.04-.09,.13-.09,.26v3.93c0,.13,.08,.2,.25,.19,.52,0,1.26-.04,2.24-.1,.19-.02,.32-.09,.39-.19,.07-.1,.13-.36,.2-.78,.04-.23,.18-.32,.41-.27,.2,.04,.28,.13,.25,.27-.16,.79-.21,1.81-.16,3.07,0,.15-.09,.23-.29,.24-.16,.02-.26-.07-.3-.26-.15-.72-.43-1.11-.84-1.16-.41-.05-1.07-.07-1.99-.07-.1,0-.16,.04-.16,.11v3.91c0,.29,.11,.49,.32,.59,.17,.09,.53,.16,1.08,.23,.28,.03,.41,.15,.37,.37-.03,.19-.29,.27-.76,.23-1.37-.11-2.5-.1-3.39,.02-.25,.03-.37-.07-.37-.3,0-.15,.12-.24,.37-.26,.57-.06,.85-.56,.85-1.49v-7.43c0-.38-.07-.68-.2-.88-.14-.21-.39-.39-.76-.56-.23-.1-.32-.25-.26-.43,.03-.11,.08-.17,.14-.18,.06-.02,.21,0,.46,.04,.36,.06,1.22,.09,2.58,.09,1.6,0,2.98-.04,4.14-.1,.39-.02,.58,0,.58,.1v.07Z"/><path d="M286.86,154.89c0,.23-.13,.33-.39,.3-.8-.08-1.79-.06-2.97,.04-.24,.02-.38,.02-.44-.02-.05-.04-.08-.13-.08-.29,0-.14,.16-.26,.47-.35,.32-.1,.47-.38,.47-.86v-7.85c0-.47-.07-.81-.2-1.03-.14-.22-.37-.39-.72-.51-.18-.06-.27-.15-.27-.27,0-.17,.13-.3,.39-.39,.39-.13,.8-.32,1.22-.59,.35-.21,.57-.31,.66-.31,.22,0,.32,.15,.32,.44,0-.02-.01,.27-.04,.87-.02,.57-.02,1.14-.02,1.69l.04,7.75c0,.35,.09,.61,.26,.77,.17,.16,.47,.26,.89,.32,.26,.03,.39,.13,.39,.29"/><path d="M292.1,152.33c0-.14-.03-.24-.1-.29-.07-.04-.19-.05-.34-.03-1.39,.25-2.09,.7-2.09,1.36s.36,1,1.08,1c.29,0,.59-.05,.89-.16,.36-.13,.54-.28,.54-.46l.02-1.42Zm2.67,1.98c0,.12-.22,.31-.66,.55-.44,.25-.8,.37-1.06,.37-.22,0-.42-.11-.6-.33-.17-.22-.3-.33-.36-.33-.05,0-.33,.12-.83,.36-.5,.24-1,.36-1.5,.36-.47,0-.87-.14-1.19-.42-.35-.31-.52-.72-.52-1.25,0-1,1.15-1.72,3.44-2.15,.39-.07,.59-.23,.6-.48l.02-.56c.03-.95-.39-1.42-1.26-1.42-.25,0-.49,.22-.71,.67-.22,.45-.54,.69-.96,.72-.47,.05-.71-.15-.71-.6,0-.28,.35-.6,1.06-.97,.74-.39,1.45-.58,2.13-.58,1.18,0,1.76,.56,1.74,1.67l-.03,3.58c0,.38,.15,.56,.48,.56,.06,0,.18-.01,.36-.04,.18-.03,.28-.04,.31-.04,.17,0,.25,.11,.25,.34"/><path d="M301.25,153.28c0,.61-.24,1.1-.71,1.46-.47,.36-1.12,.54-1.93,.54-.54,0-1.09-.06-1.63-.17-.47-.1-.74-.2-.82-.29-.05-.08-.07-.48-.07-1.19,0-.31,.07-.46,.21-.48,.14-.02,.26,.06,.36,.23,.43,.76,1.13,1.14,2.1,1.14,.82,0,1.22-.28,1.22-.85,0-.25-.09-.46-.28-.62-.2-.19-.6-.41-1.18-.67-.85-.38-1.41-.71-1.69-.99-.31-.3-.46-.71-.46-1.21,0-.62,.24-1.11,.72-1.46,.45-.34,1.04-.5,1.79-.5,.47,0,.9,.04,1.29,.11,.42,.07,.63,.17,.65,.28,.05,.32,.14,.79,.29,1.41,.02,.07-.06,.14-.24,.18-.19,.04-.32,0-.38-.1-.46-.75-1.04-1.12-1.74-1.12-.79,0-1.19,.25-1.19,.76,0,.28,.11,.51,.32,.68,.19,.14,.64,.37,1.35,.68,.74,.32,1.24,.61,1.51,.86,.35,.33,.52,.77,.52,1.33"/><path d="M311.32,154.84c0,.2-.14,.31-.41,.32-.4,0-.93,.03-1.59,.09-.32,.06-.55,.02-.69-.12-.91-.98-1.69-2.01-2.33-3.09-.05-.09-.12-.14-.2-.14-.1,0-.27,.09-.51,.26-.27,.15-.41,.37-.41,.64,0,.2,0,.48,.02,.85,.01,.37,.1,.61,.28,.73,.12,.08,.4,.15,.84,.19,.27,.04,.41,.14,.41,.3,0,.13-.02,.22-.07,.25-.04,.03-.16,.04-.34,.02-.58-.05-1.56-.02-2.93,.09-.35,.03-.54-.01-.57-.13l-.02-.17c0-.18,.18-.32,.53-.41,.32-.08,.48-.45,.48-1.12v-7.58c0-.48-.05-.81-.14-.99-.13-.24-.39-.42-.8-.56-.19-.06-.29-.15-.29-.27,0-.17,.14-.3,.41-.39,.43-.15,.85-.35,1.24-.6,.32-.21,.51-.31,.59-.31,.24,0,.35,.15,.35,.45,0-.04,0,.25,0,.86,0,.42,0,.99,0,1.7l.02,5.43c0,.15,.04,.23,.12,.23,.09,0,.22-.08,.4-.23,.48-.38,1.07-.87,1.77-1.48,.14-.14,.21-.26,.21-.35,0-.16-.23-.27-.7-.33-.2-.02-.3-.14-.29-.34,.02-.2,.12-.29,.3-.26,.42,.06,1.02,.09,1.82,.1,.56,0,1.11,0,1.66,0,.18,0,.27,.11,.27,.32,0,.2-.14,.3-.42,.32-.45,.02-.86,.12-1.26,.3-.55,.25-1.14,.68-1.76,1.31l-.07,.13c0,.08,.1,.27,.29,.58,.72,1.1,1.41,1.93,2.05,2.49,.41,.35,.8,.53,1.15,.53,.27,0,.43,.02,.49,.06,.06,.04,.1,.14,.1,.3"/></g><text class="cls-43" transform="translate(276.61 172.26)"><tspan class="cls-38" x="0" y="0">F</tspan><tspan class="cls-23" x="3.68" y="0">l</tspan><tspan class="cls-54" x="5.68" y="0">a</tspan><tspan class="cls-41" x="9.39" y="0">s</tspan><tspan x="12.52" y="0">k</tspan></text></g><rect class="cls-32" x="169.09" y=".34" width="1" height="31.08"/><g><text class="cls-43" transform="translate(107.02 172.26)"><tspan class="cls-25" x="0" y="0">M</tspan><tspan class="cls-17" x="6.02" y="0">a</tspan><tspan class="cls-46" x="9.76" y="0">g</tspan><tspan class="cls-64" x="14.06" y="0">e</tspan><tspan class="cls-20" x="17.95" y="0">n</tspan><tspan class="cls-49" x="22.15" y="0">t</tspan><tspan class="cls-24" x="24.77" y="0">o </tspan><tspan x="30.66" y="0">2</tspan></text><path d="M125.36,147.85v12.47l-1.23,.75-1.23-.75v-12.46l-3.18,1.96v10.66l4.4,2.7,4.44-2.71v-10.65l-3.22-1.96Zm-1.23-6.57l-9.26,5.61v10.67l2.41,1.42v-10.67l6.86-4.17,6.87,4.17,.03,.02v10.64l2.38-1.4v-10.67l-9.28-5.61Z"/></g><g><text class="cls-44" transform="translate(63.96 172.26)"><tspan x="0" y="0">Vtex</tspan></text><path id="svg_2" d="M80.95,141.28h-18.05c-1.4,0-2.3,1.49-1.64,2.72l1.81,3.42h-3.27c-.66,0-1.2,.54-1.2,1.2,0,.2,.05,.39,.14,.56l5.81,10.99c.31,.59,1.04,.81,1.63,.5,.21-.11,.39-.29,.5-.5l1.58-2.97,1.98,3.75c.7,1.32,2.58,1.32,3.28,0l9.05-17.02c.64-1.2-.23-2.66-1.6-2.66h0Zm-8.11,7.27l-3.9,7.34c-.21,.39-.69,.54-1.08,.33-.14-.08-.26-.19-.33-.33l-3.86-7.31c-.21-.39-.06-.88,.33-1.08,.12-.06,.24-.09,.37-.09h7.78c.43,0,.78,.35,.78,.78,0,.13-.03,.25-.09,.36h0Z"/></g><g><g><text class="cls-43" transform="translate(80.57 106.85)"><tspan class="cls-60" x="0" y="0">B</tspan><tspan class="cls-36" x="4.2" y="0">o</tspan><tspan class="cls-41" x="8.46" y="0">o</tspan><tspan class="cls-16" x="12.66" y="0">t</tspan><tspan class="cls-36" x="15.41" y="0">s</tspan><tspan class="cls-23" x="18.6" y="0">t</tspan><tspan class="cls-46" x="21.27" y="0">r</tspan><tspan class="cls-41" x="23.94" y="0">a</tspan><tspan x="27.66" y="0">p</tspan></text><g><path d="M98.55,83.9c.34-.3,.52-.72,.52-1.27,0-.62-.15-1.06-.46-1.31-.31-.25-.76-.38-1.34-.38h-3.51v3.39h3.51c.52,0,.95-.14,1.29-.44"/><path d="M97.55,85.89h-3.8v3.84h3.8c.65,0,1.16-.17,1.52-.51,.36-.34,.54-.82,.54-1.44s-.18-1.07-.54-1.4c-.37-.33-.87-.49-1.52-.49"/><path d="M101.51,89.41c-.17,.42-.44,.78-.81,1.08-.37,.3-.84,.54-1.41,.72-.58,.18-1.26,.27-2.05,.27h-5.64v-12.28h5.97c1.1,0,1.99,.25,2.65,.76,.66,.51,1,1.27,1,2.29,0,.62-.15,1.15-.45,1.59-.3,.44-.74,.79-1.3,1.03v.03c.76,.16,1.33,.52,1.72,1.07,.39,.56,.58,1.25,.58,2.09,0,.48-.09,.93-.26,1.35m1.92-14.79h-14.04c-1.93,0-3.51,1.58-3.51,3.51v14.04c0,1.93,1.58,3.51,3.51,3.51h14.04c1.93,0,3.51-1.58,3.51-3.51v-14.04c0-1.93-1.58-3.51-3.51-3.51"/></g></g><g><text class="cls-43" transform="translate(5.28 106.85)"><tspan class="cls-58" x="0" y="0">GI</tspan><tspan x="7.01" y="0">T</tspan></text><path d="M20.66,84.41l-9.2-9.19c-.53-.53-1.39-.53-1.92,0l-1.91,1.91,2.42,2.42c.56-.19,1.21-.06,1.66,.39,.45,.45,.58,1.1,.38,1.67l2.33,2.33c.57-.2,1.22-.07,1.67,.38,.63,.63,.63,1.65,0,2.28-.63,.63-1.65,.63-2.28,0-.47-.48-.59-1.17-.35-1.76l-2.18-2.18v5.73c.15,.08,.3,.18,.43,.31,.63,.63,.63,1.65,0,2.28-.63,.63-1.65,.63-2.28,0-.63-.63-.63-1.65,0-2.28,.16-.16,.34-.27,.53-.35v-5.78c-.19-.08-.37-.2-.53-.35-.48-.48-.59-1.18-.35-1.77l-2.39-2.39L.4,84.37c-.53,.53-.53,1.39,0,1.92l9.2,9.2c.53,.53,1.39,.53,1.92,0l9.15-9.15c.53-.53,.53-1.39,0-1.92"/></g><g><text class="cls-43" transform="translate(126.26 106.85)"><tspan class="cls-11" x="0" y="0">R</tspan><tspan class="cls-21" x="4.16" y="0">e</tspan><tspan class="cls-17" x="8.02" y="0">a</tspan><tspan class="cls-13" x="11.77" y="0">c</tspan><tspan class="cls-38" x="15.41" y="0">t</tspan><tspan class="cls-10" x="18" y="0"> </tspan><tspan class="cls-47" x="19.77" y="0">J</tspan><tspan x="22.68" y="0">S</tspan></text><g><path d="M147.28,87.78c-.42,.18-.87,.34-1.34,.49-.27-.94-.64-1.93-1.08-2.94,.44-1,.8-1.98,1.07-2.92,.48,.15,.93,.31,1.36,.49,1.71,.73,2.81,1.68,2.81,2.44,0,.76-1.11,1.72-2.82,2.44m-2.56,6.87c-.14,.09-.33,.13-.55,.13-1,0-2.48-.8-4.05-2.25,.67-.71,1.35-1.51,1.99-2.4,1.09-.12,2.12-.29,3.07-.53,.11,.49,.2,.95,.25,1.4,.23,1.84-.05,3.27-.7,3.65m-5.37-2.87c-.45-.46-.9-.98-1.34-1.54,.43,.02,.88,.03,1.33,.03s.9,0,1.34-.03c-.43,.56-.88,1.08-1.33,1.54m-4.82,3.02c-.22,0-.4-.05-.55-.13-.66-.38-.94-1.81-.72-3.65,.05-.45,.14-.93,.24-1.42,.95,.23,1.98,.41,3.06,.53,.65,.89,1.33,1.7,2.01,2.41-1.57,1.46-3.05,2.26-4.05,2.26m-1.79-6.53c-.48-.15-.93-.31-1.35-.49-1.71-.73-2.81-1.68-2.81-2.44s1.1-1.72,2.81-2.44c.41-.18,.87-.34,1.33-.49,.27,.95,.64,1.93,1.08,2.94-.44,1-.8,1.98-1.07,2.92m1.21-12.24c.14-.09,.33-.13,.55-.13h0c1,0,2.48,.79,4.05,2.24-.67,.71-1.35,1.51-1.99,2.41-1.09,.12-2.12,.29-3.07,.53-.11-.48-.19-.95-.25-1.4-.23-1.84,.05-3.27,.7-3.65m6.7,4.42c-.43-.02-.88-.03-1.32-.03s-.9,0-1.34,.03c.43-.56,.88-1.08,1.33-1.54,.45,.46,.9,.98,1.34,1.54m2.94,2.43c-.22-.39-.46-.76-.7-1.13,.68,.1,1.35,.23,1.98,.38-.18,.62-.4,1.26-.65,1.9-.2-.39-.4-.77-.63-1.16m0,4.92c.22-.38,.43-.77,.63-1.16,.26,.65,.48,1.29,.66,1.92-.63,.15-1.3,.29-1.99,.39,.24-.37,.47-.75,.69-1.14m-8.61-2.44c.3-.65,.64-1.29,1-1.92,.38-.65,.76-1.27,1.16-1.84,.72-.06,1.45-.1,2.18-.1s1.45,.03,2.17,.09c.4,.57,.79,1.19,1.17,1.83,.37,.63,.7,1.27,1,1.92-.3,.65-.64,1.29-1,1.92-.38,.65-.76,1.27-1.16,1.84-.72,.06-1.45,.1-2.18,.1s-1.46-.04-2.17-.09c-.4-.57-.79-1.19-1.17-1.83-.37-.63-.7-1.27-1-1.92m-1.23-3.23c.63-.15,1.3-.28,1.99-.38-.24,.37-.47,.75-.69,1.14-.22,.38-.43,.77-.63,1.16-.26-.64-.48-1.29-.67-1.92m1.3,5.68c.23,.39,.46,.76,.69,1.13-.69-.1-1.35-.23-1.98-.38,.18-.62,.4-1.26,.65-1.9,.2,.38,.4,.77,.63,1.16m9.07-11.92h0c.22,0,.4,.05,.55,.13,.66,.38,.94,1.81,.72,3.65-.05,.45-.14,.93-.25,1.42-.94-.23-1.98-.41-3.06-.53-.65-.89-1.32-1.7-2-2.41,1.57-1.46,3.04-2.26,4.04-2.26m7.02,9.46c0-1.57-1.96-3.05-4.97-3.97,.69-3.07,.39-5.5-.97-6.29-.31-.18-.68-.27-1.08-.27h0c-1.33,0-3.06,.94-4.82,2.58-1.75-1.63-3.49-2.56-4.82-2.56h0c-.4,0-.77,.09-1.09,.27-1.35,.78-1.66,3.21-.96,6.27-3,.93-4.95,2.41-4.95,3.97s1.96,3.05,4.97,3.97c-.69,3.07-.39,5.51,.97,6.29,.31,.18,.68,.27,1.08,.27,1.33,0,3.06-.94,4.82-2.58,1.76,1.63,3.49,2.57,4.82,2.57,.4,0,.77-.09,1.09-.27,1.36-.78,1.66-3.21,.96-6.27,2.99-.92,4.94-2.4,4.94-3.97"/><path d="M139.33,87.54c1.22,0,2.2-.99,2.2-2.2s-.99-2.2-2.2-2.2-2.2,.99-2.2,2.2,.99,2.2,2.2,2.2"/></g></g><g><text class="cls-26" transform="translate(164.83 106.85)"><tspan x="0" y="0">Wordpress</tspan></text><g><path d="M173.22,85.34c0,3.58,2.08,6.67,5.09,8.13l-4.31-11.81c-.5,1.12-.78,2.37-.78,3.68Z"/><path d="M188.35,84.88c0-1.12-.4-1.89-.74-2.49-.46-.74-.89-1.37-.89-2.12,0-.83,.63-1.6,1.52-1.6,.04,0,.08,0,.12,0-1.61-1.47-3.75-2.37-6.1-2.37-3.16,0-5.93,1.62-7.55,4.07,.21,0,.41,.01,.58,.01,.94,0,2.41-.11,2.41-.11,.49-.03,.54,.69,.06,.74,0,0-.49,.06-1.03,.09l3.29,9.78,1.98-5.93-1.41-3.86c-.49-.03-.95-.09-.95-.09-.49-.03-.43-.77,.06-.74,0,0,1.49,.11,2.38,.11,.94,0,2.41-.11,2.41-.11,.49-.03,.54,.69,.06,.74,0,0-.49,.06-1.03,.09l3.26,9.71,.9-3.01c.39-1.25,.69-2.15,.69-2.92Z"/><path d="M182.41,86.13l-2.71,7.88c.81,.24,1.67,.37,2.55,.37,1.05,0,2.06-.18,3-.51-.02-.04-.05-.08-.06-.12l-2.78-7.61Z"/><path d="M190.18,81c.04,.29,.06,.6,.06,.93,0,.92-.17,1.95-.69,3.24l-2.76,7.98c2.69-1.57,4.49-4.48,4.49-7.81,0-1.57-.4-3.05-1.11-4.33Z"/><path d="M182.26,74.81c-5.81,0-10.53,4.72-10.53,10.53s4.72,10.53,10.53,10.53,10.53-4.72,10.53-10.53c0-5.81-4.72-10.53-10.53-10.53Zm0,20.58c-5.54,0-10.05-4.51-10.05-10.05s4.51-10.05,10.05-10.05,10.05,4.51,10.05,10.05-4.51,10.05-10.05,10.05Z"/></g></g><g><text class="cls-43" transform="translate(47.13 106.85)"><tspan class="cls-59" x="0" y="0">P</tspan><tspan class="cls-62" x="4" y="0">H</tspan><tspan x="8.95" y="0">P</tspan></text><g id="g4" transform="translate(-44.632 -141.55)"><g id="g6" transform="matrix(8.3528 0 0 8.3119 -727.13 -3759.5)"><path id="path8" class="cls-61" d="M36.89,80.4h5.84c1.71,.01,2.96,.51,3.73,1.47,.77,.97,1.02,2.29,.76,3.97-.1,.77-.33,1.52-.68,2.26-.33,.74-.8,1.4-1.39,1.99-.73,.75-1.5,1.23-2.33,1.43-.83,.2-1.69,.3-2.57,.3h-2.61l-.83,4.12h-3.03l3.12-15.55m2.55,2.47l-1.31,6.51c.09,.01,.17,.02,.26,.02h.31c1.39,.01,2.56-.12,3.49-.41,.93-.3,1.55-1.36,1.87-3.17,.26-1.52,0-2.39-.78-2.62-.77-.23-1.74-.34-2.9-.33-.17,.01-.34,.02-.5,.02-.15,0-.3,0-.46,0l.02-.02"/><path id="path10" class="cls-61" d="M50.67,76.26h3.01l-.85,4.14h2.7c1.48,.03,2.59,.33,3.31,.91,.74,.58,.96,1.68,.65,3.3l-1.46,7.22h-3.05l1.39-6.9c.15-.72,.1-1.24-.13-1.54-.23-.3-.73-.46-1.5-.46l-2.42-.02-1.79,8.91h-3.01l3.14-15.57"/><path id="path12" class="cls-61" d="M62.72,80.4h5.84c1.71,.01,2.96,.51,3.73,1.47,.77,.97,1.02,2.29,.76,3.97-.1,.77-.33,1.52-.68,2.26-.33,.74-.8,1.4-1.39,1.99-.73,.75-1.5,1.23-2.33,1.43-.83,.2-1.69,.3-2.57,.3h-2.61l-.83,4.12h-3.03l3.12-15.55m2.55,2.47l-1.31,6.51c.09,.01,.17,.02,.26,.02h.31c1.39,.01,2.56-.12,3.49-.41,.93-.3,1.55-1.36,1.87-3.17,.26-1.52,0-2.39-.78-2.62-.77-.23-1.74-.34-2.9-.33-.17,.01-.34,.02-.5,.02-.15,0-.3,0-.46,0l.02-.02"/></g></g></g></g><g><g><path d="M16.83,141.29c-6.05,.19-7.85,4.52-8.27,6.86,.54-.87,2.23-2.77,4.72-2.77,2.91,0,5.12,3.24,6.47,4.26,1.64,1.23,4.93,2.85,9.26,1.54,3.45-1.05,5.05-4.71,5.4-6.45-1.67,2.27-4.2,3.63-7.33,2.02-2.16-1.11-3.77-5.66-10.25-5.45Z"/><path d="M8.27,151.58c-6.05,.19-7.85,4.52-8.27,6.86,.54-.87,2.23-2.77,4.72-2.77,2.91,0,5.12,3.24,6.47,4.26,1.64,1.23,4.93,2.85,9.26,1.54,3.45-1.05,5.05-4.71,5.4-6.45-1.67,2.27-4.2,3.63-7.33,2.02-2.16-1.11-3.77-5.66-10.25-5.45Z"/></g><text class="cls-42" transform="translate(3.23 172.26)"><tspan x="0" y="0">Tailwind</tspan></text></g></g></svg>