<?xml version="1.0" encoding="utf-8"?>
<!-- Generator: Adobe Illustrator 25.1.0, SVG Export Plug-In . SVG Version: 6.00 Build 0)  -->
<svg version="1.1" id="Layer_1" xmlns:serif="http://www.serif.com/"
	 xmlns="http://www.w3.org/2000/svg" xmlns:xlink="http://www.w3.org/1999/xlink" x="0px" y="0px" viewBox="0 0 2140.6 1219.2"
	 style="enable-background:new 0 0 2140.6 1219.2;" xml:space="preserve">
<style type="text/css">
	.st0{fill:#808080;}
	.st1{font-family:'Averta-Regular';}
	.st2{font-size:40.2972px;}
	.st3{fill-rule:evenodd;clip-rule:evenodd;fill:#CCCCCC;}
	.st4{font-family:'Pridi-Regular';}
	.st5{font-size:47.0134px;}
	.st6{clip-path:url(#SVGID_2_);}
	.st7{fill-rule:evenodd;clip-rule:evenodd;fill:#0D0D0D;}
	.st8{fill-rule:evenodd;clip-rule:evenodd;fill:#262626;}
	.st9{fill-rule:evenodd;clip-rule:evenodd;fill:#404040;}
	.st10{fill-rule:evenodd;clip-rule:evenodd;fill:#666666;}
	.st11{fill-rule:evenodd;clip-rule:evenodd;fill:#595959;}
	.st12{fill:#050505;}
</style>
<g>
	<g transform="matrix(2.96596,0,0,2.96596,12.3973,59.8487)">
		<text transform="matrix(0.3372 0 0 0.3372 325.7608 0.9407)" class="st0 st1 st2">Intermedio</text>
	</g>
	<g transform="matrix(2.96596,0,0,2.96596,12.3973,59.8487)">
		<text transform="matrix(0.3372 0 0 0.3372 47.9713 0.9407)" class="st0 st1 st2">Básico</text>
	</g>
	<g transform="matrix(2.96596,0,0,2.96596,12.3973,59.8487)">
		<g transform="matrix(1,0,0,1,0,104.785)">
			<rect x="591.2" y="-115.6" class="st3" width="2.3" height="70.4"/>
		</g>
	</g>
	<g transform="matrix(2.96596,0,0,2.96596,12.3973,59.8487)">
		<g transform="matrix(1,0,0,1,0,104.785)">
			<rect x="119.4" y="-114.6" class="st3" width="2.3" height="70.4"/>
		</g>
	</g>
	<g>
		<g transform="matrix(2.96596,0,0,2.96596,12.3973,59.8487)">
			<text transform="matrix(0.3372 0 0 0.3372 46.9134 90.0731)" class="st4 st5">Figma</text>
		</g>
		<g>
			<g transform="matrix(2.96596,0,0,2.96596,12.3973,59.8487)">
				<g transform="matrix(1,0,0,1,6.9691,142.242)">
					<path d="M54.1-81.7c4.4,0,7.9-3.6,7.9-7.9v-7.9h-7.9c-4.4,0-7.9,3.6-7.9,7.9C46.2-85.3,49.8-81.7,54.1-81.7"/>
				</g>
			</g>
			<g transform="matrix(2.96596,0,0,2.96596,12.3973,59.8487)">
				<g transform="matrix(1,0,0,1,3.4618,138.736)">
					<path d="M49.7-102c0-4.4,3.6-7.9,7.9-7.9h7.9V-94h-7.9C53.3-94.1,49.7-97.6,49.7-102"/>
				</g>
			</g>
			<g transform="matrix(2.96596,0,0,2.96596,12.3973,59.8487)">
				<g transform="matrix(1,0,0,1,3.4618,131.721)">
					<path d="M49.7-110.9c0-4.4,3.6-7.9,7.9-7.9h7.9v15.9h-7.9C53.3-102.9,49.7-106.5,49.7-110.9"/>
				</g>
			</g>
			<g transform="matrix(2.96596,0,0,2.96596,12.3973,59.8487)">
				<g transform="matrix(1,0,0,1,10.4765,135.228)">
					<path d="M58.6-122.3h7.9c4.4,0,7.9,3.6,7.9,7.9c0,4.4-3.6,7.9-7.9,7.9h-7.9V-122.3z"/>
				</g>
			</g>
			<g transform="matrix(2.96596,0,0,2.96596,12.3973,59.8487)">
				<g transform="matrix(0,-1,-1,0,13.9841,135.228)">
					<path d="M98.5-70.9c-4.4,0-7.9,3.6-7.9,7.9c0,4.4,3.6,7.9,7.9,7.9c4.4,0,7.9-3.6,7.9-7.9C106.5-67.4,102.9-70.9,98.5-70.9"/>
				</g>
			</g>
		</g>
	</g>
	<g>
		<g transform="matrix(2.96596,0,0,2.96596,12.3973,59.8487)">
			<text transform="matrix(0.3372 0 0 0.3372 522.6472 90.0731)" class="st4 st5">XD</text>
		</g>
		<g>
			<g transform="matrix(2.96596,0,0,2.96596,12.3973,59.8487)">
				<g transform="matrix(1,0,0,1,62.0785,141.677)">
					<path d="M482.1-107.3c-0.8,0-1.6,0.2-2.2,0.5c-0.7,0.3-1.3,0.8-1.7,1.5c-0.4,0.6-0.7,1.5-0.7,2.5c0,0.7,0.1,1.4,0.3,2
						c0.2,0.5,0.5,1,0.9,1.4s0.8,0.6,1.4,0.8c0.5,0.2,1.1,0.3,1.7,0.3c0.3,0,0.6,0,0.8,0c0.3,0,0.5,0,0.7-0.1v-8.8l-0.5-0.1
						C482.5-107.3,482.3-107.3,482.1-107.3"/>
				</g>
			</g>
			<g transform="matrix(2.96596,0,0,2.96596,12.3973,59.8487)">
				<g transform="matrix(1,0,0,1,63.9491,149.259)">
					<path d="M484.4-135.2h-30.8c-4.7,0-8.5,3.8-8.5,8.4v29.6c0,4.7,3.8,8.5,8.5,8.5h30.8c4.7,0,8.5-3.8,8.5-8.5v-29.6
						C492.9-131.5,489.1-135.2,484.4-135.2 M470.5-102.5h-4.6c-0.3,0-0.5,0-0.7-0.2c-0.4-0.8-0.9-1.7-1.3-2.5s-0.9-1.6-1.4-2.5
						s-1-1.7-1.4-2.6l0,0c-0.4,0.9-0.9,1.7-1.3,2.6c-0.5,0.9-0.9,1.7-1.4,2.5s-0.9,1.7-1.4,2.5c-0.1,0.2-0.2,0.2-0.5,0.2h-4.4
						l-0.1-0.1v-0.2l6.2-10.1l-6-10.2v-0.2l0.2-0.1h4.5h0.3l0.2,0.2c0.4,0.9,0.8,1.7,1.3,2.6s0.9,1.7,1.4,2.5s0.9,1.7,1.3,2.5l0,0
						c0.4-0.9,0.9-1.7,1.3-2.6c0.4-0.8,0.9-1.7,1.4-2.5s0.9-1.7,1.3-2.5l0.1-0.2h0.3h4.2l0.2,0.1l-0.1,0.1l-6,9.8l6.4,10.4v0.2
						V-102.5z M485.7-103.3c-1,0.4-2.1,0.8-3.2,1c-1,0.2-2,0.3-3.1,0.3c-1.5,0-2.9-0.3-4.3-0.9c-1.3-0.6-2.3-1.5-3-2.7
						s-1.1-2.7-1.1-4.5c0-1.5,0.4-2.9,1.1-4.2c0.8-1.3,1.8-2.4,3.2-3.1c1.4-0.8,3.1-1.2,5-1.2h0.4c0.2,0,0.4,0,0.6,0v-6.3l0.2-0.2h4
						l0.2,0.1v19c0,0.4,0,0.8,0,1.2c0,0.4,0.1,0.8,0.1,1.1L485.7-103.3z"/>
				</g>
			</g>
		</g>
	</g>
	<g>
		<g transform="matrix(2.96596,0,0,2.96596,12.3973,59.8487)">
			<text transform="matrix(0.3372 0 0 0.3372 140.3342 90.0731)" class="st4 st5">AF Designer</text>
		</g>
		<g transform="matrix(2.96596,0,0,2.96596,12.3973,59.8487)">
			<g>
				<g>
					<defs>
						<path id="SVGID_1_" d="M162.6,12.9c-0.8,0-1.4,0.6-1.4,1.4v44.8c0,0.8,0.6,1.4,1.4,1.4h44.8c0.8,0,1.4-0.6,1.4-1.4V14.3
							c0-0.8-0.6-1.4-1.4-1.4C207.4,12.9,162.6,12.9,162.6,12.9z"/>
					</defs>
					<clipPath id="SVGID_2_">
						<use xlink:href="#SVGID_1_"  style="overflow:visible;"/>
					</clipPath>
					<g class="st6">
						<g transform="matrix(1,0,0,1,114.191,148.626)">
							<path class="st7" d="M94.7-134.3c0-0.8-0.6-1.4-1.4-1.4H48.4c-0.8,0-1.4,0.6-1.4,1.4v44.8c0,0.8,0.6,1.4,1.4,1.4h44.8
								c0.8,0,1.4-0.6,1.4-1.4L94.7-134.3L94.7-134.3z"/>
						</g>
						<g transform="matrix(1,0,0,1,114.191,148.626)">
							<path class="st8" d="M94.7-134.3c0-0.8-0.6-1.4-1.4-1.4H66.6L47-101.9v12.4c0,0.8,0.6,1.4,1.4,1.4h44.8
								c0.8,0,1.4-0.6,1.4-1.4L94.7-134.3L94.7-134.3z"/>
						</g>
						<g transform="matrix(1,0,0,1,102.876,128.212)">
							<path class="st9" d="M80.4-67.7H77L68.4-85l16.7-30.4h2.7L70.4-85L80.4-67.7z M89.4-67.7h-8.3l-9.8-16.9H106v3.2L89.4-67.7z
								 M81.1-115.3h-2.8l-20,34.7v4.8L81.1-115.3z M86-85.2h-9.4c-1.1,0-2.1-0.6-2.7-1.5c-0.6-1-0.6-2.1,0-3.1l4.7-8.2L86-85.2z
								 M106-85.2H86.7L79-98.6l9.6-16.7h3.5L87-98l2.4,4.8l16.6,6.5V-85.2z"/>
						</g>
						<g transform="matrix(1,0,0,1,114.191,128.212)">
							<path class="st10" d="M94.7-67.7H70.5L61.1-84h33.6V-67.7z M68.3-67.7H47v-11.7l20.7-35.9h8.1L58.3-85L68.3-67.7z M73.6-85.8
								h-8.2c-0.9,0-1.8-0.5-2.2-1.3c-0.5-0.8-0.5-1.8,0-2.6c1.8-3.2,4.1-7.1,4.1-7.1L73.6-85.8z M94.7-85.8h-19l-7.4-12.8l9.6-16.7
								h16.7v29.5H94.7z"/>
						</g>
						<g transform="matrix(1,0,0,1,114.679,127.773)">
							<path class="st11" d="M95.3-66.4H70.5l-9.9-17.2h34.7V-66.4z M57.8-84.5l10.5,18.2H45.1l-0.1-10l22.8-39.6h8.1L57.8-84.5z
								 M61.6-83l9.3,16h23.9v-16H61.6z M68.2-115.3L45.6-76.2l0.1,9.2h21.7L57.2-84.5L75-115.3H68.2z M73.1-85.4h-8.2l0,0h-0.1l0,0
								l0,0l0,0l0,0l0,0l0,0l0,0l0,0l0,0l0,0l0,0l0,0l0,0l0,0l0,0l0,0l0,0l0,0l0,0l0,0l0,0l0,0h-0.1l0,0l0,0l0,0l0,0l0,0l0,0l0,0
								l0,0l0,0l0,0l0,0l0,0l0,0l0,0l0,0l0,0l0,0l0,0l0,0l0,0l0,0l0,0l0,0l0,0l0,0l0,0l0,0l0,0h-0.1l0,0l0,0h-0.1l0,0l0,0l0,0l0,0
								l0,0l0,0l0,0l0,0l0,0l0,0l0,0l0,0l0,0l0,0l0,0l0,0l0,0l0,0l0,0l0,0l0,0l0,0l0,0l0,0l0,0l0,0l0,0l0,0l0,0l0,0l0,0l0,0l0,0l0,0
								l0,0l0,0l0,0l0,0l0,0l0,0l0,0l0,0l0,0l0,0l0,0l0,0l0,0l0,0l0,0l0,0l0,0l0,0l0,0l0,0l0,0l0,0l0,0l0,0l0,0l0,0l0,0l0,0l0,0l0,0
								l0,0l0,0l0,0l0,0l0,0l0,0l0,0l0,0l0,0l0,0l0,0l0,0l0,0l0,0l0,0l0,0l0,0l0,0l0,0l0,0l0,0l0,0l0,0l0,0l0,0l0,0l0,0l0,0l0,0l0,0
								l0,0l0,0l0,0l0,0l0,0l0,0l0,0l0,0l0,0l0,0l0,0l0,0l0,0l0,0l0,0l0,0l0,0l0,0l0,0l0,0l0,0l0,0l0,0l0,0l0,0l0,0v-0.1l0,0l0,0
								l0,0l0,0l0,0l0,0l0,0l0,0l0,0l0,0l0,0l0,0l0,0l0,0l0,0l0,0l0,0l0,0l0,0l0,0l0,0l0,0l0,0l0,0l0,0l0,0l0,0V-88l0,0l0,0l0,0l0,0
								l0,0l0,0l0,0l0,0l0,0l0,0l0,0l0,0l0,0l0,0l0,0l0,0l0,0l0,0l0,0l0,0l0,0l0,0l0,0l0,0v-0.1l0,0l0,0l0,0l0,0l0,0l0,0l0,0l0,0
								l0,0l0,0l0,0l0,0l0,0l0,0l0,0l0,0l0,0l0,0l0,0l0,0l0,0l0,0v-0.1l0,0l0,0l0,0l0,0l0,0l0,0l0,0l0,0l0,0l0,0l0,0l0,0v-0.1l0,0
								l0,0l0,0l0,0l0,0l0,0l0,0l4.1-7.1L73.1-85.4z M95.2-85.4h-20l-7.4-12.8L78-115.9h17L95.2-85.4z M63.2-88.9L63.2-88.9
								L63.2-88.9L63.2-88.9L63.2-88.9L63.2-88.9L63.2-88.9L63.2-88.9L63.2-88.9L63.2-88.9L63.2-88.9L63.2-88.9L63.2-88.9L63.2-88.9
								L63.2-88.9L63.2-88.9L63.2-88.9L63.2-88.9L63.2-88.9L63.2-88.9L63.2-88.9L63.2-88.9L63.2-88.9L63.2-88.9L63.2-88.9L63.2-88.9
								L63.2-88.9L63.2-88.9L63.2-88.9L63.2-88.9L63.2-88.9L63.2-88.9L63.2-88.9L63.2-88.9L63.2-88.9L63.2-88.9L63.2-88.9L63.2-88.9
								L63.2-88.9L63.2-88.9L63.2-88.9L63.2-88.9L63.2-88.9L63.2-88.9L63.2-88.9L63.2-88.9L63.2-88.9L63.2-88.9L63.2-88.9L63.2-88.9
								L63.2-88.9L63.2-88.9L63.2-88.9L63.2-88.9L63.2-88.9L63.2-88.9L63.2-88.9L63.2-88.9L63.2-88.9L63.2-88.9L63.2-88.9L63.2-88.9
								L63.2-88.9L63.2-88.9L63.2-88.9L63.2-88.9L63.2-88.9L63.2-88.9L63.2-88.9L63.2-88.9L63.2-88.9L63.2-88.9L63.2-88.9L63.2-88.9
								L63.2-88.9L63.2-88.9L63.2-88.9L63.2-88.9L63.2-88.9L63.2-88.9L63.2-88.9l-0.1,0.2l0,0l0,0l0,0v0.1l0,0l0,0l0,0l0,0l0,0l0,0
								l0,0l0,0l0,0l0,0l0,0l0,0l0,0l0,0l0,0l0,0l0,0l0,0l0,0l0,0l0,0l0,0l0,0l0,0l0,0l0,0l0,0l0,0l0,0l0,0l0,0l0,0l0,0l0,0l0,0l0,0
								l0,0l0,0l0,0l0,0l0,0l0,0l0,0l0,0l0,0l0,0l0,0l0,0l0,0l0,0l0,0l0,0l0,0l0,0l0,0l0,0l0,0l0,0l0,0l0,0l0,0l0,0l0,0l0,0l0,0l0,0
								l0,0l0,0l0,0l0,0l0,0l0,0l0,0l0,0l0,0l0,0l0,0l0,0l0,0l0,0l0,0l0,0l0,0l0,0l0,0l0,0l0,0l0,0l0,0l0,0l0,0l0,0l0,0l0,0l0,0l0,0
								l0,0l0,0l0,0l0,0l0,0l0,0l0,0l0,0l0,0l0,0l0,0l0,0l0,0l0,0l0,0l0,0l0,0l0,0l0,0l0,0l0,0l0,0l0,0l0,0l0,0l0,0l0,0l0,0l0,0l0,0
								l0,0l0,0l0,0l0,0l0,0l0,0l0,0l0,0l0,0l0,0l0,0l0,0l0,0l0,0l0,0l0,0l0,0l0,0l0,0l0,0l0,0l0,0l0,0l0,0l0,0l0,0l0,0l0,0l0,0l0,0
								l0,0l0,0l0,0l0,0l0,0l0,0l0,0l0,0l0,0l0,0l0,0l0,0l0,0l0,0l0,0l0,0l0,0l0,0l0,0l0,0l0,0l0,0l0,0l0,0l0,0l0,0l0,0l0,0l0,0l0,0
								l0,0l0,0l0,0l0,0l0,0l0,0l0,0l0,0l0,0l0,0l0,0l0,0l0,0l0,0l0,0l0,0l0,0l0,0l0,0l0,0l0,0l0,0l0,0l0,0l0,0l0,0l0,0l0,0l0,0l0,0
								l0,0l0,0l0,0l0,0l0,0l0,0l0,0l0,0l0,0l0,0l0,0l0,0h7.3l-5.3-9.2L63.2-88.9z M78.4-115.3l-9.9,17.1L75.6-86h19.1l-0.2-29.3
								H78.4z"/>
						</g>
					</g>
				</g>
			</g>
		</g>
	</g>
	<g>
		<g transform="matrix(2.96596,0,0,2.96596,12.3973,59.8487)">
			<text transform="matrix(0.3372 0 0 0.3372 269.2561 90.0731)" class="st4 st5">InDesign</text>
		</g>
		<g>
			<g transform="matrix(2.96596,0,0,2.96596,12.3973,59.8487)">
				<g transform="matrix(1,0,0,1,152.145,141.677)">
					<path d="M154.6-107.3c-0.8,0-1.6,0.2-2.2,0.5c-0.7,0.3-1.3,0.8-1.7,1.5s-0.7,1.5-0.7,2.5c0,0.7,0.1,1.4,0.3,2
						c0.2,0.5,0.5,1,0.9,1.4s0.8,0.6,1.4,0.8c0.5,0.2,1.1,0.3,1.7,0.3c0.3,0,0.6,0,0.8,0c0.3,0,0.5,0,0.7-0.1v-8.8l-0.5-0.1
						C155-107.3,154.8-107.3,154.6-107.3"/>
				</g>
			</g>
			<g transform="matrix(2.96596,0,0,2.96596,12.3973,59.8487)">
				<g transform="matrix(1,0,0,1,156.44,149.259)">
					<path d="M160-135.2h-30.8c-4.7,0-8.5,3.8-8.5,8.4v29.6c0,4.7,3.8,8.5,8.5,8.5H160c4.7,0,8.4-3.8,8.4-8.5v-29.6
						C168.4-131.5,164.7-135.2,160-135.2 M138-102.7c0,0.2-0.1,0.3-0.3,0.3h-3.9c-0.2,0-0.3-0.1-0.3-0.3v-20.4l0.3-0.3h3.9l0.3,0.2
						v0.1V-102.7z M155.8-103.3c-1,0.4-2.1,0.8-3.2,1c-1,0.2-2,0.3-3.1,0.3c-1.5,0-2.9-0.3-4.3-0.9c-1.3-0.6-2.3-1.5-3-2.7
						s-1.1-2.7-1.1-4.5c0-1.5,0.4-2.9,1.1-4.2c0.8-1.3,1.8-2.4,3.2-3.1c1.4-0.8,3.1-1.2,5-1.2h0.4c0.2,0,0.4,0,0.6,0v-6.3l0.2-0.2h4
						l0.2,0.1v19c0,0.4,0,0.8,0,1.2c0,0.4,0.1,0.8,0.1,1.1L155.8-103.3z"/>
				</g>
			</g>
		</g>
	</g>
	<g>
		<g transform="matrix(2.96596,0,0,2.96596,12.3973,59.8487)">
			<text transform="matrix(0.3372 0 0 0.3372 377.4561 90.0731)" class="st4 st5">Photoshop</text>
		</g>
		<g>
			<g transform="matrix(2.96596,0,0,2.96596,12.3973,59.8487)">
				<g transform="matrix(1,0,0,1,203.486,149.259)">
					<path d="M228.9-135.2h-30.8c-4.7,0-8.5,3.8-8.5,8.4v29.6c0,4.7,3.8,8.5,8.5,8.5h30.8c4.7,0,8.4-3.8,8.4-8.5v-29.6
						C237.4-131.5,233.6-135.2,228.9-135.2 M214.2-112.1c-0.8,1.1-1.9,2-3.2,2.4c-1.4,0.5-2.8,0.7-4.5,0.7c-0.5,0-0.8,0-1,0
						s-0.5,0-0.9,0v6.4l-0.2,0.3h-3.9l-0.2-0.3v-20.5l0.2-0.2c0.3,0,0.7,0,1.1,0c0.5,0,1,0,1.5,0s1.1,0,1.7,0c0.6,0,1.2,0,1.8,0
						c1.6,0,3,0.2,4.1,0.6c1,0.3,1.9,0.9,2.7,1.6c0.6,0.6,1.1,1.4,1.5,2.3c0.3,0.8,0.5,1.7,0.5,2.6
						C215.4-114.6,215-113.2,214.2-112.1 M228.3-104.3c-0.6,0.8-1.3,1.4-2.2,1.8c-1,0.4-2.2,0.6-3.6,0.6c-0.9,0-1.8-0.1-2.7-0.3
						c-0.7-0.1-1.4-0.3-2-0.6l-0.2-0.4v-3.5l0.1-0.2h0.2c0.8,0.5,1.6,0.8,2.5,1c0.8,0.2,1.6,0.3,2.3,0.3c0.8,0,1.3-0.1,1.7-0.3
						c0.3-0.1,0.5-0.5,0.5-0.8s-0.2-0.5-0.5-0.8s-1-0.6-1.9-0.9c-1-0.4-1.9-0.8-2.8-1.4c-0.6-0.4-1.1-1-1.5-1.7
						c-0.3-0.6-0.5-1.3-0.5-2c0-0.9,0.2-1.7,0.7-2.4c0.5-0.8,1.2-1.4,2.1-1.8c0.9-0.5,2.1-0.7,3.5-0.7c0.8,0,1.7,0.1,2.5,0.2
						c0.6,0.1,1.2,0.2,1.7,0.5l0.2,0.2v0.2v3.2l-0.1,0.2h-0.4c-0.6-0.3-1.2-0.5-1.9-0.7s-1.5-0.3-2.2-0.3c-0.4,0-0.8,0-1.2,0.1
						c-0.3,0.1-0.5,0.2-0.6,0.4l-0.2,0.5l0.2,0.5c0.2,0.2,0.4,0.4,0.7,0.5c0.5,0.2,0.9,0.5,1.4,0.7c1.1,0.4,2.1,0.9,3.1,1.5
						c0.7,0.4,1.2,1,1.6,1.6c0.3,0.6,0.5,1.3,0.5,2C229.1-106.1,228.8-105.1,228.3-104.3"/>
				</g>
			</g>
			<g transform="matrix(2.96596,0,0,2.96596,12.3973,59.8487)">
				<g transform="matrix(1,0,0,1,194.791,138.462)">
					<path d="M217.9-108.3c-0.7-0.3-1.5-0.4-2.3-0.4c-0.5,0-1,0-1.4,0s-0.7,0-0.8,0v6.7c0.3,0,0.5,0,0.8,0h1.1
						c0.8,0,1.6-0.1,2.3-0.4c0.6-0.2,1.2-0.6,1.6-1.1c0.4-0.5,0.6-1.2,0.6-2.1c0-0.6-0.1-1.2-0.5-1.8
						C219-107.7,218.5-108.1,217.9-108.3"/>
				</g>
			</g>
		</g>
	</g>
	<g>
		<g transform="matrix(2.96596,0,0,2.96596,12.3973,59.8487)">
			<text transform="matrix(0.3372 0 0 0.3372 611.9791 90.0731)" class="st4 st5">Illustrator</text>
		</g>
		<g>
			<g transform="matrix(2.96596,0,0,2.96596,12.3973,59.8487)">
				<g transform="matrix(1,0,0,1,241.902,136.98)">
					<path d="M404.1-102.2c-0.2-0.6-0.4-1.2-0.6-1.8c-0.2-0.6-0.4-1.2-0.5-1.8c-0.2-0.6-0.3-1.1-0.4-1.5l0,0
						c-0.2,0.9-0.4,1.7-0.7,2.6c-0.3,1-0.6,2-0.9,2.9c-0.3,1-0.6,1.9-0.9,2.8h5.1c-0.1-0.4-0.3-0.9-0.5-1.4
						C404.5-101.1,404.3-101.6,404.1-102.2"/>
				</g>
			</g>
			<g transform="matrix(2.96596,0,0,2.96596,12.3973,59.8487)">
				<g transform="matrix(1,0,0,1,249.999,149.258)">
					<path d="M414.4-135.2h-30.8c-4.7,0-8.5,3.8-8.5,8.4v29.6c0,4.7,3.8,8.5,8.5,8.5h30.8c4.7,0,8.4-3.8,8.4-8.5v-29.6
						C422.8-131.5,419-135.2,414.4-135.2 M404.3-102.4h-4.2l-0.3-0.2l-1.6-4.7h-7.4l-1.5,4.7l-0.4,0.3h-3.7c-0.2,0-0.3-0.1-0.2-0.4
						l6.4-18.4c0.1-0.2,0.1-0.4,0.2-0.7c0.1-0.4,0.1-0.9,0.1-1.3l0.2-0.2h5.2l0.3,0.2l7.3,20.5C404.6-102.5,404.5-102.4,404.3-102.4
						 M411.1-102.7c0,0.2-0.1,0.3-0.3,0.3h-3.9l-0.3-0.3V-118l0.3-0.3h3.9l0.3,0.3V-102.7z M410.7-120.6c-0.5,0.5-1.1,0.7-1.8,0.7
						c-0.7,0-1.3-0.2-1.8-0.7s-0.7-1.2-0.7-1.8c0-0.7,0.2-1.3,0.7-1.8s1.1-0.7,1.8-0.7c0.8,0,1.4,0.2,1.8,0.7s0.7,1.1,0.7,1.8
						C411.4-121.8,411.1-121.1,410.7-120.6"/>
				</g>
			</g>
		</g>
	</g>
	<g transform="matrix(2.96596,0,0,2.96596,12.3973,59.8487)">
		<text transform="matrix(0.3372 0 0 0.3372 617.1669 0.9407)" class="st0 st1 st2">Avanzado</text>
	</g>
</g>
<g>
	<g transform="matrix(2.96596,0,0,2.96596,12.3973,59.8487)">
		<g transform="matrix(-1,6.72966e-06,6.72966e-06,1,0.00010337,66.5928)">
			<polygon class="st3" points="-401.3,216.5 -64.9,216.5 -64.9,216.5 			"/>
		</g>
	</g>
	<g transform="matrix(2.96596,0,0,2.96596,12.3973,59.8487)">
		<text transform="matrix(0.3372 0 0 0.3372 64.9076 274.2327)" class="st0 st1 st2">Básico</text>
	</g>
	<g>
		<g>
			<g transform="matrix(2.96596,0,0,2.96596,12.3973,59.8487)">
				<g transform="matrix(1,0,0,1,35.5941,76.9402)">
					<path class="st0" d="M55.1,244.4c0.1,0.7-0.2,1.1-0.9,1.1c-1.3,0-2.7,0-4,0c-1.4,0-2.7-0.1-4.1-0.1c-0.8,0-1.7,0-2.5,0
						c-0.9,0-1-0.2-0.8-1.1c0.6-0.1,1.3-0.2,2-0.4c0-0.2,0-0.4-0.1-0.5c-0.3-0.7-0.7-1.4-1.1-2.2c-0.2-0.3-0.4-0.5-0.8-0.5
						c-1.5,0-2.9,0-4.4,0c-0.4,0-0.6,0.1-0.7,0.5c-0.3,0.7-0.6,1.4-0.8,2.1c-0.1,0.1-0.1,0.3-0.1,0.5c0.7,0.2,1.3,0.3,1.9,0.4
						c0.2,0.8-0.1,1.2-0.8,1.2c-1.2-0.1-2.4-0.1-3.5-0.1c-0.8,0-1-0.2-0.9-1.1c1.2,0,1.5-1,1.9-1.8c0.2-0.5,0.5-1,0.7-1.5
						c1.5-3.1,3-6.3,4.4-9.4c0.1-0.1,0.2-0.3,0.3-0.5c0.4,0,0.7-0.1,1.1,0c0.2,0.1,0.5,0.3,0.6,0.5c0.9,1.6,1.7,3.3,2.5,5
						c1,1.9,1.9,3.9,2.9,5.8c0.2,0.4,0.5,0.8,0.7,1.1c0.2,0.4,0.6,0.6,1.1,0.7c0.5,0.1,0.9-0.1,1-0.6c0.1-0.4,0.1-0.8,0.1-1.2
						c0-3.1,0-6.2,0-9.3c0-0.7-0.2-1.4-0.3-2.1c0-0.3,0-0.5,0.3-0.6c1.3-0.7,2.7-1.4,4-2.1c0.1-0.1,0.3,0,0.5,0c0,0.2,0,0.4-0.1,0.6
						c-0.2,0.2-0.4,0.4-0.6,0.6c-0.4,0.3-0.6,0.8-0.6,1.3c0,3.9-0.1,7.9-0.1,11.8c0,0.8,0.3,1.4,1.1,1.7L55.1,244.4z M40.6,235.3
						h-0.2c-0.6,1.3-1.2,2.6-1.8,4c1.4,0.2,2.6,0.1,3.9,0.1l0.1-0.2C41.9,237.9,41.3,236.6,40.6,235.3"/>
				</g>
			</g>
			<g transform="matrix(2.96596,0,0,2.96596,12.3973,59.8487)">
				<g transform="matrix(1,0,0,1,57.5131,84.0715)">
					<path class="st0" d="M73.8,230.3c0.3-0.3,0.5-0.5,0.8-0.7c0.8-0.6,1.6-1.2,2.4-1.7c0.5-0.3,1-0.3,1.4,0.1
						c0.8,0.6,1.6,1.2,1.9,2.1c0.2,0.6,0.2,1.2,0.2,1.8c0,1.2-0.1,2.4-0.2,3.6c-0.1,0.7,0.1,1.3,0.9,1.5l0.3,0.2
						c0.2,0.7-0.2,1.1-0.8,1.1c-1.3,0-2.5,0-3.8,0c-0.6,0-0.8-0.2-0.7-0.8l0.1-0.1c1.2-0.3,1.2-1.3,1.2-2.2c0.1-1.2,0.1-2.3,0.1-3.5
						c0-0.8-0.5-1.4-1.1-1.5c-0.2-0.1-0.6,0-0.8,0.1c-1,0.6-1.6,1.5-1.6,2.8c0,0.9-0.1,1.8-0.1,2.7c0,0.7,0.3,1.2,1,1.4l0.2,0.1
						c0.2,0.7-0.2,1.1-0.9,1.1c-1.3,0-2.5,0-3.8,0c-0.6,0-0.8-0.2-0.7-0.9l0.3-0.2c0.7-0.3,1-0.9,1-1.6c0-1.3,0-2.5,0-3.8
						c0-0.4-0.2-0.9-0.5-1.2c-0.5-0.7-1-0.7-1.6-0.1c-0.7,0.6-1.2,1.4-1.2,2.3c-0.1,0.9-0.1,1.9-0.1,2.8c0,0.8,0.3,1.3,1,1.6
						l0.2,0.1c0.1,0.8-0.2,1.1-0.9,1.1c-1.3,0-2.5,0-3.8-0.1c-0.6,0-0.8-0.2-0.7-0.8v-0.1c1.1-0.3,1.2-1.2,1.2-2.2
						c0.1-1.5,0.1-2.9-0.2-4.4c-0.1-0.5-0.3-1-0.4-1.5v-0.3c0.5-0.3,1.1-0.6,1.6-0.9c0.2-0.1,0.5-0.2,0.8-0.4c0.5-0.3,1,0,1.1,0.5
						c0.1,0.4,0,0.7,0,1.1c0,0.2,0,0.4,0,0.6l0.1,0.1c0.2-0.2,0.4-0.3,0.5-0.5c0.7-0.5,1.4-1.1,2.2-1.6c1-0.6,1.7-0.4,2.5,0.6
						c0.3,0.4,0.6,0.9,0.9,1.4C73.6,230,73.7,230.1,73.8,230.3"/>
				</g>
			</g>
			<g transform="matrix(2.96596,0,0,2.96596,12.3973,59.8487)">
				<g transform="matrix(1,0,0,1,7.0448,82.8941)">
					<path d="M30.8,229.6c-0.7-0.4-1.3-0.8-2-1.2c-0.9-0.5-1.9-0.9-2.9-0.9c-1.2-0.1-2.3,0.2-3.1,1.2c-0.3,0.4-0.5,0.8-0.4,1.4
						c0.1,1,1,2.5,2,3.1c1.3-1.1,2.7-2.3,4.1-3.4c2.4,0.2,4.6,2,4.3,4.7c-0.1,0.9-0.5,1.6-1,2.2c-0.9,1.2-2,2.3-3.6,2.8
						c-0.4,0.1-0.8,0.2-1.1,0.2c-2.2,0-4.3-0.3-6.3-1.2c-0.1,0-0.2-0.1-0.4-0.2c0.5-0.9,1.1-1.8,1.6-2.7c-0.2-0.2-0.4-0.5-0.6-0.7
						c-0.7-0.8-1.5-1.6-1.8-2.6c-0.4-1.2-0.3-2.3,0.5-3.2c1-1.4,2.4-2.3,3.9-3.1c0.9-0.5,1.8-0.9,2.8-1c0.8-0.1,1.5,0.1,2.2,0.3
						c0.6,0.2,1.1,0.5,1.7,0.7c0.5,0.2,0.7,0.1,0.9-0.3c0.2-0.4,0.4-0.8,0.6-1.3c0.3,0.2,0.5,0.3,0.7,0.4
						C32.3,226.5,31.7,228.2,30.8,229.6 M23.4,235.8l0.3,0.2c1.5,1,3.1,1.3,4.9,1.2c0.6-0.1,1.2-0.6,1.3-1.2c0-0.6,0-1.2-0.1-1.7
						s-0.4-1-0.9-1.3c-0.7-0.5-1.3-0.5-1.9,0c-0.8,0.7-1.6,1.3-2.4,2C24.1,235.2,23.8,235.4,23.4,235.8"/>
				</g>
			</g>
			<g transform="matrix(2.96596,0,0,2.96596,12.3973,59.8487)">
				<g transform="matrix(1,0,0,1,61.4389,88.3168)">
					<path class="st0" d="M77.1,225.3c1.5-1,3.1-1.7,4.8-2.3c0.1,0.1,0.2,0.3,0.4,0.5c-0.2,0.2-0.4,0.4-0.6,0.5
						c-1,0.7-1.1,1.1-0.6,2.2c0.8,1.6,1.6,3.3,2.4,4.9l0.2,0.3c0.2-0.1,0.3-0.2,0.4-0.3c0.6-0.7,1.1-1.5,1.3-2.5
						c0.2-0.8,0-1.5-0.7-2c-0.4-0.3-0.7-0.5-1.1-0.7c-0.6-0.3-0.7-0.9-0.1-1.3c0.5-0.4,1-0.7,1.5-1h0.4c1.2,0.5,2.2,1.2,2.7,2.4
						c0.5,1.1,0.2,2.2-0.4,3.1c-0.5,0.8-1,1.5-1.7,2.1c-1.5,1.4-3,2.7-4.5,4.1c-0.3,0.3-0.7,0.6-1,0.8v0.1c0.2,0,0.4,0,0.5,0
						c1.7,0,3.3-0.1,5-0.1c0.4,0,0.8,0,1.2,0.1c0.6,0.1,0.9,0.6,0.8,1.2c-0.1,0.3-0.2,0.6-0.3,0.9c-0.5,0.8-1,1.6-1.5,2.5
						c-0.1,0.2-0.3,0.4-0.4,0.6c-0.3-0.2-0.5-0.3-0.6-0.4c0.2-0.8,0.9-1.4,0.8-2.3c-0.5,0-1-0.1-1.5-0.1c-1.9-0.1-3.9,0.1-5.8,0.5
						c-0.6,0.1-1.1,0.5-1.3,1.1l-0.2,0.5c-0.4,0-0.7-0.1-0.6-0.5c0.3-1.1,0.4-2.4,1.2-3.3c0.5-0.6,1.2-1.1,1.8-1.6
						c0.5-0.5,1.1-0.9,1.7-1.5C80.1,230.9,78.6,228.1,77.1,225.3"/>
				</g>
			</g>
			<g transform="matrix(2.96596,0,0,2.96596,12.3973,59.8487)">
				<g transform="matrix(1,0,0,1,16.6137,82.6989)">
					<path d="M38.9,230.3c-0.2,2.1-0.5,4-1.6,5.7c-0.9,1.3-2,2.2-3.5,2.7c-0.6,0.2-1.2,0.4-1.8,0.6c-1.2,0.3-2.2,0.2-3.3-0.4
						c-1.2-0.7-2.4-1.5-3.3-2.6c-1.4-1.7-1.9-3.6-1.2-5.7c0.4-1,1-1.9,1.9-2.6c1.1-1,2.4-1.8,3.8-2.3s2.8-0.8,4.3-0.5
						c1.2,0.2,2.3,0.8,3.1,1.7c0.6,0.7,1.3,1.4,1.5,2.4C38.8,229.7,38.9,230.1,38.9,230.3 M26.8,231.3c0,0.8,0.3,1.5,0.7,2.2
						c1,1.6,2.4,2.6,4.1,3.4c0.7,0.3,1.4,0.5,2.1,0l0.3-0.1c1.2-0.7,1.8-1.9,2.1-3.1c0.3-1.2,0.3-2.5-0.2-3.7
						c-0.3-0.7-0.7-1.4-1.5-1.7c-1.3-0.5-2.7-0.9-4.1-0.7C28,227.8,26.8,229.5,26.8,231.3"/>
				</g>
			</g>
			<g transform="matrix(2.96596,0,0,2.96596,12.3973,59.8487)">
				<g transform="matrix(1,0,0,1,43.5321,85.6353)">
					<path class="st0" d="M61.9,219.5c0.3,0.3,0.3,0.5,0.1,0.7s-0.3,0.4-0.5,0.5c-0.6,0.4-0.7,1-0.7,1.7c0,0.9,0,1.8-0.1,2.7
						c0,0.9-0.1,1.7-0.1,2.6c0,0.3,0,0.5,0,0.8l0.1,0.1c0.4-0.3,0.7-0.7,1.1-1c0.6-0.5,1.3-0.9,1.9-1.3c0.5-0.3,1-0.2,1.4,0.1
						c1,0.7,1.9,1.5,2.1,2.8c0.1,0.4,0,0.9,0,1.4c-0.1,1.2-0.2,2.4-0.2,3.5c0,0.6,0.1,1.1,0.7,1.4l0.4,0.2c0.2,0.7-0.1,1.1-0.8,1.1
						c-1.3,0-2.6,0-3.8-0.1c-0.7,0-0.8-0.2-0.7-0.8l0.1-0.1c1.2-0.3,1.2-1.4,1.2-2.2c0.1-1.2,0.1-2.3,0-3.5c0-0.7-0.5-1.3-1.1-1.5
						c-0.3-0.1-0.5-0.1-0.8,0.1c-0.8,0.5-1.4,1.2-1.5,2.2s-0.2,2.1-0.2,3.1c0,0.8,0.3,1.4,1.2,1.6c0.2,0.7-0.1,1.2-0.7,1.1
						c-1.3,0-2.7,0-4-0.1c-0.2,0-0.4,0-0.6-0.1c0-0.3-0.1-0.5-0.1-0.8l0.4-0.3c0.5-0.2,0.7-0.5,0.7-1.1c0-1.7,0.1-3.3,0.1-5
						c0-1.5,0-3.1-0.1-4.6c0-0.9-0.2-1.7-0.3-2.6c0-0.3,0-0.5,0.3-0.6c1.3-0.7,2.7-1.5,4-2.2L61.9,219.5z"/>
				</g>
			</g>
			<g transform="matrix(2.96596,0,0,2.96596,12.3973,59.8487)">
				<g transform="matrix(1,0,0,1,23.3822,80.6331)">
					<path d="M44.7,236.7c0.6-0.1,0.8,0,0.8,0.6c-0.1,1-0.2,2-0.3,3.1c-0.1,0.5-0.1,0.9-0.2,1.4c-0.2,0-0.3,0.1-0.4,0.1
						c-3.6,0-7.2,0-10.8,0h-0.2c-0.9,0-1-0.2-0.9-1.1c0.4-0.1,0.8-0.2,1.2-0.2c0.5-0.1,0.8-0.4,0.8-0.9s0.1-0.9,0.1-1.4
						c0-2.5,0-5.1-0.1-7.6c0-1.1-0.3-1.4-1.3-1.7c-0.2-0.1-0.5-0.2-0.8-0.3c0.1-0.4,0.2-0.7,0.3-1h7.2c0,0.4,0.1,0.7,0.1,1.1
						c-0.4,0.1-0.7,0.1-1,0.2c-0.9,0.2-1.1,0.4-1.1,1.3c0,0.4,0,0.9,0,1.3c0,2.3,0,4.7,0,7c0,0.3,0,0.5,0.1,0.7
						c0.2,0.4,0.5,0.7,0.9,0.8c1.3,0.1,2.6,0.1,3.9-0.2c0.7-0.2,0.9-0.7,1.2-1.3C44.3,237.8,44.5,237.2,44.7,236.7"/>
				</g>
			</g>
			<g transform="matrix(2.96596,0,0,2.96596,12.3973,59.8487)">
				<g transform="matrix(1,0,0,1,51.4657,81.7966)">
					<path class="st0" d="M68.6,237.2c0.2,0.4,0.3,0.6,0.5,0.9c-0.3,0.3-0.5,0.6-0.8,0.8c-0.7,0.6-1.4,1.2-2.2,1.6
						c-1.3,0.6-2.5,0.4-3.6-0.5c-1.7-1.4-2.3-4.3-1.4-6.3c0.4-0.9,1-1.6,1.8-2.1c0.7-0.6,1.5-1.1,2.3-1.6c0.5-0.3,1.2-0.3,1.7,0
						c0.7,0.5,1.4,1,2,1.6c0.5,0.4,0.4,1,0.3,1.5l-0.3,0.3c-1.1,0.5-2.2,1-3.2,1.5c-0.6,0.3-1.1,0.5-1.7,0.8
						c0.1,0.3,0.1,0.6,0.2,0.9c0.4,0.9,1,1.6,2.1,1.8c0.6,0.1,1-0.1,1.5-0.4C67.9,237.6,68.2,237.4,68.6,237.2 M63.6,234.4
						c0.9-0.5,1.8-0.9,2.6-1.3c-0.2-0.6-0.7-0.9-1.2-1.1c-0.7-0.3-0.8-0.2-1.2,0.5C63.6,233,63.5,233.6,63.6,234.4"/>
				</g>
			</g>
			<g transform="matrix(2.96596,0,0,2.96596,12.3973,59.8487)">
				<g transform="matrix(1,0,0,1,39.2162,83.572)">
					<path class="st0" d="M58.2,232.1c-0.5-0.6-1.1-1.2-1.6-1.8c-0.1-0.2-0.4-0.2-0.6-0.3c-0.4,0.2-0.6,0.6-0.7,0.9
						c-0.3,1.5-0.3,2.9,0.5,4.3c0.7,1.1,1.8,1.4,2.8,1c0.3-0.1,0.5-0.3,0.7-0.4c0.2-0.1,0.4-0.3,0.7-0.4c0.2,0.3,0.4,0.5,0.6,0.8
						c-0.3,0.3-0.6,0.7-0.9,0.9c-0.8,0.8-1.7,1.5-2.8,1.7c-1.7,0.4-2.9-0.3-3.9-1.7c-1.1-1.6-1.3-3.4-0.7-5.2
						c0.2-0.6,0.7-1.1,1.1-1.6c0.8-0.9,1.7-1.6,2.8-2.2c0.8-0.4,1.5-0.4,2.1,0.1s1.2,1,1.8,1.5c0.4,0.4,0.4,0.9,0.3,1.3l-0.2,0.3
						C59.5,231.6,58.9,231.8,58.2,232.1L58.2,232.1L58.2,232.1z"/>
				</g>
			</g>
			<g transform="matrix(2.96596,0,0,2.96596,12.3973,59.8487)">
				<g transform="matrix(1,0,0,1,19.4721,88.1376)">
					<path d="M41.4,235.8c0,0.2,0.1,0.3,0.1,0.5c-0.1,1.1-0.5,2.1-1.2,3c-0.5,0.7-1.3,0.9-2.2,0.9s-1.7-0.2-2.5-0.6
						c-2-1-4.1-1.9-6.1-2.8c-0.6-0.3-1.3-0.4-2-0.6c-0.7-0.2-1.3,0-1.9,0.5c-0.3,0.2-0.6,0.4-0.8,0.6l-0.1-0.1
						c0.1-0.2,0.1-0.4,0.2-0.5c0.5-0.8,1.1-1.4,2-1.9c0.6-0.3,1.3-0.4,1.9-0.1c2.2,0.8,4.4,1.7,6.6,2.6c1,0.4,2.1,0.8,3.1,1.2
						c0.7,0.2,1.2,0,1.5-0.6c0.3-0.5,0.5-1,0.7-1.4c0.1-0.2,0.3-0.4,0.4-0.7L41.4,235.8z"/>
				</g>
			</g>
		</g>
		<g transform="matrix(2.96596,0,0,2.96596,12.3973,59.8487)">
			<text transform="matrix(0.3372 0 0 0.3372 41.7668 373.1141)" class="st4 st5">SQLAlchemy</text>
		</g>
	</g>
	<g>
		<g>
			<g transform="matrix(2.96596,0,0,2.96596,12.3973,59.8487)">
				<g transform="matrix(1,0,0,1,135.019,87.6872)">
					<path d="M71.9,206.6c-12.2,0-11.4,5.3-11.4,5.3v5.5h11.6v1.6H55.9c0,0-7.8-0.9-7.8,11.4s6.8,11.8,6.8,11.8H59v-5.7
						c0,0-0.2-6.8,6.7-6.8h11.5c0,0,6.5,0.1,6.5-6.3V213C83.7,213,84.7,206.6,71.9,206.6 M65.5,210.3c1.2,0,2.1,0.9,2.1,2.1
						c0,1.2-0.9,2.1-2.1,2.1s-2.1-0.9-2.1-2.1S64.4,210.3,65.5,210.3"/>
				</g>
			</g>
			<g transform="matrix(2.96596,0,0,2.96596,12.3973,59.8487)">
				<g transform="matrix(1,0,0,1,135.172,76.8958)">
					<path d="M72.1,265.1c12.2,0,11.4-5.3,11.4-5.3v-5.5H71.9v-1.6h16.2c0,0,7.8,0.9,7.8-11.4c0-12.3-6.8-11.8-6.8-11.8H85v5.7
						c0,0,0.2,6.8-6.7,6.8H66.9c0,0-6.5-0.1-6.5,6.3v10.5C60.4,258.7,59.4,265.1,72.1,265.1 M78.5,261.4c-1.2,0-2.1-0.9-2.1-2.1
						s0.9-2.1,2.1-2.1s2.1,0.9,2.1,2.1S79.7,261.4,78.5,261.4"/>
				</g>
			</g>
		</g>
		<g transform="matrix(2.96596,0,0,2.96596,12.3973,59.8487)">
			<text transform="matrix(0.3372 0 0 0.3372 180.3184 373.1141)" class="st4 st5">Python</text>
		</g>
	</g>
	<g>
		<g>
			<path d="M1307.2,982.7h-11.4l-4.4,26.3l0,0h10.5c7.9-0.9,14.9-3.5,15.8-18.4C1317.7,985.3,1313.3,982.7,1307.2,982.7z"/>
			<path d="M1424.7,982.7h-11.4l-4.4,26.3l0,0h10.5c7.9-0.9,14.9-3.5,15.8-18.4C1435.2,985.3,1430.8,982.7,1424.7,982.7z"/>
			<path d="M1359.8,934.5c-70.7,0-128,29.8-128,66.6c0,36.8,57.3,66.6,128,66.6s128-29.8,128-66.6S1430.5,934.5,1359.8,934.5z
				 M1303.7,1022.2h-15.8l-3.5,18.4h-16.7l14-71h32.4c14,0.9,21,7.9,21,20.2C1335.3,1010.8,1318.6,1023,1303.7,1022.2z
				 M1369.7,982.7h-13.2l-7.9,39.5h-16.7l14-71h16.7l-3.5,18.4h15.8c14,0.9,19.3,7.9,17.5,16.7l-6.1,35.9h-17.5l6.1-32.4
				C1375.8,985.3,1375.8,982.7,1369.7,982.7z M1421.2,1022.2h-15.8l-3.5,18.4h-16.7l14-71h32.4c14,0.9,21,7.9,21,20.2
				C1452.7,1010.8,1436.1,1023,1421.2,1022.2z"/>
		</g>
		<g transform="matrix(2.96596,0,0,2.96596,12.3973,59.8487)">
			<text transform="matrix(0.3372 0 0 0.3372 439.927 373.1141)" class="st4 st5">Php</text>
		</g>
	</g>
	<g>
		<g>
			<g transform="matrix(2.96596,0,0,2.96596,12.3973,59.8487)">
				<g transform="matrix(1,0,0,1,214.861,74.5128)">
					<path d="M65,264.8c-2-1.6-4.2-3.1-5.7-5.3c-3.1-3.8-5.5-8.2-7.2-12.9c-1-3-1.3-6.2-2.6-9.1c-1.3-2.1,0.2-4.4,2.5-5.1
						c1-0.2,2.8-1.2,0.7-0.5c-2,1.4-2.1-1.3-0.1-1.5c1.4-0.2,1.9-1.3,1.4-2.3c-1.5-1,3.6-2,1-3.4c-2.6-2.8,3.7-3.4,2.1-0.2
						c-0.4,2.5,4.4-0.5,3.3,2.4c1.1,1.4,4.2,0.3,4.2,2.2c1.6,0.1,2.2,1.5,3.8,1.6c1.6,0.7,4.5,1.3,5,3.1c-1.6,1.3-5.3-2.6-5.4,0.9
						c0.5,5.1,0.4,10.4,2.2,15.3c0.9,3,3,5.3,5,7.6c1.9,2.3,4.4,3.9,7,5.2c2.3,1.1,4.7,1.8,7.2,2.2c1-0.8,2.8-3.6,4.3-2.4
						c0.1,1.3-3.1,2.8-0.1,2.7c1.7-0.5,2.9,1.3,4.3-0.3c1.3,1.6,5.4-1,4.5,2.2c-1.3,0.8-3.1,0.3-4.4,1.4c-2.1-1-3.7,0.9-6,0.7
						c-2.6,0.5-5.2,0.6-7.8,0.6c-4.3-0.3-8.6-0.5-12.7-2C69.2,267.4,67,266.1,65,264.8 M68.6,266.3c2.2,1,4.4,2,6.8,2.3
						c3.9,0.5,7.9,1.4,11.8,0.6c-1.8-0.8-3.6,0.3-5.3-0.6c-2.1,0.5-4.4-0.1-6.5-0.4c-2.4-1.1-5.1-1.8-7.3-3.2
						c-2.8-1,1.5,1.3,2.2,1.5c1.8,1-2-0.5-2.5-0.9c-1.5-0.8-1.7-0.7-0.1,0.2C68,266,68.3,266.2,68.6,266.3 M64.3,263.3
						c2.2,0.8,0-1.5-1-1.4c-0.4-0.8-1.7-1.2-0.8-1.7c-1.6,0.6-1.6-2.1-2.4-1.7c-1.7-0.5-0.6-2.4-2.6-3.5c-0.2-1.2-2-2.2-2.5-4.1
						c-0.3-0.9-2-3.6-0.9-1.1c0.9,2.4,2.5,4.4,3.9,6.5c1,1.9,2.3,4,4.2,5.2C62.8,262.2,63.4,263.1,64.3,263.3 M73.8,267.4
						c0.9,0.6,5.2,1.2,2.5,0.2C75.9,267.7,71.4,266.3,73.8,267.4 M64.1,259.4c1,0.8,4.2,0.1,1.6-0.5c-1.2-0.6-3.8-1.1-2,0.4
						L64.1,259.4z M69.1,262.1c2.5,0.7-2.1-1.6-0.6-0.3l0.3,0.2L69.1,262.1z M69.1,260.7c1.8,0.2-2.2-1.3-0.4-0.1L69.1,260.7z
						 M75.5,264.7c1.7-1,1.2,2.4,2.9,0.3c1.7-1.3-1.5,1.6,0.6,0.2c1.6-1,3.8,0.5,5.3,1c1,0,2.1,0.9,3.1,0.3c2.1-0.6-4-0.8-2.4-1.8
						c-1.9,0.5-3.3-0.7-4.2-1.9c-2.1-0.5-4.5-1.6-5.6-3.4c-0.4-0.7,0.6,0.1-0.4-1c-1.3-1.1-1.9-2.4-2.8-3.8c-1-0.5-1.1-2.1-1.2-0.1
						c0-1.3-1.2-2.2-1.5-1.8c0-1.3,1.3-0.6,0.4-1.6c-0.2-1.3-0.9-2.7-1.1-4.2c-0.3-0.7,0-2.3-1.1-0.6c-0.4,1.7-0.1-2.1,0.5-0.8
						c0.7-1.3-0.3-1.1-0.3-1c0.5-1.1,0.3-2.6-0.1-2c0.3-1.2,0.4-4.2-0.4-3.7c0.5-1.2,0.9-5.5-1.2-3.9c-0.9,0-2.3,0.3-3,0.7
						c2.2,1.2-0.2,0.4-1.1,0.2c-0.1,1.1-1,0.6-2.1,0.6c1.8,0.2-0.9,1.8-1.9,1.2c-1.3,0.6,1.1,2.2,0,2.7c0.1,0.7-2-0.3-1.8,1.4
						c-1.3-0.5-0.2,2,0.5,1.1c2.2,0.6,1.5,1.9,1.6,3.2c-0.4,0.7-1.7-1.7-0.3-1.6c-1.1-1.8-1.3-0.7-2.2,0.2c-0.2,0.1,2.4,1.2,0.8,1.8
						c1.4,0.2,1.5,1.5,1.8,2.3c0.9,0.9,0.7-1,1.7,0.1c-0.7-1-3.5-2.7-1.2-2.2c0-1-0.4-1.8,0.3-1.7c0.7-1.3-0.7,3.1,0.8,1.5
						c0.4-0.2,0.5-1.3,1.3,0.1c1.1,1.1,0.4,1.9-1.2,0.9c0.3,1,2.1,1.3,1.8,2.8c0.4,1.3,0.9,0.8,1.3,0.8c0.4,1.3,0.6,0.3,0.6-0.3
						c1.6,0.3,1.2,1.3,1.7,2c1.1,0.5-1.6-3.4,0.3-1.2c2,1.8,0.7,2.6-1,2.3c1.1-0.1,1.5,1.5,2.9,1.5c1.3,0.6,2.2,3-0.1,2
						c-0.8-0.7-3.5-1.6-1.3-0.2c2.1,1,3.7,1.5,5.7,2.7c1.4,1,2,2.2,2.6,2.4c-1.2,0.6-3.6-0.5-1.8-0.8c-1.1-0.2-2.4-0.8-1.3,0.6
						c0.9,0.8,3.2,0.7,3.6,0.8c-0.4,0.8-1,0.8,0,0.9C74,264.3,75.4,264.4,75.5,264.7 M73.3,258.4c-0.7-0.7-0.8-2-0.1-0.9
						C73.6,257.7,74.4,259.7,73.3,258.4 M69.1,251.5c-0.8-1.8,0.6-1,0.2,0.3L69.1,251.5z M61.9,246.7c-0.3-0.6-0.9-2.3-0.7-2.8
						c0.2,0.8,1.8,3.6,0.8,1.1c-1.1-2.1,1.3,0.7,1.6,1.2c0.1,0.5-0.7-0.1-0.1,1.1C62.4,245.9,62.8,248,61.9,246.7 M58.2,243.6
						c-0.8-0.8-1.4-1.6,0-0.5c0.6,0-1.3-1.7,0.1-0.6C59.9,242.8,59.1,244.9,58.2,243.6 M58.7,242.3c-2.4-2.2,3,1.1,0.4,0.4
						L58.7,242.3z M65.6,246.3c-1-0.6-0.3-4.4,0.1-1.8c1-0.3-0.1,1.3,0.7,1.3C66.3,246.9,66,247.3,65.6,246.3 M59.2,241.6
						c-1.6-2.1,4.5,2.2,1,0.5C59.8,242.1,59.4,242,59.2,241.6 M59.4,240.8c0.9-0.2,3.8,1.6,1.2,0.5C60.3,241,59.7,241.1,59.4,240.8
						 M67.4,244.8c0.1-1.8,0.6-1.1,0,0.3V244.8z M60.1,240.2c0.4-0.6-1-2.5,0.2-0.7c0.5,0.4,1.5,0.7,0.6,0.9
						C62.3,241.5,60.6,240.7,60.1,240.2 M66.1,239.2c-0.5-0.8,0.6-3.7,0.7-1.9c-0.5,1.4-0.1,2.2,0.2,0.3
						C67.7,236.1,66.9,240.4,66.1,239.2 M68.1,259.8c1.4,0.4,1.4-0.2,0.1-0.4c-0.7-0.6-2.8-1.3-0.9-0.1
						C67.5,259.6,67.9,259.6,68.1,259.8 M63.2,256.5c0.8,0.6,2.9,1.6,1.1,0.2c0.6-0.7-1.1-1.1-0.6-1.5c-1.5-0.9-1.2-0.8-0.1-0.8
						c-1.8-0.8,0.3-0.7,0.2-1.1c-0.7-0.1-3.4-1.2-1.8,0.1c-1.6-0.8-0.4,0.3-0.9,0.2c-1.7-0.5,1.5,1.3-0.3,0.8
						c0.9,0.8,2.6,1.9,0.4,0.8C61,255.6,62.8,256.2,63.2,256.5 M80.4,266.6c0.7-0.7,0,1.1,1.2-0.2c0-0.9,0-1.5-1.3-0.4
						C79.9,266.3,79.7,267.1,80.4,266.6 M68.5,259c0.8,0.7,3.7,0.5,1,0.1C69.1,258.5,67,258.6,68.5,259 M55.3,250.1
						c-1.2-1.7-0.7-2.4-1.9-3.8c-0.2-1-1.9-3.4-0.9-0.9C53.5,246.8,53.8,249.1,55.3,250.1 M83.6,267.1c1.2-0.8-0.3-0.7-0.2,0.1
						L83.6,267.1z M85.5,267.6c1.6-1.1-1-0.2-0.3,0.2L85.5,267.6z M59.2,250.8c1.2,0.3,4.6,2.8,2.6,0.2c-1-0.3-0.4-2.9-1.5-2.4
						c0.7,1.2,0.6,1.7-0.9,0.9c-1.9-0.9-1.1,0.5-0.7,0.8C58.2,250.5,59.3,250.8,59.2,250.8 M53.9,246.7c0.2-0.9-1.9-4.7-1-1.9
						C53.3,245.3,53.2,246.4,53.9,246.7 M90,266.5c1.1-0.2,3.7,0.6,4.2-0.3c-1.4,0-4.8-1-4.9,0.2h0.3L90,266.5z M54.5,241.8
						c1.2-0.5-2.1-0.9-0.2-0.1L54.5,241.8z M50.9,237.8c-0.2-1.2-0.2-3.3,1.8-2.6c-2.7,0.5,1.8,3.3,1.3,1.1c1.1,0.1,2.2-0.7,1.6,0.4
						c2.2-0.2,3.7-2.2,5.8-1.9c1.7-0.2,3.5-0.4,5.2-1c1.5-0.1,2.9-1.7,2.1-2.6c-2-0.2-4.1,0.1-6.3,0.5c-2.4,0.5-4.7,1.5-7.1,1.9
						c-2.4,0.3,0.5,0.9-0.2,1c-1.3,0.4,1.5,0.7-0.2,1.2c-1-0.2-2.1-0.5-1.7-1.6c-2.3,0.3-4.3,1.2-2.5,3.6L50.9,237.8L50.9,237.8z
						 M56.4,234.9c0.5-2,2.9,1.6,0.9,0.3C57.1,235,56.7,234.9,56.4,234.9 M57.5,234c0.1-0.9,2.3,0.5,0.4,0.3L57.5,234z M59.2,233.2
						c0.8-1,4.7-0.6,1.9-0.1C60.3,232.5,59.8,233.4,59.2,233.2 M65.7,232.4c0.5-1.4,2-0.5,0.2-0.3C65.9,232.3,65.9,232.9,65.7,232.4
						 M99.1,266.6c1.2,0,3.8-0.4,1.1-0.4C99.7,266.2,97.7,266.2,99.1,266.6 M56.3,239.4c1-0.1,1.6-1.1-0.2-1
						c-2.7-0.3,2.4,0.9-0.4,0.6C55.4,239.2,56.3,239.5,56.3,239.4 M54.9,231.5c1.8-0.6,4.2-1.3,5.1,0.3c-0.9-1-0.3-2.1,0.5-0.5
						c1.2,1.5,1.7-0.7,1-1.2c0.9,1.1,1.8,1.6,0.6,0.1c1.4-1.6-2.7,0.2-3.6,0.2C57.9,230.5,53.8,231.3,54.9,231.5 M56,229.5
						c1-0.8,3.5,0.5,1.9-0.8C57.8,228.6,54.4,229.6,56,229.5 M59.7,229.6c1.2,0-0.5-1.6,0.9-0.9c-0.2-0.8-1.7-0.9-2.4-1.2
						C57.9,228.2,59.1,229.6,59.7,229.6 M58.2,226.6c1.9-0.3-0.5-0.8-0.4,0H58.2z M55.3,224.4c-1.4-1.8,2.6,0.3,1.2-1.6
						C55.3,221.9,54.2,223.9,55.3,224.4 M72.7,233.8c0.6-1.1-2.6-1.5-0.4-0.4C72.5,233.4,72.5,233.8,72.7,233.8"/>
				</g>
			</g>
			<g transform="matrix(2.96596,0,0,2.96596,12.3973,59.8487)">
				<g transform="matrix(1,0,0,1,231.267,85.5254)">
					<path d="M85.7,215.1c-0.2,0.9-0.4,2.4-0.4,4.4c0,0.4-0.2,0.6-0.6,0.6s-0.6-0.2-0.8-0.5c-0.4-1-0.8-1.6-1.1-2
						c-0.4-0.5-1-0.7-1.7-0.8s-2.6-0.2-5.6-0.2c-0.7,0-1.1,0.1-1.3,0.2c-0.1,0.1-0.2,0.3-0.2,0.6v8.9c0,0.3,0.2,0.4,0.6,0.4
						c1.2,0,2.9-0.1,5.1-0.2c0.4-0.1,0.7-0.2,0.9-0.4c0.2-0.2,0.3-0.8,0.4-1.8c0.1-0.5,0.4-0.7,0.9-0.6c0.4,0.1,0.6,0.3,0.6,0.6
						c-0.4,1.8-0.5,4.1-0.4,7c0,0.3-0.2,0.5-0.6,0.6c-0.4,0-0.6-0.2-0.7-0.6c-0.3-1.6-1-2.5-1.9-2.6s-2.4-0.2-4.5-0.2
						c-0.2,0-0.4,0.1-0.4,0.3v8.8c0,0.7,0.2,1.1,0.7,1.3c0.4,0.2,1.2,0.4,2.5,0.5c0.6,0.1,0.9,0.4,0.8,0.8c-0.1,0.4-0.7,0.6-1.7,0.5
						c-3.1-0.2-5.7-0.2-7.7,0c-0.6,0.1-0.8-0.2-0.8-0.7c0-0.3,0.3-0.5,0.8-0.6c1.3-0.1,1.9-1.3,1.9-3.4v-16.8c0-0.9-0.2-1.5-0.5-2
						s-0.9-0.9-1.7-1.3c-0.5-0.2-0.7-0.6-0.6-1c0.1-0.2,0.2-0.4,0.3-0.4s0.5,0,1,0.1c0.8,0.1,2.8,0.2,5.8,0.2c3.6,0,6.7-0.1,9.4-0.2
						c0.9-0.1,1.3,0,1.3,0.2L85.7,215.1z"/>
				</g>
			</g>
			<g transform="matrix(2.96596,0,0,2.96596,12.3973,59.8487)">
				<g transform="matrix(1,0,0,1,236.909,73.5947)">
					<path d="M92.9,252c0,0.5-0.3,0.8-0.9,0.7c-1.8-0.2-4-0.1-6.7,0.1c-0.5,0-0.9,0-1,0c-0.1-0.1-0.2-0.3-0.2-0.6s0.4-0.6,1.1-0.8
						s1.1-0.9,1.1-1.9v-17.8c0-1.1-0.2-1.8-0.5-2.3s-0.8-0.9-1.6-1.2c-0.4-0.1-0.6-0.4-0.6-0.6c0-0.4,0.3-0.7,0.9-0.9
						c0.9-0.3,1.8-0.7,2.8-1.3c0.8-0.5,1.3-0.7,1.5-0.7c0.5,0,0.7,0.3,0.7,1c0-0.1,0,0.6-0.1,2c0,1.3-0.1,2.6,0,3.8l0.1,17.5
						c0,0.8,0.2,1.4,0.6,1.7c0.4,0.4,1.1,0.6,2,0.7C92.6,251.4,92.9,251.7,92.9,252"/>
				</g>
			</g>
			<g transform="matrix(2.96596,0,0,2.96596,12.3973,59.8487)">
				<g transform="matrix(1,0,0,1,244.825,79.6926)">
					<path d="M102.9,244.6c0,0.3-0.5,0.7-1.5,1.2c-1,0.6-1.8,0.8-2.4,0.8c-0.5,0-1-0.2-1.4-0.7s-0.7-0.7-0.8-0.7
						c-0.1,0-0.7,0.3-1.9,0.8c-1.1,0.5-2.3,0.8-3.4,0.8s-2-0.3-2.7-0.9c-0.8-0.7-1.2-1.6-1.2-2.8c0-2.3,2.6-3.9,7.8-4.9
						c0.9-0.2,1.3-0.5,1.4-1.1v-1.3c0.1-2.1-0.9-3.2-2.9-3.2c-0.6,0-1.1,0.5-1.6,1.5s-1.2,1.6-2.2,1.6c-1.1,0.1-1.6-0.3-1.6-1.4
						c0-0.6,0.8-1.4,2.4-2.2c1.7-0.9,3.3-1.3,4.8-1.3c2.7,0,4,1.3,3.9,3.8l-0.1,8.1c0,0.9,0.3,1.3,1.1,1.3c0.1,0,0.4,0,0.8-0.1
						s0.6-0.1,0.7-0.1C102.7,243.9,102.9,244.1,102.9,244.6 M96.8,240.1c0-0.3-0.1-0.5-0.2-0.7c-0.2-0.1-0.4-0.1-0.8-0.1
						c-3.2,0.6-4.7,1.6-4.7,3.1s0.8,2.3,2.5,2.3c0.7,0,1.3-0.1,2-0.4c0.8-0.3,1.2-0.6,1.2-1V240.1z"/>
				</g>
			</g>
			<g transform="matrix(2.96596,0,0,2.96596,12.3973,59.8487)">
				<g transform="matrix(1,0,0,1,251.299,80.6914)">
					<path d="M111,241.3c0,1.4-0.5,2.5-1.6,3.3s-2.5,1.2-4.4,1.2c-1.2,0-2.5-0.1-3.7-0.4c-1.1-0.2-1.7-0.5-1.8-0.6
						c-0.1-0.2-0.2-1.1-0.2-2.7c0-0.7,0.2-1.1,0.5-1.1s0.6,0.1,0.8,0.5c1,1.7,2.6,2.6,4.8,2.6c1.8,0,2.8-0.6,2.8-1.9
						c0-0.6-0.2-1-0.6-1.4c-0.5-0.4-1.3-0.9-2.7-1.5c-1.9-0.9-3.2-1.6-3.8-2.2c-0.7-0.7-1-1.6-1-2.7c0-1.4,0.5-2.5,1.6-3.3
						c1-0.8,2.4-1.1,4-1.1c1.1,0,2,0.1,2.9,0.3s1.4,0.4,1.5,0.6c0.1,0.7,0.3,1.8,0.6,3.2c0,0.2-0.1,0.3-0.6,0.4
						c-0.4,0.1-0.7,0-0.9-0.2c-1-1.7-2.3-2.5-3.9-2.5c-1.8,0-2.7,0.6-2.7,1.7c0,0.6,0.2,1.2,0.7,1.5c0.4,0.3,1.4,0.8,3,1.5
						c1.7,0.7,2.8,1.4,3.4,1.9C110.7,239,111,240,111,241.3"/>
				</g>
			</g>
			<g transform="matrix(2.96596,0,0,2.96596,12.3973,59.8487)">
				<g transform="matrix(1,0,0,1,261.368,73.6449)">
					<path d="M123.8,251.9c0,0.5-0.3,0.7-0.9,0.7c-0.9,0-2.1,0.1-3.6,0.2c-0.7,0.1-1.3,0.1-1.6-0.3c-2.1-2.2-3.8-4.6-5.3-7
						c-0.1-0.2-0.3-0.3-0.5-0.3s-0.6,0.2-1.2,0.6c-0.6,0.3-0.9,0.8-0.9,1.5c0,0.4,0,1.1,0,1.9c0,0.8,0.2,1.4,0.6,1.7
						c0.3,0.2,0.9,0.3,1.9,0.4c0.6,0.1,0.9,0.3,0.9,0.7c0,0.3,0,0.5-0.1,0.6s-0.4,0.1-0.8,0c-1.3-0.1-3.5-0.1-6.6,0.2
						c-0.8,0.1-1.2,0-1.3-0.3v-0.4c0-0.4,0.4-0.7,1.2-0.9c0.7-0.2,1.1-1,1.1-2.5v-17.2c0-1.1-0.1-1.8-0.3-2.2
						c-0.3-0.5-0.9-1-1.8-1.3c-0.4-0.1-0.6-0.4-0.6-0.6c0-0.4,0.3-0.7,0.9-0.9c1-0.3,1.9-0.8,2.8-1.4c0.7-0.5,1.2-0.7,1.3-0.7
						c0.5,0,0.8,0.3,0.8,1c0-0.1,0,0.6,0,1.9c0,1,0,2.2,0,3.9v12.3c0,0.3,0.1,0.5,0.3,0.5c0.2,0,0.5-0.2,0.9-0.5
						c1.1-0.9,2.4-2,4-3.3c0.3-0.3,0.5-0.6,0.5-0.8c0-0.4-0.5-0.6-1.6-0.7c-0.5,0-0.7-0.3-0.6-0.8c0-0.5,0.3-0.7,0.7-0.6
						c0.9,0.1,2.3,0.2,4.1,0.2c1.3,0,2.5,0,3.8,0c0.4,0,0.6,0.3,0.6,0.7s-0.3,0.7-1,0.7c-1,0-2,0.3-2.9,0.7c-1.2,0.6-2.6,1.6-4,3
						l-0.2,0.3c0,0.2,0.2,0.6,0.7,1.3c1.6,2.5,3.2,4.4,4.6,5.6c0.9,0.8,1.8,1.2,2.6,1.2c0.6,0,1,0,1.1,0.1
						C123.7,251.3,123.8,251.5,123.8,251.9"/>
				</g>
			</g>
		</g>
		<g transform="matrix(2.96596,0,0,2.96596,12.3973,59.8487)">
			<text transform="matrix(0.3372 0 0 0.3372 305.4463 373.1141)" class="st4 st5">Flask</text>
		</g>
	</g>
	<g>
		<path d="M1742,1009c-6.5,0-12.2,1.6-16.9,3.9c-1.7-3.5-3.5-6.5-3.8-8.7c-0.3-2.6-0.7-4.2-0.3-7.3c0.4-3.1,2.2-7.6,2.2-7.9
			c0-0.3-0.4-1.9-4.1-2c-3.7,0-7,0.7-7.3,1.7c-0.4,1-1.1,3.2-1.6,5.6c-0.7,3.4-7.5,15.5-11.4,21.9c-1.3-2.5-2.4-4.7-2.6-6.4
			c-0.3-2.6-0.7-4.2-0.3-7.3c0.4-3.1,2.2-7.6,2.2-7.9c0-0.3-0.4-1.9-4.1-2c-3.7,0-7,0.7-7.3,1.7c-0.4,1-0.8,3.3-1.6,5.6
			c-0.8,2.3-9.9,22.5-12.2,27.8c-1.2,2.7-2.3,4.8-3,6.3c-0.8,1.5,0,0.1-0.1,0.3c-0.7,1.2-1,1.9-1,1.9l0,0c-0.5,0.9-1.1,1.8-1.3,1.8
			c-0.2,0-0.5-2.4,0.1-5.8c1.3-7,4.6-18,4.6-18.4c0-0.2,0.6-2.1-2.1-3.1s-3.6,0.7-3.8,0.7c-0.2,0-0.4,0.6-0.4,0.6s2.9-12.3-5.6-12.3
			c-5.4,0-12.8,5.9-16.5,11.2c-2.3,1.3-7.3,4-12.5,6.8c-2,1.1-4.1,2.3-6,3.3l-0.4-0.4c-10.4-11.1-29.7-19-28.9-33.9
			c0.3-5.4,2.2-19.7,37-37c28.5-14.2,51.3-10.3,55.3-1.6c5.6,12.4-12.2,35.4-41.8,38.7c-11.3,1.3-17.2-3.1-18.7-4.7
			c-1.6-1.7-1.8-1.8-2.4-1.5c-0.9,0.5-0.4,2,0,2.9c0.9,2.3,4.5,6.4,10.7,8.4c5.4,1.8,18.7,2.8,34.7-3.4
			c17.9-6.9,31.9-26.2,27.8-42.4c-4.2-16.4-31.4-21.8-57.1-12.7c-15.3,5.5-31.9,14-43.8,25.1c-14.2,13.2-16.4,24.8-15.5,29.6
			c3.3,17.1,26.9,28.3,36.4,36.6c-0.5,0.3-0.9,0.5-1.3,0.7c-4.7,2.3-22.7,11.8-27.3,21.7c-5.1,11.3,0.8,19.4,4.7,20.5
			c12.2,3.4,24.6-2.7,31.3-12.7c6.7-10,5.9-23,2.8-28.9l-0.1-0.2l3.7-2.2c2.4-1.4,4.8-2.7,6.8-3.9c-1.2,3.2-2,6.9-2.4,12.4
			c-0.5,6.4,2.1,14.7,5.6,18c1.5,1.4,3.3,1.5,4.5,1.5c4,0,5.8-3.3,7.8-7.3c2.5-4.8,4.7-10.4,4.7-10.4s-2.7,15.2,4.7,15.2
			c2.7,0,5.5-3.5,6.7-5.3l0,0c0,0,0.1-0.1,0.2-0.4c0.3-0.4,0.4-0.7,0.4-0.7v-0.1c1.1-1.9,3.5-6.2,7.2-13.4
			c4.7-9.2,9.2-20.8,9.2-20.8s0.4,2.8,1.8,7.5c0.8,2.8,2.5,5.8,3.9,8.7c-1.1,1.5-1.7,2.4-1.7,2.4l0,0c-0.9,1.2-1.9,2.4-2.9,3.6
			c-3.7,4.4-8.1,9.5-8.7,11c-0.7,1.7-0.5,3,0.8,4c1,0.7,2.7,0.9,4.6,0.7c3.3-0.2,5.7-1.1,6.8-1.6c1.8-0.7,3.9-1.6,5.9-3.1
			c3.6-2.7,5.9-6.5,5.6-11.6c-0.1-2.8-1-5.6-2.1-8.2c0.3-0.5,0.7-0.9,1-1.5c5.7-8.4,10.2-17.6,10.2-17.6s0.4,2.8,1.8,7.5
			c0.7,2.4,2.1,4.9,3.3,7.5c-5.4,4.4-8.8,9.5-9.9,12.8c-2.1,6.2-0.5,9,2.7,9.6c1.4,0.3,3.5-0.4,5-1c1.9-0.6,4.2-1.7,6.3-3.2
			c3.6-2.7,7.1-6.4,6.9-11.5c-0.1-2.3-0.7-4.6-1.6-6.8c4.6-1.9,10.5-3,18-2.1c16.2,1.9,19.4,12,18.8,16.2c-0.6,4.2-4,6.5-5.1,7.3
			c-1.1,0.7-1.5,0.9-1.4,1.5c0.1,0.8,0.7,0.7,1.6,0.6c1.3-0.2,8.5-3.5,8.8-11.2C1768.4,1019.9,1758.9,1008.9,1742,1009L1742,1009z
			 M1617.2,1051.1c-5.3,5.9-12.9,8.1-16.1,6.2c-3.5-2-2.1-10.6,4.5-16.8c4-3.8,9.2-7.3,12.6-9.4c0.8-0.5,1.9-1.2,3.3-2
			c0.2-0.1,0.4-0.2,0.4-0.2c0.3-0.1,0.5-0.3,0.8-0.5C1625.1,1037.2,1622.8,1045,1617.2,1051.1L1617.2,1051.1z M1656.3,1024.5
			c-1.9,4.5-5.8,16.2-8.1,15.6c-2-0.5-3.3-9.4-0.4-18.1c1.5-4.4,4.5-9.6,6.4-11.7c2.9-3.3,6.1-4.4,6.9-3
			C1662,1009,1657.5,1021.7,1656.3,1024.5z M1688.6,1040c-0.8,0.4-1.5,0.7-1.9,0.5c-0.3-0.1,0.3-0.7,0.3-0.7s4-4.3,5.6-6.3
			c0.9-1.2,2-2.5,3.2-4v0.4C1695.8,1035.1,1690.8,1038.6,1688.6,1040z M1713.5,1034.3c-0.6-0.4-0.5-1.8,1.5-6
			c0.8-1.7,2.5-4.5,5.5-7.1c0.4,1.1,0.6,2.1,0.5,3.1C1720.9,1030.8,1716.3,1033.3,1713.5,1034.3z"/>
		<g transform="matrix(2.96596,0,0,2.96596,12.3973,59.8487)">
			<text transform="matrix(0.3372 0 0 0.3372 544.8074 373.1141)" class="st4 st5">Sass</text>
		</g>
	</g>
	<g>
		<g>
			<path class="st12" d="M2003,965.3v93.2l-9.2,5.6l-9.2-5.6v-93.1l-23.8,14.6v79.8l32.9,20.1l33.2-20.3V980L2003,965.3L2003,965.3z
				 M1993.7,916.2l-69.3,42v79.8l18,10.6v-79.8l51.3-31.2l51.4,31.1l0.2,0.1v79.5l17.8-10.5v-79.7L1993.7,916.2L1993.7,916.2z"/>
		</g>
		<g transform="matrix(2.96596,0,0,2.96596,12.3973,59.8487)">
			<text transform="matrix(0.3372 0 0 0.3372 629.2045 373.1141)" class="st4 st5">Magento 2</text>
		</g>
	</g>
</g>
<g>
	<g transform="matrix(2.96596,0,0,2.96596,12.3973,59.8487)">
		<text transform="matrix(0.3372 0 0 0.3372 222.6007 140.7171)" class="st0 st1 st2">Intermedio</text>
	</g>
	<g transform="matrix(2.96596,0,0,2.96596,12.3973,59.8487)">
		<g transform="matrix(1,0,0,1,0,104.785)">
			<rect x="488" y="24.8" class="st3" width="2.3" height="70.4"/>
		</g>
	</g>
	<g>
		<g transform="matrix(2.96596,0,0,2.96596,12.3973,59.8487)">
			<g transform="matrix(1,0,0,1,260.838,27.4058)">
				<path d="M-158.1,146.2l-20.8-20.8c-1.2-1.2-3.1-1.2-4.3,0l-4.3,4.3l5.5,5.5c1.3-0.4,2.7-0.1,3.8,0.9c1,1,1.3,2.5,0.9,3.8
					l5.3,5.3c1.3-0.4,2.8-0.2,3.8,0.9c1.4,1.4,1.4,3.7,0,5.2c-1.4,1.4-3.7,1.4-5.2,0c-1.1-1.1-1.3-2.7-0.8-4l-4.9-4.9v13
					c0.3,0.2,0.7,0.4,1,0.7c1.4,1.4,1.4,3.7,0,5.2c-1.4,1.4-3.7,1.4-5.2,0c-1.4-1.4-1.4-3.7,0-5.2c0.4-0.4,0.8-0.6,1.2-0.8v-13.1
					c-0.4-0.2-0.8-0.4-1.2-0.8c-1.1-1.1-1.3-2.7-0.8-4l-5.4-5.4l-14.3,14.3c-1.2,1.2-1.2,3.1,0,4.3l20.8,20.8c1.2,1.2,3.1,1.2,4.3,0
					l20.7-20.7C-156.9,149.4-156.9,147.4-158.1,146.2"/>
			</g>
		</g>
		<g transform="matrix(2.96596,0,0,2.96596,12.3973,59.8487)">
			<text transform="matrix(0.3372 0 0 0.3372 67.9527 228.1335)" class="st4 st5">GIT</text>
		</g>
	</g>
	<g>
		<g transform="matrix(2.96596,0,0,2.96596,12.3973,59.8487)">
			<g transform="matrix(1,0,0,1,0,-109.726)">
				<path d="M171.9,309.3h47.7v-47.7h-47.7V309.3z M197.9,298.8c0,4.6-2.7,6.7-6.7,6.7c-3.6,0-5.7-1.9-6.7-4.1l3.6-2.2
					c0.7,1.2,1.3,2.3,2.9,2.3c1.5,0,2.4-0.6,2.4-2.8v-15.2h4.5V298.8z M208.5,305.6c-4.2,0-6.9-2-8.2-4.6l3.6-2.1
					c1,1.6,2.2,2.7,4.4,2.7c1.9,0,3-0.9,3-2.2c0-1.5-1.2-2.1-3.3-3l-1.1-0.5c-3.2-1.4-5.4-3.1-5.4-6.8c0-3.4,2.6-5.9,6.6-5.9
					c2.8,0,4.9,1,6.4,3.6L211,289c-0.8-1.4-1.6-1.9-2.9-1.9c-1.3,0-2.1,0.8-2.1,1.9c0,1.3,0.8,1.9,2.8,2.7l1.1,0.5
					c3.8,1.6,6,3.3,6,7C215.9,303.4,212.7,305.6,208.5,305.6"/>
			</g>
		</g>
		<g transform="matrix(2.96596,0,0,2.96596,12.3973,59.8487)">
			<text transform="matrix(0.3372 0 0 0.3372 157.245 228.3712)" class="st4 st5">JavaScript</text>
		</g>
	</g>
	<g>
		<g>
			<g transform="matrix(2.96596,0,0,2.96596,12.3973,59.8487)">
				<g transform="matrix(1,0,0,1,214.845,26.4574)">
					<path d="M123.6,149.3c0-3.5-4.4-6.9-11.3-9c1.6-6.9,0.9-12.5-2.2-14.2c-0.7-0.4-1.5-0.6-2.4-0.6l0,0c-3,0-6.9,2.1-10.9,5.9
						c-4-3.7-7.9-5.8-10.9-5.8l0,0c-0.9,0-1.7,0.2-2.5,0.6c-3.1,1.8-3.8,7.3-2.2,14.2c-6.8,2.1-11.2,5.4-11.2,9
						c0,3.5,4.4,6.9,11.3,9c-1.6,6.9-0.9,12.5,2.2,14.2c0.7,0.4,1.5,0.6,2.5,0.6c3,0,6.9-2.1,10.9-5.8c4,3.7,7.9,5.8,10.9,5.8
						c0.9,0,1.7-0.2,2.5-0.6c3.1-1.8,3.8-7.3,2.2-14.2C119.2,156.2,123.6,152.8,123.6,149.3 M107.7,127.9L107.7,127.9
						c0.5,0,0.9,0.1,1.2,0.3c1.5,0.9,2.1,4.1,1.6,8.3c-0.1,1-0.3,2.1-0.6,3.2c-2.1-0.5-4.5-0.9-6.9-1.2c-1.5-2-3-3.9-4.5-5.5
						C102.1,129.7,105.5,127.9,107.7,127.9 M87.2,154.9c0.5,0.9,1,1.7,1.6,2.6c-1.5-0.2-3-0.5-4.5-0.9c0.4-1.4,0.9-2.9,1.5-4.3
						C86.2,153.1,86.7,154,87.2,154.9 M84.3,142c1.4-0.3,2.9-0.6,4.5-0.9c-0.5,0.8-1.1,1.7-1.6,2.6c-0.5,0.9-1,1.7-1.4,2.6
						C85.2,144.9,84.7,143.4,84.3,142 M87.1,149.3c0.7-1.5,1.4-2.9,2.3-4.4s1.7-2.9,2.6-4.2c1.6-0.1,3.3-0.2,4.9-0.2
						s3.3,0.1,4.9,0.2c0.9,1.3,1.8,2.7,2.6,4.1c0.8,1.4,1.6,2.9,2.3,4.3c-0.7,1.5-1.4,2.9-2.3,4.4s-1.7,2.9-2.6,4.2
						c-1.6,0.1-3.3,0.2-4.9,0.2s-3.3-0.1-4.9-0.2c-0.9-1.3-1.8-2.7-2.6-4.1C88.5,152.2,87.7,150.8,87.1,149.3 M106.5,154.8
						c0.5-0.9,1-1.8,1.4-2.6c0.6,1.5,1.1,2.9,1.5,4.3c-1.4,0.3-2.9,0.6-4.5,0.9C105.5,156.6,106,155.7,106.5,154.8 M106.5,143.7
						c-0.5-0.9-1-1.7-1.6-2.6c1.6,0.2,3,0.5,4.5,0.9c-0.4,1.4-0.9,2.9-1.5,4.3C107.5,145.5,107,144.6,106.5,143.7 M99.9,138.2
						c-1,0-2-0.1-3-0.1s-2,0-3,0.1c1-1.3,2-2.4,3-3.5C97.9,135.8,98.9,136.9,99.9,138.2 M84.7,128.2c0.3-0.2,0.8-0.3,1.3-0.3l0,0
						c2.3,0,5.6,1.8,9.2,5.1c-1.5,1.6-3.1,3.4-4.5,5.4c-2.5,0.3-4.8,0.7-6.9,1.2c-0.3-1.1-0.4-2.2-0.6-3.2
						C82.6,132.3,83.2,129.1,84.7,128.2 M81.9,155.9c-1.1-0.3-2.1-0.7-3.1-1.1c-3.9-1.6-6.4-3.8-6.4-5.5s2.5-3.9,6.4-5.5
						c0.9-0.4,2-0.8,3-1.1c0.6,2.1,1.4,4.4,2.5,6.6C83.4,151.6,82.6,153.8,81.9,155.9 M86,170.7c-0.5,0-0.9-0.1-1.2-0.3
						c-1.5-0.9-2.1-4.1-1.6-8.3c0.1-1,0.3-2.1,0.6-3.2c2.1,0.5,4.5,0.9,6.9,1.2c1.5,2,3,3.9,4.5,5.5C91.6,168.9,88.3,170.7,86,170.7
						 M96.9,163.9c-1-1-2-2.2-3-3.5c1,0,2,0.1,3,0.1s2,0,3-0.1C98.9,161.6,97.9,162.8,96.9,163.9 M109.1,170.4
						c-0.3,0.2-0.8,0.3-1.3,0.3c-2.3,0-5.6-1.8-9.2-5.1c1.5-1.6,3.1-3.4,4.5-5.4c2.5-0.3,4.8-0.7,6.9-1.2c0.3,1.1,0.4,2.2,0.6,3.2
						C111.2,166.3,110.5,169.5,109.1,170.4 M114.9,154.8c-0.9,0.4-2,0.8-3,1.1c-0.6-2.1-1.4-4.4-2.5-6.6c1-2.3,1.8-4.5,2.4-6.6
						c1.1,0.3,2.1,0.7,3.1,1.1c3.9,1.6,6.4,3.8,6.4,5.5C121.2,151,118.7,153.2,114.9,154.8"/>
				</g>
			</g>
			<g transform="matrix(2.96596,0,0,2.96596,12.3973,59.8487)">
				<g transform="matrix(1,0,0,1,203.016,24.2595)">
					<path d="M108.7,156.5c2.8,0,5-2.2,5-5s-2.2-5-5-5s-5,2.2-5,5C103.7,154.2,105.9,156.5,108.7,156.5"/>
				</g>
			</g>
		</g>
		<g transform="matrix(2.96596,0,0,2.96596,12.3973,59.8487)">
			<text transform="matrix(0.3372 0 0 0.3372 279.9069 228.3712)" class="st4 st5">React JS</text>
		</g>
	</g>
	<g>
		<g>
			<g transform="matrix(2.96596,0,0,2.96596,12.3973,59.8487)">
				<g transform="matrix(1,0,0,1,109.765,22.509)">
					<path d="M322.8,150c0.8-0.7,1.2-1.6,1.2-2.9c0-1.4-0.4-2.4-1.1-3s-1.7-0.9-3-0.9H312v7.7h7.9C321,151,322,150.6,322.8,150"/>
				</g>
			</g>
			<g transform="matrix(2.96596,0,0,2.96596,12.3973,59.8487)">
				<g transform="matrix(1,0,0,1,108.767,30.8473)">
					<path d="M321.5,146.1h-8.6v8.7h8.6c1.5,0,2.6-0.4,3.4-1.2s1.2-1.9,1.2-3.3c0-1.4-0.4-2.4-1.2-3.2
						C324.1,146.5,323,146.1,321.5,146.1"/>
				</g>
			</g>
			<g transform="matrix(2.96596,0,0,2.96596,12.3973,59.8487)">
				<g transform="matrix(1,0,0,1,114.641,36.8007)">
					<path d="M329,114.7h-31.8c-4.4,0-7.9,3.6-7.9,7.9v31.8c0,4.4,3.6,7.9,7.9,7.9H329c4.4,0,7.9-3.6,7.9-7.9v-31.8
						C336.9,118.2,333.3,114.7,329,114.7 M324.6,148.2c-0.4,1-1,1.8-1.8,2.5s-1.9,1.2-3.2,1.6c-1.3,0.4-2.8,0.6-4.6,0.6h-12.8V125
						h13.5c2.5,0,4.5,0.6,6,1.7s2.3,2.9,2.3,5.2c0,1.4-0.3,2.6-1,3.6s-1.7,1.8-2.9,2.3v0.1c1.7,0.4,3,1.2,3.9,2.4
						c0.9,1.3,1.3,2.8,1.3,4.7C325.2,146.2,325,147.2,324.6,148.2"/>
				</g>
			</g>
		</g>
		<g transform="matrix(2.96596,0,0,2.96596,12.3973,59.8487)">
			<text transform="matrix(0.3372 0 0 0.3372 391.7593 228.3712)" class="st4 st5">Bootstrap</text>
		</g>
	</g>
	<g>
		<g>
			<g transform="matrix(2.96596,0,0,2.96596,12.3973,59.8487)">
				<g transform="matrix(1,0,0,1,6.2689,18.5787)">
					<path d="M523.7,132.9h2.1v2.1h2v-2.1h2.1v6.4h-2.1v-2.1h-2v2.1h-2.2 M532.8,135h-1.9v-2.1h5.9v2.1h-1.9v4.3h-2.1 M537.7,132.9
						h2.2l1.4,2.3l1.4-2.3h2.2v6.4h-2.1v-3.2l-1.5,2.3l-1.5-2.3v3.2h-2.1 M546,132.9h2.1v4.3h3v2.1H546"/>
				</g>
			</g>
			<g transform="matrix(2.96596,0,0,2.96596,12.3973,59.8487)">
				<g transform="matrix(1,0,0,1,4.8788,36.8004)">
					<path d="M521.9,124l3.1,34.5l13.8,3.8l13.8-3.8l3.1-34.5H521.9z M549,135.3h-16.2l0.4,4.3h15.4l-1.2,13l-8.6,2.4l0,0l-8.7-2.4
						l-0.6-6.6h4.2l0.3,3.4l4.7,1.3l4.7-1.3l0.5-5.5h-5.2l0,0h-9.4l-1.2-12.8h21.2L549,135.3z"/>
				</g>
			</g>
		</g>
		<g transform="matrix(2.96596,0,0,2.96596,12.3973,59.8487)">
			<text transform="matrix(0.3372 0 0 0.3372 523.598 228.3712)" class="st4 st5">HTML</text>
		</g>
	</g>
	<g>
		<g>
			<g transform="matrix(2.96596,0,0,2.96596,12.3973,59.8487)">
				<g transform="matrix(1,0,0,1,56.4467,16.648)">
					<path d="M595.4,139.1V137h3v-2.3h-5.3v6.4h5.3V139h-3V139.1z M603.8,137.1h2.1v-2.3h-5.3v2.3c0.7,0.7,1.1,1,2.1,2.1
						c-0.6,0-2.1,0-2.1,0v2.1h5.3v-2.1L603.8,137.1z M611.2,137.1h2.1v-2.3H608v2.3c0.7,0.7,1.1,1,2.1,2.1c-0.6,0-2.1,0-2.1,0v2.1
						h5.3v-2.1L611.2,137.1z"/>
				</g>
			</g>
			<g transform="matrix(2.96596,0,0,2.96596,12.3973,59.8487)">
				<g transform="matrix(1,0,0,1,52.3959,36.8002)">
					<path d="M590.3,124.1l3.2,34.6l13.8,3.7l13.8-3.7l3.2-34.6H590.3z M617.9,131.1l-0.4,4.2l-10.2,4.4l0,0h9.8l-1.1,12.9l-8.7,2.5
						l0,0l0,0l-8.7-2.6L598,146l0,0l0,0h4.3l0.3,3.4l4.6,1.2l0,0l0,0l4.8-1.3l0.3-5.4h-5.1h-9.6l-0.3-4.1l9.9-4.1l0.6-0.2H597
						l-0.5-4.2h21.4V131.1z"/>
				</g>
			</g>
		</g>
		<g transform="matrix(2.96596,0,0,2.96596,12.3973,59.8487)">
			<text transform="matrix(0.3372 0 0 0.3372 646.4579 228.3712)" class="st4 st5">CSS</text>
		</g>
	</g>
	<g transform="matrix(2.96596,0,0,2.96596,12.3973,59.8487)">
		<text transform="matrix(0.3372 0 0 0.3372 570.3673 140.8035)" class="st0 st1 st2">Avanzado</text>
	</g>
</g>
</svg>
