<?xml version="1.0"?>
<svg xmlns="http://www.w3.org/2000/svg" id="Outline" viewBox="0 0 512 512" width="45pt" height="45pt"><path d="M472,24H40A24.028,24.028,0,0,0,16,48V368a24.028,24.028,0,0,0,24,24H198.063l-53.02,53.023a24,24,0,0,0,16.966,40.964h0a23.818,23.818,0,0,0,16.967-7.03L265.939,392H472a24.028,24.028,0,0,0,24-24V48A24.028,24.028,0,0,0,472,24ZM40,40H472a8.009,8.009,0,0,1,8,8v8H32V48A8.009,8.009,0,0,1,40,40ZM286.461,348.853,275.147,337.54,320.4,292.283,331.717,303.6ZM310.056,280H304V259.872A72.176,72.176,0,0,0,351.545,200H384v80H361.847l5.507-12.849a8,8,0,0,0-10.5-10.5l-39.6,16.97a8.015,8.015,0,0,0-2.506,1.7ZM288,247.419A56,56,0,1,1,335.419,184H296a8,8,0,0,0-8,8ZM304,200h31.419A56.145,56.145,0,0,1,304,242.586Zm40.77,79.23-4.438,10.357-5.918-5.919Zm3.918,30.027a8.029,8.029,0,0,0,1.7-2.506L354.991,296H392a8,8,0,0,0,8-8V192a8,8,0,0,0-8-8H351.545A72.069,72.069,0,1,0,288,263.545V288a8,8,0,0,0,6.254,7.8l-16.2,16.2H160V104H448V312H345.944ZM329.943,328H456a8,8,0,0,0,8-8V96a8,8,0,0,0-8-8H152a8,8,0,0,0-8,8V320a8,8,0,0,0,8,8H262.059l-16,16H128V72H480V344H313.942ZM32,344V72h80V344Zm8,32a8.009,8.009,0,0,1-8-8v-8H230.061l-16,16Zm127.659,91.647a7.995,7.995,0,1,1-11.3-11.311L263.834,348.854l11.313,11.313ZM472,376H281.94l16-16H480v8A8.009,8.009,0,0,1,472,376Z"/><path d="M72,136a24,24,0,1,0-24-24A24.027,24.027,0,0,0,72,136Zm0-32a8,8,0,1,1-8,8A8.009,8.009,0,0,1,72,104Z"/><path d="M88,152H56a8,8,0,0,0-8,8V320a8,8,0,0,0,8,8H88a8,8,0,0,0,8-8V160A8,8,0,0,0,88,152Zm-8,16v16H64V168ZM64,248V232H80v16Zm16,16v16H64V264ZM64,216V200H80v16Zm0,96V296H80v16Z"/></svg>
