<svg height="45pt" viewBox="0 0 512 512" width="45pt" xmlns="http://www.w3.org/2000/svg"><g id="outline"><path d="m187.288 156.6a8 8 0 0 0 -10.325-4.624l-68.579 26.155a8 8 0 1 0 5.7 14.949l68.579-26.154a8 8 0 0 0 4.625-10.326z"/><path d="m197.442 178.114a8 8 0 0 0 -11.244-1.25l-62.469 49.975a8 8 0 1 0 9.994 12.494l62.469-49.975a8 8 0 0 0 1.25-11.244z"/><path d="m211.956 194.773a8 8 0 0 0 -11 2.649l-38.075 62.224a8 8 0 1 0 13.648 8.354l38.071-62.227a8 8 0 0 0 -2.644-11z"/><path d="m432.461 256.053-64.95-111.886a77.233 77.233 0 0 0 7.52-26.706c.123-.108.248-.213.365-.33l19.38-19.384a47.033 47.033 0 0 0 -51.176-76.747l-25.824 10.642a78.358 78.358 0 0 0 -7.689-1.953 76.36 76.36 0 0 0 -57.707 11.423l-4 2.669a25.023 25.023 0 0 0 -28.287-.369l-24.961 16.645a25 25 0 0 0 -6.93 34.67l21.636 32.446a40.45 40.45 0 0 0 -1.5 5.47 40 40 0 0 0 31.384 47.063 40.644 40.644 0 0 0 5.625.715l21.637 32.447a25.022 25.022 0 0 0 34.67 6.93l24.96-16.644a24.994 24.994 0 0 0 11.109-21.4l56.88 96.431a39.882 39.882 0 0 0 -.1 35.436l-80.634 134.379h-19.469v-16a8 8 0 0 0 -8-8h-24a8 8 0 0 0 -8 8v16h-8a24 24 0 0 0 0 48h160a24 24 0 0 0 0-48h-41.87l67.22-112.034a39.994 39.994 0 0 0 .711-79.913zm-16.874 2.8a40.051 40.051 0 0 0 -10.263 6.012l-56.778-96.259a76.571 76.571 0 0 0 9.229-9.341zm-65.887-223.053a31.034 31.034 0 0 1 33.767 50.636l-9.43 9.431a76.7 76.7 0 0 0 -11.58-28.224l-3.483-5.224a76.7 76.7 0 0 0 -21.6-21.54zm-42.745 9.58a60.458 60.458 0 0 1 38.701 25.92l3.484 5.224a60.857 60.857 0 0 1 -16.869 84.4l-2.612 1.741-71.014-106.498 2.612-1.742a60.476 60.476 0 0 1 45.693-9.046zm-105.44 40.47a9 9 0 0 1 2.494-12.482l5.823-3.883 22.192 33.28-6.656 4.438a40.377 40.377 0 0 0 -6.212 5.1zm26.078 67.95a24 24 0 0 1 6.652-33.282l6.655-4.439 26.631 39.936-6.655 4.437a24 24 0 0 1 -33.283-6.652zm58.427 54.026a8.934 8.934 0 0 1 -5.724-3.832l-17.653-26.474a40.36 40.36 0 0 0 7.11-3.758l6.655-4.438 22.192 33.276-5.824 3.882a8.922 8.922 0 0 1 -6.756 1.341zm31.716-17.981-5.823 3.884-88.769-133.121 5.824-3.883a9 9 0 0 1 12.473 2.483l78.791 118.155a9.011 9.011 0 0 1 -2.496 12.479zm-47.336 250.155h8v8h-8zm144 32a8.009 8.009 0 0 1 -8 8h-160a8 8 0 0 1 0-16h160a8.009 8.009 0 0 1 8 8zm-81.87-24 72.609-121.014a40.022 40.022 0 0 0 9.8 5.9l-69.069 115.114zm97.87-128a24 24 0 1 1 24-24 24.028 24.028 0 0 1 -24 24z"/></g></svg>