<?xml version="1.0" encoding="UTF-8" standalone="no"?>
<!DOCTYPE svg PUBLIC "-//W3C//DTD SVG 1.1//EN" "http://www.w3.org/Graphics/SVG/1.1/DTD/svg11.dtd">
<svg width="100%" height="100%" viewBox="0 0 475 675" version="1.1" xmlns="http://www.w3.org/2000/svg" xmlns:xlink="http://www.w3.org/1999/xlink" xml:space="preserve" xmlns:serif="http://www.serif.com/" style="fill-rule:evenodd;clip-rule:evenodd;stroke-linecap:round;stroke-linejoin:round;stroke-miterlimit:1.5;">
    <g transform="matrix(1,0,0,1,-125.987,-70.9211)">
        <g>
            <g transform="matrix(0.861869,0,0,0.861869,13.2522,130.524)">
                <path id="Glasses" d="M380.251,323.198C383.23,365.343 354.772,397.609 321.102,412.118C274.295,432.289 213.717,414.087 193.968,364.973C188.761,352.026 185.453,337.754 185.764,323.739C186.019,312.289 188.547,300.918 192.413,290.163C207.428,248.383 248.729,233.03 289.092,238.107C328.986,243.126 367.287,268.291 377.262,305.607C377.821,307.696 378.302,309.766 378.712,311.823C385.079,307.482 393.076,306.152 399.952,306.152C406.942,306.152 414.886,307.527 421.244,312.043C421.663,309.916 422.159,307.772 422.738,305.607C432.713,268.291 471.014,243.126 510.908,238.107C551.271,233.03 592.572,248.383 607.587,290.163C611.453,300.918 613.981,312.289 614.236,323.739C614.547,337.754 611.239,352.026 606.032,364.973C586.283,414.087 525.705,432.289 478.898,412.118C445.24,397.614 416.789,365.365 419.747,323.234C417.989,323.119 416.3,322.229 415.226,320.666C411.177,314.771 404.95,314.182 399.811,314.182C394.673,314.182 388.445,314.771 384.396,320.666C383.399,322.118 381.871,322.989 380.251,323.198ZM361.805,309.739C373.006,351.639 346.349,383.817 314.77,397.425C275.863,414.19 225.229,399.828 208.812,359.004C204.402,348.036 201.496,335.967 201.761,324.095C201.977,314.365 204.185,304.714 207.47,295.574C219.755,261.393 254.073,249.828 287.095,253.982C320.587,258.195 353.43,278.411 361.805,309.739ZM438.195,309.739C446.57,278.411 479.413,258.195 512.905,253.982C545.927,249.828 580.245,261.393 592.53,295.574C595.815,304.714 598.023,314.365 598.239,324.095C598.504,335.967 595.598,348.036 591.188,359.004C574.771,399.828 524.137,414.19 485.23,397.425C453.651,383.817 426.994,351.639 438.195,309.739Z"/>
            </g>
            <g transform="matrix(0.987121,0,0,0.987121,4.67706,3.58377)">
                <path d="M162.844,278.254C162.844,278.254 158.019,328.436 157.686,348.727C157.405,365.848 160.844,400 160.844,400C160.844,400 148.703,383.553 137.844,400C127.256,416.035 130.177,453.762 133.844,478.971C137.51,504.18 146.675,537.801 158.51,540.963C168.883,543.734 173.339,540.963 173.339,540.963C173.339,540.963 182.253,621.285 201.796,642.588C232.573,676.136 280.599,717.699 358,742.254C366.045,744.807 363.143,743.985 363.143,743.985C363.143,743.985 366.403,742.85 368.281,742.254C445.683,717.699 493.709,676.136 524.485,642.588C544.029,621.285 552.942,540.963 552.942,540.963C552.942,540.963 557.398,543.734 567.771,540.963C579.607,537.801 588.771,504.18 592.438,478.971C596.104,453.762 599.025,416.035 588.438,400C577.578,383.553 565.438,400 565.438,400C565.438,400 568.877,365.848 568.595,348.727C568.262,328.436 563.438,278.254 563.438,278.254" style="fill:none;stroke:black;stroke-width:15.2px;"/>
            </g>
            <path d="M160.177,294.921L155.177,249.921L173.339,181.921L194.177,146.921L195.177,165.921L244.245,98.921L244.245,110.921L304.796,77.921L385.177,70.921L368.281,86.921L446.177,90.921L493.177,104.921L482.036,115.921L527.177,136.921L514.177,143.921L561.177,175.921L542.661,182.921L583.177,214.921L567.177,217.921L583.177,248.921L569.177,248.921L583.177,278.254L567.177,304.921L564.177,393.921L549.177,329.921L547.177,310.921C555.385,314.506 564.357,312.304 565.01,306.588C563.653,292.62 551.47,286.276 542.177,284.921L530.177,248.921L525.177,227.921L513.177,219.921L501.177,203.921L484.177,202.921L472.177,192.921L453.177,192.921L437.177,181.921L417.177,185.921L406.177,175.921L382.177,182.921L370.177,175.921L348.177,186.921L333.177,180.921L315.177,190.921L304.796,187.921L280.177,204.921L262.177,199.921L244.245,218.921L223.177,219.921L200.177,242.921L184.177,278.254L173.339,334.936L155.177,400L160.177,294.921Z"/>
        </g>
    </g>
</svg>
